<svg xmlns="http://www.w3.org/2000/svg" id="a" viewBox="0 0 477.94 243.968"><path d="m468.668,95.441c-.784-3.136-2.288-5.828-4.484-7.923-2.384-2.267-5.733-3.29-9.691-3.283-6.317-.006-12.346,2.121-17.888,6.231-5.407,4.037-10.229,8.978-14.474,14.808-3.727,5.173-6.89,10.688-9.504,16.539-.744.995-1.402,1.907-1.963,2.729l-.024.034-.019.034c-1.358,2.213-3.247,4.955-5.652,8.2-2.374,3.223-4.961,6.337-7.757,9.348-2.771,3.003-5.53,5.567-8.28,7.703-2.647,2.065-4.911,2.934-6.766,2.928-1.132-.022-1.501-.278-1.754-.584-.448-.572-.769-1.311-.922-2.344-.096-.637-.142-1.307-.142-2.022,0-.545.024-1.112.083-1.703.144-1.476.305-2.839.477-4.091.683-4.956,1.489-9.908,2.424-14.863.947-5.01,1.772-10.022,2.467-15.039.222-1.613.424-3.563.615-5.863.08-.992.122-1.981.122-2.973,0-1.406-.079-2.814-.248-4.225-.293-2.476-.973-4.661-2.095-6.502-1.225-2.08-3.5-3.27-5.936-3.222-3.266.043-6.594,1.897-10.448,5.13-3.752,3.197-7.485,6.889-11.204,11.07-3.682,4.175-7.11,8.414-10.294,12.729-.594.815-1.162,1.593-1.704,2.334.289-1.11.588-2.221.895-3.33,1.125-4.035,2.564-8.007,4.324-11.912,1.52-3.469,3.038-7.24,4.558-11.323,1.569-4.177,2.565-8.203,2.968-12.086.059-.612.096-1.196.096-1.761,0-1.753-.308-3.33-1.067-4.667-.565-1.003-1.485-1.775-2.537-2.215-1.055-.449-2.233-.624-3.531-.627-3.057-.003-6.016,1.308-8.74,3.638-2.707,2.307-4.577,4.959-5.432,7.927-.944,3.311-1.817,6.684-2.627,10.127-.79,3.395-1.642,6.719-2.54,9.968-2.058,7.726-4.125,15.681-6.197,23.874-1.265,1.973-2.851,4.372-4.746,7.206-2.522,3.797-5.256,7.485-8.206,11.067-2.916,3.571-5.828,6.631-8.728,9.187-2.802,2.498-5.143,3.515-6.858,3.497-.486-.007-.772-.105-1.049-.282-.271-.182-.563-.49-.853-1.062-.688-1.367-1.208-3.039-1.531-5.031-.326-1.962-.485-3.917-.485-5.872v-.227l-1.821-.016,1.821.01c.009-2.123.039-3.816.086-5.07.221-6.423.983-12.627,2.3-18.618.422-1.513.978-3.282,1.68-5.306.714-2.06,1.427-4.123,2.152-6.186.729-2.095,1.372-4.13,1.913-6.093.557-2.016.886-3.809.954-5.427.009-.165.012-.313.012-.472.007-1.713-.439-3.342-1.604-4.514-1.163-1.165-2.793-1.618-4.503-1.609-4.519-.027-8.336,1.508-10.796,4.639-2.232,2.842-3.977,6.28-5.274,10.289l-.013.036v.003c-1.129,3.782-2.149,8.146-3.079,13.107-.537,2.895-.929,5.641-1.178,8.24-.255.284-.495.586-.704.913-.898,1.361-1.673,2.545-2.312,3.548l-.031.046-.012.029c-1.08,1.881-2.873,4.513-5.35,7.825-2.444,3.3-5.108,6.526-7.992,9.685-2.854,3.154-5.678,5.866-8.471,8.149-1.113.922-2.141,1.604-3.058,2.071.628-1.557,1.126-3.182,1.485-4.87.606-2.775.914-5.562.914-8.355,0-.198,0-.398-.007-.597-.07-4.726-.787-9.377-2.146-13.95-1.353-4.501-3.039-8.894-5.057-13.176-2.011-4.226-4.103-8.409-6.268-12.561-2.052-3.881-3.882-7.753-5.493-11.626.987-3.143,1.861-6.437,2.614-9.885.735-3.317,1.107-6.617,1.107-9.897,0-.446-.006-.889-.018-1.335-.037-1.244-.187-2.546-.446-3.909-.261-1.409-.673-2.775-1.227-4.103-.603-1.433-1.47-2.683-2.589-3.658-1.203-1.06-2.759-1.638-4.361-1.625-2.895-.015-5.57,1.176-7.634,3.331-1.959,2.024-3.512,4.434-4.663,7.183-1.122,2.691-1.943,5.527-2.478,8.497-.431,2.402-.646,4.585-.646,6.563,0,.456.006.898.031,1.332.209,3.845.972,7.629,2.276,11.327-2.543,10.682-6.139,20.581-10.752,29.717-.298.56-.582,1.113-.855,1.661-1.495,2.854-3.088,5.635-4.786,8.336-.483.752-.91,1.523-1.273,2.302-1.578,2.494-3.257,4.922-5.047,7.285-2.248,2.993-4.549,5.582-6.917,7.773-2.264,2.117-4.164,2.941-5.663,2.93-.347-.007-.575-.079-.904-.31-.323-.235-.716-.68-1.11-1.409-.892-1.623-1.636-3.552-2.215-5.783-.597-2.284-1.045-4.522-1.338-6.72-.304-2.269-.514-3.968-.637-5.08-.387-3.632-.59-7.519-.603-11.663v-.137c0-4.046.298-7.841.898-11.385.335-1.532.815-3.567,1.439-6.086.526-2.153.818-4.011.818-5.647,0-.398-.018-.784-.056-1.163-.092-.91-.332-1.775-.806-2.539-.468-.766-1.193-1.387-2.021-1.73-1.215-.517-2.488-.787-3.773-.784-2.242-.054-4.389.994-5.49,2.903-.889,1.479-1.59,3.063-2.094,4.752-.492,1.464-1.172,3.641-2.049,6.562-.855,2.882-1.897,6.017-3.115,9.408-1.215,3.414-2.5,6.928-3.845,10.554-1.319,3.583-2.691,6.799-4.115,9.641-1.415,2.855-2.811,5.184-4.161,6.986-.64.858-1.23,1.437-1.698,1.76-.474.327-.778.396-.997.396-.194-.013-.163-.021-.215-.054-.049-.038-.2-.202-.345-.63-.412-1.214-.658-2.198-.763-2.887-.455-3.116-.683-6.138-.683-9.074,0-4.521.542-8.83,1.627-12.942,1.849-6.831,4.804-12.982,8.898-18.494,2.337-3.18,4.884-5.962,7.64-8.361,2.817-2.431,5.825-4.767,9.023-7.004.579-.341,1.104-.74,1.562-1.204.701-.694.978-1.671.966-2.524,0-.181-.009-.363-.027-.549-.225-2.139-1.431-4.043-3.239-5.651-1.796-1.593-3.715-2.589-5.788-2.596-6.25-.012-12.041,2.348-17.063,6.871-4.903,4.442-8.975,9.943-12.21,16.454-3.175,6.502-5.407,13.392-6.724,20.667-.551,3.157-.898,6.171-1.037,9.045-.489,1.259-1.049,2.473-1.691,3.643-3.74,7.053-8.563,12.447-14.539,16.328-5.902,3.862-12.549,5.789-20.18,5.793-6.818-.004-12.591-1.591-17.512-4.731-5.069-3.217-9.473-7.421-13.238-12.662-3.823-5.281-7.027-11.225-9.605-17.857l-1.693.661,1.693-.664c-2.613-6.691-4.793-13.488-6.531-20.392-1.01-4.014-1.825-8.886-2.416-14.584-.449-4.368-.672-8.886-.672-13.554,0-1.404.02-2.82.061-4.254.199-6.162.871-12.259,2.024-18.289,1.173-5.985,2.891-11.362,5.131-16.118,2.246-4.699,5.096-8.414,8.543-11.215,3.381-2.722,7.303-4.068,12.012-4.077,4.783.019,8.513,1.598,11.635,4.875,3.174,3.386,5.161,7.338,6.037,12.006.541,2.897.871,5.903.987,9.025.034.967.052,1.919.052,2.851,0,2.07-.086,4.055-.27,5.948-.104.809-.265,1.844-.489,3.092-.227,1.265-.477,2.567-.751,3.905-.289,1.416-.489,2.768-.597,4.06-.046.495-.061.975-.061,1.432,0,.767.059,1.487.187,2.161.341,1.931,1.47,3.681,3.266,4.422,1.366.591,2.799.895,4.245.894,2.171.009,4.18-.607,5.702-1.942,1.799-1.67,2.67-4.151,3.168-7.406.436-2.934.655-6.102.655-9.5,0-.27,0-.544-.003-.818-.031-3.685-.221-7.292-.566-10.837-.338-3.514-.67-6.211-1.009-8.149-.781-4.459-2.245-8.644-4.392-12.525-2.156-3.874-4.829-7.216-8.009-9.991-3.189-2.776-6.849-4.983-10.943-6.621-4.143-1.651-8.486-2.481-12.983-2.481-7.78-.003-14.769,1.51-20.863,4.572-6.001,3.034-11.076,7.163-15.159,12.353-4.017,5.168-7.143,11.127-9.39,17.848-2.185,6.693-3.614,13.662-4.295,20.909-.3,3.35-.446,6.708-.446,10.082,0,3.924.2,7.873.598,11.839.758,7.36,2.062,14.366,3.897,21.017,2.476,8.966,5.994,17.67,10.528,26.111,4.492,8.448,9.756,15.947,15.769,22.475,5.95,6.535,12.595,11.832,19.905,15.846,7.317,4.055,15.196,6.101,23.559,6.1,5.788,0,11.306-1.043,16.535-3.119,5.216-2.067,10.014-4.947,14.372-8.634,3.771-3.15,7.188-6.799,10.254-10.921.683,2.195,1.522,4.302,2.528,6.299,1.231,2.444,2.777,4.552,4.632,6.277,1.944,1.839,4.383,2.852,6.985,2.835,2.956.008,5.727-1.362,8.102-3.73,2.276-2.245,4.398-4.914,6.36-8.003,1.957-3.053,3.707-6.221,5.241-9.497.363-.772.713-1.514,1.045-2.226.166,1.04.35,2.133.56,3.277.707,3.886,1.771,7.634,3.192,11.232,1.427,3.639,3.236,6.805,5.456,9.465,2.282,2.807,5.397,4.394,8.86,4.394h.083c3.521.006,6.945-1.236,10.137-3.548,3.113-2.232,6.003-4.979,8.664-8.223,2.642-3.192,5.078-6.611,7.298-10.242,1.716-2.774,3.235-5.295,4.564-7.561.867-1.384,1.716-2.891,2.546-4.522,1.624-3.168,3.162-6.488,4.613-9.945,1.458-3.46,2.771-6.953,3.937-10.492.646-1.946,1.23-3.795,1.756-5.548.932,1.636,1.879,3.423,2.842,5.362,1.688,3.431,3.223,6.968,4.598,10.614,1.347,3.639,2.482,7.274,3.395,10.91.898,3.594,1.384,6.952,1.482,10.078.012.346.015.689.015,1.025-.003,4.663-1.036,8.355-2.977,11.25-2.027,2.973-4.788,4.383-9.128,4.428-2.245,0-4.3-.27-6.191-.788-1.809-.499-3.706-1.452-5.702-2.917l-.028-.02-.027-.018c-.637-.434-1.181-.794-1.624-1.085-.837-.535-1.781-.724-2.737-.724-1.178-.01-2.417.321-3.31,1.238-.886.916-1.187,2.142-1.181,3.332,0,.201.006.396.021.581.089,1.209.391,2.344.957,3.338.486.84,1.092,1.655,1.812,2.453,3.066,3.269,6.852,5.404,11.204,6.324,4.103.876,7.938,1.319,11.512,1.322,6.539,0,12.527-.917,17.958-2.769,5.426-1.846,10.393-4.546,14.877-8.089,4.494-3.522,8.67-7.836,12.539-12.93,1.695-2.208,3.365-4.549,5.011-7.003.387,3.223,1.027,6.333,1.922,9.312,1.169,3.942,2.836,7.358,5.026,10.194,2.275,3.04,5.723,4.662,9.685,4.662h.12c3.693,0,7.394-1.439,11.057-4.081,3.58-2.562,7.102-5.666,10.571-9.293,1.926-1.998,3.773-4.056,5.558-6.166-.793,5.142-1.375,10.226-1.726,15.243-.024.27-.03.542-.03.807,0,1.37.265,2.682.836,3.856h0c.382.8.997,1.517,1.784,1.973.787.463,1.685.654,2.583.651.013,0,.024,0,.044,0,2.181,0,4.213-1.019,5.797-2.699,1.479-1.547,2.703-3.263,3.644-5.139l.01-.024.015-.031c2.485-5.385,5.054-10.667,7.695-15.846,2.648-5.137,5.561-10.174,8.738-15.11,2.639-4.102,5.57-8.418,8.806-12.955,3.214-4.469,6.569-8.37,10.063-11.699.554-.544,1.316-1.233,2.295-2.07.258-.226.498-.406.694-.538.009.306.013.584.013.831,0,.492-.018.87-.049,1.088-.515,4.094-1.144,8.114-1.886,12.061-.76,4.027-1.394,8.121-1.916,12.286-.345,2.747-.628,5.768-.852,9.07-.067.99-.102,1.966-.102,2.922,0,2.344.203,4.589.622,6.731.584,3.07,1.71,5.743,3.413,7.927,1.864,2.445,4.872,3.611,8.335,3.583,3.829-.002,7.794-1.451,11.922-4.138,4.06-2.631,8.039-5.838,11.934-9.614,1.55-1.49,3.044-3.032,4.499-4.603-.067,1.187-.113,2.384-.113,3.603v.343c.009,3.563.455,6.809,1.371,9.721.917,2.959,2.448,5.504,4.583,7.505,2.239,2.14,5.309,3.165,8.814,3.165h.062c2.759,0,5.549-.593,8.335-1.738,2.713-1.113,5.303-2.489,7.763-4.116,4.202-2.804,7.991-6.197,11.358-10.162,3.35-3.923,6.357-8.139,9.006-12.643,2.66-4.491,4.939-9.174,6.831-14.039,1.892-4.842,3.401-9.659,4.515-14.447.787-3.373,1.299-6.819,1.522-10.336.047-.835.077-1.651.077-2.456,0-2.649-.283-5.147-.864-7.494Zm-12.266,17.75c-.249,2.227-.562,4.155-.929,5.782-.717,3.189-1.701,6.494-2.959,9.916-1.245,3.406-2.74,6.706-4.476,9.903-1.722,3.189-3.696,6.199-5.91,9.035-2.196,2.81-4.602,5.227-7.229,7.266-1.371,1.08-2.767,1.974-4.197,2.697-1.332.671-2.591.978-3.852.978-1.421-.027-2.122-.387-2.75-1.131-.777-.969-1.316-2.131-1.608-3.598-.218-1.071-.329-2.237-.329-3.503,0-.536.022-1.093.062-1.671.139-2.007.366-3.826.674-5.453.584-3.111,1.777-7.086,3.61-11.858,1.815-4.738,4.061-9.344,6.724-13.813,2.657-4.427,5.632-8.21,8.92-11.363v.002c3.223-3.059,6.286-4.404,9.331-4.409,1.691.031,2.491.463,3.131,1.289.8,1.1,1.372,2.454,1.674,4.152.175.977.265,2.027.265,3.142,0,.841-.053,1.721-.151,2.637Z" style="fill:#c41230;"></path><path d="m48.663,200.831c-.077-1.812-.133-3.411-.172-4.795,1.08.19,1.947.288,2.601.288s1.523-.098,2.603-.288c4.195,4.659,8.347,9.245,12.453,13.754,4.1,4.503,8.311,9.092,12.626,13.751v-10.633c0-1.888-.012-3.743-.031-5.576-.018-1.83-.037-3.515-.059-5.056-.016-1.541-.052-2.869-.114-3.989-.056-1.116-.126-1.867-.203-2.251,1.08.19,1.947.288,2.602.288s1.519-.098,2.602-.288c-.197,3.506-.35,6.674-.464,9.503-.114,2.836-.212,5.5-.286,8.003-.08,2.507-.129,4.979-.148,7.425-.018,2.448-.027,5.057-.027,7.834v6.932c-.775-.076-1.559-.113-2.371-.113-.849,0-1.6.037-2.251.113-7.938-9.245-16.356-18.543-25.254-27.911-.04,1.119-.068,2.239-.086,3.353-.021,1.119-.027,2.254-.027,3.41v6.701c0,2.313.006,4.278.027,5.899.018,1.615.046,2.983.086,4.103.037,1.113.077,2.029.114,2.743.04.71.077,1.279.117,1.7-.462-.076-.923-.113-1.387-.113h-1.329c-.889,0-1.768.037-2.657.113.074-.304.175-1.405.289-3.293.114-1.889.24-4.189.375-6.905.132-2.716.249-5.662.348-8.843.092-3.174.145-6.231.145-9.159,0-2.657-.04-4.89-.12-6.701Z"></path><path d="m142.11,235.732c-.926-.076-1.802-.113-2.63-.113h-4.912c-.827,0-1.645.037-2.457.113-.615-1.885-1.248-3.811-1.907-5.775-.655-1.966-1.347-3.934-2.079-5.896-1.23-.037-2.467-.066-3.697-.086-1.237-.018-2.467-.027-3.703-.027-1,0-2.002.009-3.002.027-1.002.019-2.005.049-3.002.086-.775,1.963-1.488,3.931-2.141,5.896-.658,1.965-1.255,3.891-1.796,5.775-.458-.076-.914-.113-1.353-.113h-2.747c-.461,0-.963.037-1.501.113.458-.996,1.08-2.387,1.849-4.158.769-1.771,1.618-3.776,2.543-6.01.923-2.232,1.916-4.635,2.978-7.193,1.055-2.565,2.116-5.154,3.177-7.775,1.058-2.617,2.097-5.197,3.119-7.744,1.021-2.541,1.955-4.909,2.805-7.107.387.08.75.145,1.098.205.344.056.713.087,1.098.087.381,0,.75-.031,1.098-.087.348-.06.71-.125,1.098-.205,1.23,3.275,2.549,6.781,3.955,10.518,1.409,3.737,2.823,7.406,4.248,11.012,1.424,3.602,2.814,7.018,4.161,10.253,1.347,3.239,2.583,5.974,3.7,8.206Zm-20.456-28.834c-1.003,2.311-1.95,4.596-2.835,6.847-.883,2.255-1.753,4.559-2.596,6.908h10.574c-.849-2.35-1.685-4.653-2.516-6.908-.83-2.251-1.701-4.536-2.626-6.847Z"></path><path d="m165.801,200.831c-.074-1.812-.132-3.411-.172-4.795,1.077.19,1.947.288,2.602.288.652,0,1.519-.098,2.596-.288,4.201,4.659,8.353,9.245,12.456,13.754,4.103,4.503,8.31,9.092,12.628,13.751v-10.633c0-1.888-.012-3.743-.03-5.576-.019-1.83-.037-3.515-.056-5.056-.024-1.541-.058-2.869-.117-3.989-.061-1.116-.129-1.867-.203-2.251,1.076.19,1.944.288,2.602.288.649,0,1.519-.098,2.599-.288-.194,3.506-.351,6.674-.462,9.503-.12,2.836-.212,5.5-.292,8.003-.077,2.507-.123,4.979-.141,7.425-.025,2.448-.031,5.057-.031,7.834v6.932c-.769-.076-1.562-.113-2.372-.113-.846,0-1.599.037-2.251.113-7.938-9.245-16.353-18.543-25.254-27.911-.037,1.119-.068,2.239-.083,3.353-.021,1.119-.034,2.254-.034,3.41v6.701c0,2.313.013,4.278.034,5.899.015,1.615.046,2.983.083,4.103.037,1.113.08,2.029.117,2.743.037.71.074,1.279.117,1.7-.461-.076-.929-.113-1.384-.113h-1.332c-.889,0-1.775.037-2.661.113.077-.304.172-1.405.289-3.293.117-1.889.24-4.189.375-6.905.135-2.716.252-5.662.351-8.843.092-3.174.142-6.231.142-9.159,0-2.657-.04-4.89-.117-6.701Z"></path><path d="m259.245,235.732c-.923-.076-1.803-.113-2.627-.113h-4.914c-.831,0-1.648.037-2.454.113-.615-1.885-1.253-3.811-1.907-5.775-.658-1.966-1.348-3.934-2.083-5.896-1.232-.037-2.463-.066-3.699-.086-1.231-.018-2.467-.027-3.697-.027-1.002,0-2.005.009-3.002.027-1.002.019-2.005.049-3.008.086-.769,1.963-1.483,3.931-2.138,5.896-.654,1.965-1.251,3.891-1.79,5.775-.464-.076-.916-.113-1.362-.113h-2.74c-.464,0-.966.037-1.504.113.461-.996,1.076-2.387,1.845-4.158.775-1.771,1.624-3.776,2.546-6.01.923-2.232,1.913-4.635,2.977-7.193,1.058-2.565,2.116-5.154,3.181-7.775,1.058-2.617,2.094-5.197,3.118-7.744,1.021-2.541,1.95-4.909,2.802-7.107.385.08.748.145,1.099.205.347.056.714.087,1.098.087s.75-.031,1.099-.087c.35-.06.713-.125,1.098-.205,1.233,3.275,2.55,6.781,3.958,10.518,1.409,3.737,2.82,7.406,4.247,11.012,1.425,3.602,2.809,7.018,4.162,10.253,1.347,3.239,2.577,5.974,3.696,8.206Zm-20.456-28.834c-1,2.311-1.943,4.596-2.832,6.847-.886,2.255-1.754,4.559-2.603,6.908h10.577c-.849-2.35-1.688-4.653-2.513-6.908-.827-2.251-1.704-4.536-2.63-6.847Z"></path><path d="m282.651,203.516c-.077-2.481-.197-4.976-.351-7.479.658.073,1.371.145,2.141.199.768.059,1.636.089,2.601.089.96,0,1.827-.03,2.599-.089.772-.055,1.482-.126,2.138-.199-.153,2.503-.271,4.998-.345,7.479-.08,2.485-.116,5.33-.116,8.525v7.861c0,3.199.036,6.037.116,8.522.074,2.485.191,4.921.345,7.308-.655-.076-1.365-.113-2.138-.113h-5.2c-.77,0-1.482.037-2.141.113.153-2.387.273-4.822.351-7.308.076-2.485.113-5.323.113-8.522v-7.861c0-3.195-.037-6.04-.113-8.525Z"></path><path d="m322.352,222.791c-.308,4.314-.615,8.63-.926,12.941-.462-.076-.926-.113-1.391-.113h-2.685c-.442,0-.892.037-1.359.113,1.237-6.625,2.335-13.209,3.298-19.764.962-6.548,1.846-13.191,2.657-19.933.424.073.817.145,1.181.199.369.059.763.089,1.187.089.351,0,.714-.03,1.098-.089.385-.055.791-.126,1.215-.199,1.04,2.312,2.129,4.659,3.267,7.049,1.132,2.39,2.27,4.767,3.408,7.136,1.138,2.371,2.27,4.693,3.407,6.969,1.138,2.27,2.228,4.424,3.267,6.469,2.312-4.315,4.613-8.83,6.908-13.552,2.288-4.721,4.477-9.411,6.557-14.07.963.19,1.79.288,2.485.288.652,0,1.464-.098,2.43-.288.382,3.31.793,6.874,1.239,10.687.439,3.816.877,7.545,1.301,11.18.425,3.642.847,7.044,1.273,10.202.425,3.162.809,5.702,1.153,7.627-.771-.076-1.553-.113-2.34-.113h-4.712c-.806,0-1.615.037-2.427.113-.194-3.964-.508-8.261-.953-12.883-.44-4.626-.895-9.209-1.356-13.755h-.117c-2.196,4.546-4.35,9.012-6.471,13.403-2.123,4.395-4.221,8.806-6.3,13.234-.191-.036-.375-.063-.547-.086-.176-.021-.356-.027-.548-.027-.197,0-.381.006-.554.027-.172.022-.353.05-.547.086-2.079-4.312-4.152-8.627-6.213-12.941-2.062-4.312-4.189-8.685-6.386-13.118h-.113c-.618,4.433-1.082,8.806-1.387,13.118Z"></path><path d="m386.293,207.939c1.059-2.503,2.547-4.699,4.478-6.588,1.926-1.889,4.254-3.371,6.988-4.447,2.737-1.079,5.782-1.621,9.131-1.621,3.085,0,5.955.428,8.612,1.27,2.66.849,4.97,2.122,6.935,3.816,1.969,1.695,3.519,3.842,4.65,6.444,1.138,2.601,1.704,5.634,1.704,9.097,0,2.894-.548,5.592-1.643,8.096-1.101,2.503-2.621,4.687-4.57,6.557-1.944,1.87-4.264,3.322-6.96,4.361-2.697,1.04-5.669,1.562-8.898,1.562-3.045,0-5.905-.375-8.584-1.129-2.679-.75-5.01-1.965-6.991-3.639-1.986-1.676-3.552-3.813-4.712-6.415-1.153-2.6-1.734-5.709-1.734-9.335,0-2.848.532-5.523,1.593-8.03Zm32.098.031c-.615-1.984-1.47-3.67-2.571-5.059-1.095-1.385-2.423-2.455-3.985-3.208-1.559-.75-3.267-1.123-5.112-1.123-1.969,0-3.73.471-5.29,1.415-1.562.943-2.879,2.224-3.961,3.842-1.076,1.617-1.895,3.518-2.448,5.692-.56,2.178-.843,4.497-.843,6.964,0,3.084.329,5.68.984,7.799.651,2.12,1.537,3.826,2.657,5.115,1.116,1.288,2.404,2.226,3.872,2.805,1.461.575,3.005.868,4.623.868,1.73,0,3.389-.37,4.967-1.104,1.581-.728,2.962-1.842,4.134-3.35,1.172-1.501,2.119-3.41,2.833-5.721.713-2.312,1.066-5.044,1.066-8.206,0-2.503-.307-4.745-.926-6.729Z"></path><path d="m309.135,70.859c-1.617,6.145-7.067,10.039-12.17,8.695-5.112-1.346-7.938-7.415-6.32-13.56,1.617-6.145,7.067-10.036,12.173-8.691,5.109,1.344,7.938,7.415,6.317,13.557Z" style="fill:#c72127;"></path></svg>