<svg xmlns="http://www.w3.org/2000/svg" xmlns:xlink="http://www.w3.org/1999/xlink" version="1.1" id="Layer_1" x="0px" y="0px" viewBox="0 0 198 64" style="enable-background:new 0 0 198 64;" xml:space="preserve">
<style type="text/css">
	.st0{fill:#FFFFFF;}
</style>
<g>
	<path class="st0" d="M48.9,58.9c0-2.7,2.1-4.7,4.8-4.7c1.7,0,2.9,0.6,3.7,1.9L56,57c-0.4-0.7-1.2-1.2-2.3-1.2c-1.7,0-2.8,1.3-2.8,3   c0,1.7,1.1,3.1,2.8,3.1c1.2,0,1.9-0.6,2.4-1.4l1.5,1c-0.8,1.3-2.1,2-3.9,2C51,63.6,48.9,61.6,48.9,58.9z"/>
	<path class="st0" d="M70.8,54.1H71l4.2,9.4h-2l-0.4-1.1H69l-0.4,1.1h-1.8L70.8,54.1z M72.1,60.8l-0.7-1.6c-0.3-0.7-0.6-1.7-0.6-1.7   s-0.3,1-0.5,1.7l-0.7,1.6H72.1z"/>
	<path class="st0" d="M84.5,61.7l1.6-0.9c0.4,0.7,0.9,1.2,1.9,1.2c0.8,0,1.3-0.4,1.3-0.9c0-0.7-0.5-0.9-1.4-1.3l-0.5-0.2   C86,58.9,85,58.2,85,56.6c0-1.4,1.1-2.5,2.8-2.5c1.2,0,2.1,0.4,2.7,1.5l-1.5,1c-0.3-0.6-0.7-0.8-1.2-0.8c-0.6,0-0.9,0.4-0.9,0.8   c0,0.6,0.4,0.8,1.2,1.2l0.5,0.2c1.6,0.7,2.5,1.4,2.5,3c0,1.7-1.4,2.7-3.2,2.7C86.2,63.6,85,62.8,84.5,61.7z"/>
	<path class="st0" d="M101.5,54.2h1.9v9.3h-1.9V54.2z"/>
	<path class="st0" d="M117,59.2c-0.5-0.4-1.1-1.3-1.1-1.3s0.1,1,0.1,1.7v3.9h-1.8v-9.4h0.2l4.7,4.4c0.5,0.4,1.1,1.3,1.1,1.3   s-0.1-1.1-0.1-1.7v-3.9h1.8v9.4h-0.2L117,59.2z"/>
	<path class="st0" d="M132.3,58.9c0-2.7,2.1-4.8,4.8-4.8s4.8,2,4.8,4.8s-2.1,4.8-4.8,4.8S132.3,61.6,132.3,58.9z M140,58.9   c0-1.7-1.1-3.1-2.8-3.1c-1.7,0-2.8,1.3-2.8,3.1c0,1.7,1.1,3.1,2.8,3.1C138.8,61.9,140,60.6,140,58.9z"/>
</g>
<g>
	<path class="st0" d="M63.2,28.1H36.7l0,3.6c2.7,1.8,6.7,2.8,11.8,2.8c2.2,0,4.4-0.2,6.5-0.7c2.7-0.6,4.7-1.4,5.8-2.5l1.9,1.9   c-0.4,0.4-1.1,0.9-1.9,1.4c-3.2,1.7-7.3,2.6-12.3,2.6c-2.8,0-5.4-0.3-7.8-0.9c-3-0.7-5.3-1.9-6.9-3.5v-12c1.6-1.6,3.9-2.7,6.9-3.5   c2.4-0.6,5-0.9,7.8-0.9c2.8,0,5.4,0.3,7.8,0.9c3,0.7,5.3,1.9,6.9,3.5V28.1z M60.4,25.4v-3.3c-2.7-1.9-6.6-2.8-11.8-2.8   c-5.2,0-9.1,1-11.9,2.9l0.1,3.2H60.4z"/>
	<path class="st0" d="M96.9,40c-1.5,1.6-3.8,2.8-6.9,3.5c-2.4,0.6-5,0.9-7.8,0.9c-2.5,0-5-0.3-7.5-0.9c-3.2-0.7-5.4-1.7-6.7-3.1   l1.9-1.9c1.3,1.1,3.3,2,5.9,2.5c2,0.4,4.2,0.6,6.4,0.6c5.2,0,9.1-0.9,11.8-2.8l0-4.1c-3.1,1.6-7,2.3-11.8,2.3   c-2.8,0-5.4-0.3-7.8-0.9c-3-0.7-5.3-1.9-6.9-3.5V21c1.5-1.6,3.8-2.7,6.9-3.5c2.4-0.6,5-0.9,7.8-0.9c2.8,0,5.4,0.3,7.8,0.9   c3,0.8,5.3,1.9,6.8,3.5V40z M94.1,22.2c-2.8-1.9-6.7-2.9-11.8-2.9c-5.2,0-9.1,0.9-11.9,2.8l-0.1,9.4c2.7,1.9,6.7,2.8,11.9,2.8   c2.1,0,4.1-0.2,6.2-0.6c2.5-0.5,4.4-1.2,5.7-2.2L94.1,22.2z"/>
	<path class="st0" d="M130.4,28.1h-26.5l0,3.6c2.7,1.8,6.7,2.8,11.8,2.8c2.2,0,4.3-0.2,6.5-0.7c2.7-0.6,4.7-1.4,5.8-2.5l1.9,1.9   c-0.4,0.4-1.1,0.9-1.9,1.4c-3.2,1.7-7.3,2.6-12.3,2.6c-2.8,0-5.4-0.3-7.8-0.9c-3-0.7-5.3-1.9-6.9-3.5v-12c1.6-1.6,3.9-2.7,6.9-3.5   c2.4-0.6,5-0.9,7.8-0.9c2.8,0,5.4,0.3,7.8,0.9c3,0.7,5.3,1.9,6.9,3.5V28.1z M127.5,25.4v-3.3c-2.7-1.9-6.6-2.8-11.8-2.8   c-5.2,0-9.1,1-11.9,2.9l0.1,3.2H127.5z"/>
	<path class="st0" d="M163.6,36.6h-2.7V22.2c-2.8-1.9-6.8-2.9-11.9-2.9c-5.2,0-9.1,0.9-11.7,2.8l-0.1,14.4h-2.7V21   c1.5-1.6,3.7-2.8,6.8-3.5c2.4-0.6,4.9-0.9,7.7-0.9c2.8,0,5.4,0.3,7.8,0.9c3,0.8,5.3,1.9,6.9,3.5V36.6z"/>
	<path class="st0" d="M196.5,33.1c-0.4,0.4-1,0.8-1.8,1.2c-3.2,1.8-7.3,2.7-12.5,2.7c-2.8,0-5.4-0.3-7.8-0.9c-3-0.7-5.3-1.9-6.9-3.5   V9.8h2.7v7.4H190v2.7h-19.7v11.6c2.7,1.8,6.7,2.8,11.9,2.8c2.2,0,4.3-0.2,6.5-0.7c2.7-0.6,4.7-1.4,5.8-2.5L196.5,33.1z"/>
	<path class="st0" d="M29.4,25.7l0-4.7c-1.6-1.6-3.9-2.7-6.9-3.5c-2.4-0.6-5-0.9-7.8-0.9c-2.8,0-5.4,0.3-7.8,0.9   c-3,0.7-5.3,1.9-6.9,3.5v15.5h2.7v-6.5h12c0,0,0.3,0,0.5,0c4.9,0.1,8.7,1,11.3,2.8v3.6h2.7v-4.8c-1.2-1.3-3.4-2.2-5.6-3   C25.9,28,28.2,27,29.4,25.7z M2.8,22.3c2.8-1.9,6.7-2.9,11.9-2.9s9.1,0.9,11.8,2.8l0,2.4c-2.6,1.8-6.3,2.7-11.2,2.7   c-0.1,0-0.5,0-0.6,0v0H2.8V22.3z"/>
	<path class="st0" d="M13.9,10.9c-0.1,0.1-0.2,0.2-0.5,0.4c-1.5,1-3.6,1.6-6.3,1.6c-3.3,0-5.7-0.7-7.1-2.2V5.4   C0.2,5.2,0.4,5,0.8,4.7c1.5-1,3.6-1.6,6.3-1.6c1.2,0,2.3,0.1,3.5,0.4c1.6,0.3,2.6,0.9,3.3,1.5l-1.3,1.3c0,0-0.1-0.1-0.2-0.1   c-1.2-0.8-3-1.2-5.3-1.2c-2.3,0-4,0.4-5.2,1.2v3.6C3.1,10.6,4.9,11,7.1,11c0.9,0,1.9-0.1,2.8-0.3c1.2-0.2,2.1-0.6,2.7-1.1   L13.9,10.9z"/>
	<path class="st0" d="M18.2,12.5h-1.9V0.1h1.9V12.5z"/>
	<path class="st0" d="M35,3.6v7.1c-0.1,0.2-0.4,0.4-0.7,0.7c-1.5,1-3.6,1.6-6.3,1.6c-3.3,0-5.7-0.7-7.1-2.2V3.6h1.9v6.2   c1.2,0.8,2.9,1.2,5.2,1.2c2.2,0,4-0.4,5.1-1.2V3.6H35z"/>
	<path class="st0" d="M51.6,10.8c-0.1,0.1-0.4,0.4-0.7,0.7c-1.5,1-3.6,1.6-6.3,1.6c-3.3,0-5.7-0.7-7.1-2.2V0.1h1.9v4   c1.4-0.6,3.1-0.9,5.2-0.9c3.3,0,5.7,0.7,7.1,2.2V10.8z M49.7,9.9V6.2c-1.2-0.8-2.9-1.2-5.2-1.2c-0.9,0-1.7,0.1-2.6,0.2   c-1.1,0.2-2,0.5-2.6,0.9v3.7c1.2,0.8,2.9,1.2,5.2,1.2C46.8,11.1,48.5,10.7,49.7,9.9z"/>
</g>
</svg>