<svg xmlns="http://www.w3.org/2000/svg" width="101" height="46" viewBox="0 0 102 32" fill="none">
  <path d="M53.5974 12.0667H58.3256V15.7782C56.8903 16.313 55.4246 16.5796 53.9299 16.5796C52.2046 16.5796 50.8678 16.2111 49.9177 15.4743C48.9677 14.7374 48.4927 13.7238 48.4927 12.4317C48.4927 11.1397 48.9321 10.1278 49.8092 9.3892C50.6862 8.65234 51.9162 8.28391 53.4956 8.28391C54.7324 8.28391 55.7554 8.51651 56.5629 8.98342C57.3704 9.45032 57.8828 10.0836 58.0965 10.885L56.059 11.0225C55.8826 10.7016 55.5671 10.4487 55.109 10.2602C54.6509 10.0734 54.1132 9.98005 53.4939 9.98005C52.5626 9.98005 51.8433 10.2042 51.336 10.6507C50.8287 11.0972 50.5743 11.6915 50.5743 12.4317C50.5743 13.172 50.8627 13.7764 51.4378 14.2196C52.0146 14.6627 52.8594 14.8834 53.974 14.8834C54.7595 14.8834 55.5806 14.7917 56.4357 14.6084V13.4504H53.5957V12.0633L53.5974 12.0667Z" fill="#00FF83"/>
  <path d="M59.9504 16.4438V8.42322H62.0337V14.7358H67.3234V16.4421H59.9504V16.4438Z" fill="#00FF83"/>
  <path d="M68.708 16.4438V8.42322H70.7913V16.4438H68.708Z" fill="#00FF83"/>
  <path d="M72.0857 10.1313V8.42496H81.0262V10.1313H77.6027V16.4439H75.5194V10.1313H72.0857Z" fill="#00FF83"/>
  <path d="M89.4188 13.5455L91.4342 13.6491C91.2815 14.588 90.8099 15.313 90.021 15.8207C89.2305 16.3283 88.1532 16.583 86.7875 16.583C85.147 16.583 83.878 16.2146 82.9806 15.4777C82.0831 14.7408 81.6353 13.7272 81.6353 12.4352C81.6353 11.1431 82.0746 10.1312 82.9517 9.39262C83.8288 8.65576 85.0588 8.28732 86.6382 8.28732C87.9275 8.28732 88.9811 8.53691 89.7971 9.03777C90.6131 9.53863 91.1102 10.2161 91.2849 11.0718L89.2814 11.1974C89.1507 10.8307 88.847 10.537 88.3652 10.3145C87.8851 10.0938 87.3083 9.98177 86.6365 9.98177C85.7051 9.98177 84.9858 10.2059 84.4786 10.6524C83.9713 11.099 83.7169 11.6932 83.7169 12.4335C83.7169 13.1737 83.9798 13.768 84.5074 14.2145C85.0333 14.661 85.7934 14.8851 86.7858 14.8851C87.5102 14.8851 88.1006 14.7612 88.5552 14.5133C89.0099 14.2654 89.2966 13.9428 89.4188 13.5455Z" fill="#00FF83"/>
  <path d="M99.9166 8.42322H102V16.4438H99.9166V13.2128H94.9136V16.4438H92.8303V8.42322H94.9136V11.5167H99.9166V8.42322Z" fill="#00FF83"/>
  <path d="M60.7633 21.714C60.8244 22.096 61.0721 22.4186 61.5081 22.6818C61.9441 22.945 62.5735 23.0774 63.3963 23.0774C64.0138 23.0774 64.5533 23.0129 65.0097 22.8821C65.4677 22.7531 65.6967 22.5544 65.6967 22.2862C65.6967 21.9585 65.3116 21.7089 64.5397 21.5408L61.5861 20.8651C59.9914 20.4984 59.1941 19.7734 59.1941 18.6885C59.1941 17.8939 59.5673 17.2979 60.3155 16.9006C61.0636 16.5033 62.0018 16.3047 63.1316 16.3047C64.3378 16.3047 65.332 16.5322 66.1141 16.9855C66.8962 17.4405 67.3338 18.084 67.4255 18.916L65.4558 18.9958C65.388 18.6749 65.1488 18.3998 64.7399 18.1706C64.3311 17.9414 63.7678 17.8277 63.0519 17.8277C62.5328 17.8277 62.107 17.8922 61.7761 18.0229C61.4453 18.1536 61.2774 18.3319 61.2774 18.5611C61.2774 18.882 61.6472 19.1265 62.3886 19.2946L65.125 19.8905C66.0174 20.0892 66.6841 20.3557 67.1235 20.6919C67.5629 21.0281 67.7817 21.5018 67.7817 22.113C67.7817 22.945 67.3898 23.5681 66.6077 23.9806C65.8257 24.3932 64.7552 24.5986 63.3963 24.5986C60.4885 24.5986 58.9549 23.6546 58.7937 21.7683L60.7633 21.7106V21.714Z" fill="white"/>
  <path d="M74.6848 16.4439C75.623 16.4439 76.3949 16.6646 76.9971 17.1078C77.5994 17.5509 77.9014 18.2114 77.9014 19.0891C77.9014 19.9669 77.6113 20.6104 77.0311 21.0196C76.4509 21.4288 75.6688 21.6325 74.6848 21.6325H71.2969V24.4628H69.2136V16.4422H74.6865L74.6848 16.4439ZM74.5813 20.0297C74.963 20.0297 75.265 19.9499 75.4856 19.7887C75.7061 19.6291 75.8181 19.3947 75.8181 19.0891C75.8181 18.7835 75.7078 18.5407 75.4856 18.3845C75.2633 18.2283 74.963 18.1502 74.5813 18.1502H71.2952V20.0297H74.5813Z" fill="white"/>
  <path d="M79.343 24.4644V16.4438H81.4263V24.4644H79.343Z" fill="white"/>
  <path d="M90.8368 16.4438H92.8285V24.4644H89.2913L85.4335 17.5779V24.4644H83.4299V16.4438H86.979L90.8368 23.3302V16.4438Z" fill="white"/>
  <path d="M4.10382 26.3626C4.11909 26.4034 4.06649 26.4339 4.03935 26.4C0.739671 22.4389 0 19.4524 0 16.6221C0 16.617 0 16.6119 0 16.6051C0 16.6 0 16.5949 0 16.5898C0 13.7154 0.94834 11.0685 2.54474 8.95294C2.55153 8.94445 2.5634 8.94954 2.5634 8.95973V16.9447L2.59224 16.9702C2.68216 19.5322 3.00619 23.5782 4.10382 26.3626ZM40.061 14.5134H37.6672V24.2216C37.6672 24.2318 37.6808 24.2369 37.6859 24.2284C39.2806 22.1129 40.2306 19.4643 40.2306 16.5915C40.2306 15.8835 40.1713 15.1908 40.061 14.5151V14.5134ZM29.3341 14.5134H19.4588C18.4426 14.5134 17.6198 15.3368 17.6198 16.3538V19.9125C17.6198 19.9125 17.6249 19.9227 17.63 19.9227H25.9513C25.9513 19.9227 25.9648 19.9312 25.9597 19.938C25.6187 20.5611 25.1844 21.1384 24.6636 21.6494C23.281 23.0043 21.4488 23.7462 19.5114 23.731C15.4907 23.7021 12.1808 20.2708 12.286 16.2486C12.3895 12.3181 15.6162 9.15159 19.5674 9.15159C21.593 9.15159 23.4896 9.98862 24.8468 11.4182L24.8536 11.4216H33.0324L35.8164 11.4182L35.8096 11.3961C35.0428 8.84767 33.5787 6.31279 31.073 3.66246C31.0424 3.6302 30.9898 3.66246 31.0051 3.70491C32.1706 6.66255 32.3572 8.56753 32.381 9.28741V9.57944C32.381 9.59133 32.3657 9.59303 32.3606 9.58284C31.7244 8.121 30.8914 6.80517 29.9041 5.6812C28.384 3.77112 26.4534 1.95443 24.5092 0.888184C24.455 0.859321 24.399 0.92214 24.4346 0.971378C25.975 3.19046 26.2923 5.41803 26.3245 5.6778C26.3211 5.6812 26.316 5.68459 26.3126 5.6812C24.3277 4.43498 22.0018 3.73886 19.5674 3.73886C17.5383 3.73886 15.6196 4.21935 13.9163 5.06997C13.9095 5.07337 13.9011 5.06997 13.9011 5.06148V2.85089C13.9011 2.85089 13.8926 2.83731 13.8858 2.8407C11.297 4.19558 9.16955 6.58784 7.86834 9.58114C7.86325 9.59133 7.84798 9.58793 7.84798 9.57775V5.39086C7.84798 5.38068 7.8361 5.37728 7.82932 5.38407C5.30154 8.09892 3.71023 12.0464 3.71023 16.4404C3.71023 16.4897 3.71362 16.5372 3.71362 16.5864H3.71193C3.71193 16.7715 3.72041 16.9566 3.7272 17.1399C3.7272 17.1824 3.7272 17.2265 3.73059 17.269C3.74246 17.5304 3.75773 17.7885 3.77979 18.0466L3.7713 18.0381C4.0631 21.7615 5.46949 25.3337 9.02365 29.1437C9.08302 29.2065 9.18482 29.1437 9.15428 29.0622C8.05156 26.2098 7.87343 24.3677 7.84967 23.6614V23.3354C7.84967 23.3235 7.86494 23.3218 7.87003 23.332C8.44684 24.6597 9.18821 25.8686 10.0585 26.9212C11.5837 28.9145 13.577 30.8466 15.5959 31.9876C15.6807 32.0351 15.7706 31.9366 15.7163 31.8551C14.6899 30.3322 14.2302 28.8228 14.0351 27.9637C14.0283 27.9331 14.0588 27.9094 14.0877 27.9229C14.8596 28.2948 15.6756 28.5902 16.5255 28.8007L16.5171 28.7668C17.4959 29.0096 18.5172 29.1403 19.5707 29.1403C21.9916 29.1403 24.3124 28.4629 26.316 27.2014C26.3228 27.1963 26.3313 27.2014 26.3313 27.2098V30.0283C26.3313 30.0283 26.3398 30.0418 26.3465 30.0385C28.9354 28.6836 31.0628 26.2913 32.364 23.298C32.3691 23.2878 32.3844 23.2912 32.3844 23.3014V27.4883C32.3844 27.4985 32.3962 27.5019 32.403 27.4951C34.9308 24.7802 36.5221 20.8327 36.5221 16.4387C36.5221 15.7851 36.4865 15.1399 36.4169 14.5083H29.3375L29.3341 14.5134ZM39.2603 11.4114H39.267C38.6546 9.94108 37.6859 8.34681 36.1913 6.55389C36.1642 6.51993 36.1099 6.55219 36.1268 6.59294C36.6782 7.99366 37.0344 9.71527 37.2635 11.4046V11.4216H39.2653L39.2586 11.4114H39.2603Z" fill="white"/>
</svg>