<svg xmlns="http://www.w3.org/2000/svg" xmlns:xlink="http://www.w3.org/1999/xlink" version="1.1" id="Layer_1" x="0px" y="0px" viewBox="0 0 441.4 142.94" style="enable-background:new 0 0 441.4 142.94;" xml:space="preserve">
<style type="text/css">
	.st0{clip-path:url(#SVGID_00000048481615369715575090000017058711654038902424_);}
	.st1{clip-path:url(#SVGID_00000050625574354336177340000013301350804930344321_);fill:#231F20;}
	.st2{clip-path:url(#SVGID_00000175312277240119447250000003921475817920127622_);}
	.st3{clip-path:url(#SVGID_00000146501566016644173180000000964300342659160217_);fill:#231F20;}
	.st4{clip-path:url(#SVGID_00000106830088342862516760000010329567562733162920_);}
	.st5{clip-path:url(#SVGID_00000019638326415101603460000008722631164638776457_);fill:#231F20;}
	.st6{clip-path:url(#SVGID_00000071543144507986920110000011566922855397042304_);}
	.st7{clip-path:url(#SVGID_00000016753808700264630740000016438673256537881748_);}
	.st8{clip-path:url(#SVGID_00000043448314012332101710000018227390696724840345_);fill:#231F20;}
	.st9{clip-path:url(#SVGID_00000043448314012332101710000018227390696724840345_);}
	.st10{clip-path:url(#SVGID_00000176747825441205950420000004007553004217126030_);fill:#231F20;}
</style>
<g id="CRC-pos_00000147213857596626506820000000455742973621767592_">
	<g id="Layer_1_00000031169175016771115660000015602637526496074171_">
		<g>
			<defs>
				<rect id="SVGID_00000044162966397722622480000005261830963341295273_" x="12.73" y="4.12" width="415.95" height="134.7"/>
			</defs>
			<clipPath id="SVGID_00000179610987793350259410000005312777478706539704_">
				<use xlink:href="#SVGID_00000044162966397722622480000005261830963341295273_" style="overflow:visible;"/>
			</clipPath>
			<g style="clip-path:url(#SVGID_00000179610987793350259410000005312777478706539704_);">
				<defs>
					<rect id="SVGID_00000012448047512741358070000002954033029370501023_" x="12.73" y="4.12" width="415.95" height="134.7"/>
				</defs>
				<clipPath id="SVGID_00000162340049962026837610000005293624490873898161_">
					<use xlink:href="#SVGID_00000012448047512741358070000002954033029370501023_" style="overflow:visible;"/>
				</clipPath>
				<path style="clip-path:url(#SVGID_00000162340049962026837610000005293624490873898161_);fill:#231F20;" d="M44.57,62.46      c-0.04,0-0.07,0-0.09,0C44.5,62.46,44.53,62.46,44.57,62.46"/>
				<path style="clip-path:url(#SVGID_00000162340049962026837610000005293624490873898161_);fill:#231F20;" d="M45.34,62.45      c-0.01,0-0.02,0-0.04,0C45.31,62.45,45.32,62.45,45.34,62.45"/>
				<path style="clip-path:url(#SVGID_00000162340049962026837610000005293624490873898161_);fill:#231F20;" d="M45.55,62.45      c-0.03,0-0.06,0-0.09,0C45.49,62.45,45.52,62.45,45.55,62.45"/>
				<path style="clip-path:url(#SVGID_00000162340049962026837610000005293624490873898161_);fill:#231F20;" d="M45.59,68.25      C45.59,68.25,45.59,68.25,45.59,68.25c-0.01,0-0.02,0-0.02,0c-0.09,0-0.18,0-0.27,0c0.09,0,0.19,0,0.27,0H45.59      c0.06,0,0.11,0,0.16,0C45.7,68.25,45.65,68.25,45.59,68.25"/>
				<path style="clip-path:url(#SVGID_00000162340049962026837610000005293624490873898161_);fill:#231F20;" d="M257.33,83.34      c1.32,0,2.61-0.03,3.86-0.09C259.94,83.31,258.65,83.34,257.33,83.34"/>
				<path style="clip-path:url(#SVGID_00000162340049962026837610000005293624490873898161_);fill:#231F20;" d="M253.36,45.62      c1.28-0.06,2.6-0.09,3.97-0.09C255.97,45.53,254.65,45.56,253.36,45.62"/>
				<path style="clip-path:url(#SVGID_00000162340049962026837610000005293624490873898161_);fill:#231F20;" d="M275.46,42.13      c-0.57-0.16-1.14-0.32-1.74-0.47c-1.25-0.32-2.53-0.6-3.84-0.83c1.31,0.24,2.59,0.52,3.84,0.83      C274.32,41.81,274.89,41.96,275.46,42.13"/>
				<path style="clip-path:url(#SVGID_00000162340049962026837610000005293624490873898161_);fill:#231F20;" d="M238.44,48.37      c-0.93,0.34-1.82,0.72-2.67,1.13C236.62,49.08,237.51,48.71,238.44,48.37"/>
				<path style="clip-path:url(#SVGID_00000162340049962026837610000005293624490873898161_);fill:#231F20;" d="M205.61,42.42      c-0.74-0.23-1.51-0.44-2.31-0.65c-0.63-0.15-1.26-0.3-1.9-0.43c0.64,0.14,1.27,0.28,1.9,0.43      C204.1,41.98,204.87,42.19,205.61,42.42"/>
				<path style="clip-path:url(#SVGID_00000162340049962026837610000005293624490873898161_);fill:#231F20;" d="M257.33,39.76      L257.33,39.76c0.74,0,1.47,0.01,2.2,0.03C258.8,39.77,258.07,39.76,257.33,39.76"/>
				<path style="clip-path:url(#SVGID_00000162340049962026837610000005293624490873898161_);fill:#231F20;" d="M343.82,40.81      c-5.07-1.25-10.68-1.88-16.7-1.88c-5.94,0-11.5,0.63-16.52,1.88c-6.59,1.62-11.55,4.2-14.75,7.68l-0.26,0.29v0.39v32.79v0.99      h0.99h5.77h0.98l0.01-0.99l0.23-29.91c5.27-3.56,13.19-5.36,23.55-5.36c10.37,0,18.48,1.86,24.12,5.54v29.72v0.99h0.99H358H359      v-0.99V49.16v-0.4l-0.28-0.29C355.37,45.04,350.35,42.47,343.82,40.81"/>
				<path style="clip-path:url(#SVGID_00000162340049962026837610000005293624490873898161_);fill:#231F20;" d="M427.98,73.87      l-4.04-4.1l-0.67-0.68l-0.7,0.64c-2.36,2.14-6.34,3.83-11.84,5.02c-4.45,0.94-8.98,1.42-13.47,1.42      c-10.51,0-18.6-1.81-24.06-5.37V47.85h40.46h0.99v-0.99v-5.77v-0.99h-0.99H373.2V25.44v-0.99h-0.99h-5.77h-0.99v0.99V73.7v0.41      l0.29,0.29c3.42,3.42,8.43,5.98,14.89,7.59c5.05,1.28,10.65,1.93,16.64,1.93c10.98,0,20-1.99,26.82-5.9      c1.74-0.97,3.02-1.88,3.9-2.76l0.7-0.7L427.98,73.87z"/>
				<polygon style="clip-path:url(#SVGID_00000162340049962026837610000005293624490873898161_);fill:#231F20;" points="54.6,32.26       55.59,32.26 55.59,31.26 55.59,5.11 55.59,4.12 54.6,4.12 50.59,4.12 49.6,4.12 49.6,5.11 49.6,31.26 49.6,32.26 50.59,32.26           "/>
				<path style="clip-path:url(#SVGID_00000162340049962026837610000005293624490873898161_);fill:#231F20;" d="M77.48,32.98      c5.91,0,10.56-1.16,13.83-3.46l0.04-0.03l0.04-0.03c0.77-0.66,1.3-1.15,1.62-1.51l0.25-0.28v-0.38V12.43v-0.99h-0.99h-4h-0.99      v0.99V25c-2.27,1.32-5.56,1.99-9.79,1.99c-4.24,0-7.58-0.68-9.95-2.02V12.43v-0.99h-0.99h-4h-0.99v0.99v14.89v0.4L61.82,28      C64.99,31.3,70.25,32.98,77.48,32.98"/>
				<path style="clip-path:url(#SVGID_00000162340049962026837610000005293624490873898161_);fill:#231F20;" d="M28.64,32.98      c5.9,0,10.59-1.16,13.93-3.46c0.81-0.6,1.02-0.79,1.13-0.89l0.7-0.7l-0.7-0.7l-2.83-2.83l-0.66-0.66l-0.7,0.62      c-1,0.89-2.73,1.58-5.14,2.06c-1.89,0.38-3.81,0.57-5.73,0.57c-4.25,0-7.59-0.69-9.92-2.04v-6.39c2.34-1.34,5.67-2.02,9.92-2.02      c4.68,0,8.24,0.81,10.56,2.41c0.14,0.1,0.24,0.17,0.29,0.21l0.68,0.67l0.7-0.7l2.83-2.83l0.68-0.68l-0.67-0.7      c-1.49-1.57-3.91-2.71-7.42-3.49c-2.57-0.58-5.15-0.88-7.66-0.88c-5.89,0-10.57,1.16-13.93,3.46l-0.04,0.03l-0.04,0.03      c-0.76,0.65-1.28,1.12-1.61,1.44l-0.29,0.29v0.41v11.07v0.39L13,27.97C16.13,31.29,21.39,32.98,28.64,32.98"/>
				<path style="clip-path:url(#SVGID_00000162340049962026837610000005293624490873898161_);fill:#231F20;" d="M116.65,128.79      c0-5.78,4.45-10,10.06-10c3.53,0,6.06,1.26,7.82,3.99l-3.08,2.18c-0.92-1.49-2.5-2.56-4.74-2.56c-3.54,0-5.92,2.73-5.92,6.38      c0,3.65,2.39,6.44,5.92,6.44c2.53,0,3.94-1.21,5.03-2.87l3.13,2.15c-1.7,2.64-4.4,4.31-8.16,4.31      C121.11,138.82,116.65,134.56,116.65,128.79"/>
				<path style="clip-path:url(#SVGID_00000162340049962026837610000005293624490873898161_);fill:#231F20;" d="M191.49,134.71      l3.28-1.9c0.86,1.41,1.98,2.44,3.97,2.44c1.67,0,2.73-0.83,2.73-1.98c0-1.38-1.09-1.87-2.93-2.67l-1.01-0.43      c-2.9-1.24-4.83-2.79-4.83-6.06c0-3.02,2.3-5.32,5.89-5.32c2.56,0,4.4,0.89,5.72,3.22l-3.13,2.01      c-0.69-1.24-1.44-1.72-2.59-1.72c-1.18,0-1.93,0.75-1.93,1.72c0,1.21,0.75,1.69,2.47,2.44l1.01,0.43      c3.42,1.46,5.34,2.96,5.34,6.32c0,3.62-2.84,5.6-6.67,5.6C195.08,138.82,192.66,137.04,191.49,134.71"/>
				
					<rect x="227.32" y="119.02" style="clip-path:url(#SVGID_00000162340049962026837610000005293624490873898161_);fill:#231F20;" width="4.02" height="19.54"/>
				<path style="clip-path:url(#SVGID_00000162340049962026837610000005293624490873898161_);fill:#231F20;" d="M259.91,129.48      c-0.98-0.92-2.33-2.67-2.33-2.67s0.29,2.16,0.29,3.56v8.19h-3.77v-19.71h0.4l9.86,9.25c0.95,0.89,2.3,2.67,2.3,2.67      s-0.26-2.21-0.26-3.56v-8.19h3.76v19.71h-0.4L259.91,129.48z"/>
				<path style="clip-path:url(#SVGID_00000162340049962026837610000005293624490873898161_);fill:#231F20;" d="M147.43,48.29      c-3.42-3.42-8.43-5.98-14.89-7.59c-5.06-1.28-10.66-1.93-16.64-1.93c-5.98,0-11.58,0.65-16.64,1.94      c-6.45,1.61-11.48,4.14-14.94,7.52l-0.3,0.29v0.42v25.23v0.42l0.3,0.29c3.46,3.38,8.49,5.91,14.94,7.53      c5.06,1.28,10.65,1.93,16.64,1.93c10.66,0,19.53-1.89,26.34-5.61c1.89-1.04,3.34-2.07,4.32-3.06l0.7-0.7l-0.7-0.7l-4.04-4.04      l-0.67-0.67l-0.7,0.64c-2.36,2.14-6.34,3.83-11.84,5.02c-4.37,0.9-8.89,1.36-13.41,1.36c-10.33,0-18.36-1.81-23.89-5.37      l-0.05-6.15h54.76h0.99v-0.99V48.99v-0.41L147.43,48.29z M139.73,57.29H91.88l-0.09-5.24c5.64-3.67,13.75-5.54,24.11-5.54      c10.36,0,18.37,1.82,23.83,5.42V57.29z"/>
				<path style="clip-path:url(#SVGID_00000162340049962026837610000005293624490873898161_);fill:#231F20;" d="M66.53,65.41      c4.44-1.69,7.7-3.58,9.7-5.63l0.29-0.29l0-0.41l-0.08-9.92l0-0.41l-0.3-0.29c-3.46-3.38-8.49-5.91-14.94-7.53      c-5.06-1.28-10.66-1.94-16.64-1.94c-5.98,0-11.57,0.63-16.63,1.88c-6.46,1.62-11.47,4.17-14.9,7.59l-0.29,0.29v0.41V81.9v0.99      h0.99h5.77h0.99V81.9V69.23h24.2c0,0,0.52,0.01,0.9,0.01l0.18,0c9.74,0.15,17.43,2,22.84,5.53v7.09v0.99h0.99h5.77h0.99v-0.99      V71.7v-0.4L76.08,71C74.11,68.99,70.91,67.12,66.53,65.41 M45.72,61.45c-0.18,0-0.54,0.01-0.84,0.01c-0.19,0-0.35,0.01-0.4,0.01      h-0.99v0h-23v-9.18c5.64-3.68,13.73-5.54,24.06-5.54c10.32,0,18.36,1.81,23.89,5.37l0,4.06c-5.22,3.43-12.64,5.15-22.66,5.27      H45.72z"/>
				<path style="clip-path:url(#SVGID_00000162340049962026837610000005293624490873898161_);fill:#231F20;" d="M288.86,48.29      c-3.42-3.42-8.43-5.98-14.89-7.59c-5.06-1.28-10.65-1.93-16.64-1.93c-5.98,0-11.58,0.65-16.64,1.94      c-6.45,1.61-11.48,4.15-14.94,7.52l-0.3,0.29v0.42v25.23v0.42l0.3,0.29c3.46,3.38,8.49,5.91,14.94,7.53      c5.05,1.28,10.65,1.93,16.64,1.93c10.66,0,19.52-1.89,26.34-5.61c1.89-1.04,3.34-2.07,4.32-3.06l0.7-0.7l-0.7-0.7l-4.04-4.04      l-0.67-0.67l-0.7,0.64c-2.36,2.14-6.34,3.83-11.84,5.02c-4.37,0.9-8.89,1.36-13.41,1.36c-10.33,0-18.36-1.81-23.89-5.37      l-0.05-6.15h54.76h0.99v-0.99V48.99v-0.41L288.86,48.29z M281.16,57.29h-47.85l-0.09-5.24c5.64-3.67,13.75-5.54,24.11-5.54      c10.36,0,18.37,1.82,23.83,5.42V57.29z"/>
				<path style="clip-path:url(#SVGID_00000162340049962026837610000005293624490873898161_);fill:#231F20;" d="M218.33,48.47      c-3.31-3.43-8.28-6.01-14.78-7.66c-5.07-1.25-10.66-1.88-16.64-1.88c-6.01,0-11.65,0.63-16.74,1.88      c-6.62,1.62-11.66,4.18-14.97,7.61l-0.28,0.29v0.4v24.82v0.4l0.28,0.29c3.35,3.43,8.36,5.99,14.9,7.6      c5.06,1.25,10.65,1.88,16.63,1.88c9.53,0,17.57-1.45,23.94-4.32l-0.04,6.43c-5.49,3.57-13.53,5.37-23.89,5.37      c-4.72,0-9.21-0.44-13.36-1.31c-5.24-1.11-9.24-2.83-11.92-5.1l-0.7-0.59l-0.65,0.65l-4.04,4.04l-0.69,0.69l0.67,0.7      c2.86,2.98,7.76,5.27,14.58,6.8c5.32,1.24,10.73,1.87,16.09,1.87c6.02,0,11.63-0.63,16.69-1.88c6.58-1.62,11.6-4.2,14.91-7.67      l0.28-0.29v-0.4V49.16v-0.4L218.33,48.47z M210.74,71c-2.53,1.76-6.29,3.14-11.21,4.1c-4.19,0.83-8.5,1.25-12.8,1.25      c-10.4,0-18.47-1.84-24-5.48l0.16-18.79c5.57-3.57,13.64-5.38,24.01-5.38c10.29,0,18.34,1.86,23.94,5.54L210.74,71z"/>
				<path style="clip-path:url(#SVGID_00000162340049962026837610000005293624490873898161_);fill:#231F20;" d="M131,15.53      c-3.14-3.3-8.4-4.98-15.64-4.98c-3.81,0-7.14,0.5-9.95,1.48V5.17V4.17h-0.99h-4h-0.99v0.99v22.44v0.4l0.28,0.29      c3.17,3.3,8.44,4.98,15.66,4.98c5.93,0,10.61-1.17,13.94-3.49l0.04-0.03l0.04-0.03c0.76-0.65,1.28-1.12,1.61-1.44l0.29-0.29      v-0.41V16.21v-0.4L131,15.53z M125.29,25.24c-2.34,1.36-5.67,2.04-9.92,2.04c-4.24,0-7.58-0.68-9.95-2.02v-6.74      c1.11-0.64,2.69-1.15,4.68-1.52c1.76-0.31,3.53-0.46,5.26-0.46c4.25,0,7.58,0.68,9.92,2.02V25.24z"/>
				<path style="clip-path:url(#SVGID_00000162340049962026837610000005293624490873898161_);fill:#231F20;" d="M163.12,118.85      h-0.35l-8.59,19.71h3.88l0.92-2.21h7.93l0.92,2.21h4.22L163.12,118.85z M160.33,132.98l1.41-3.39c0.57-1.38,1.15-3.51,1.15-3.51      s0.6,2.13,1.18,3.51l1.41,3.39H160.33z"/>
				<path style="clip-path:url(#SVGID_00000162340049962026837610000005293624490873898161_);fill:#231F20;" d="M302.32,118.76      c-5.63,0-10.12,4.25-10.12,10.03s4.48,10.03,10.12,10.03c5.63,0,10.11-4.25,10.11-10.03S307.95,118.76,302.32,118.76       M302.32,135.23c-3.56,0-5.98-2.79-5.98-6.44c0-3.65,2.41-6.44,5.98-6.44c3.56,0,5.98,2.79,5.98,6.44      C308.3,132.44,305.88,135.23,302.32,135.23"/>
			</g>
		</g>
	</g>
</g>
</svg>