<svg width="145" height="55" viewBox="0 0 145 55" fill="none" xmlns="http://www.w3.org/2000/svg">
<path fill-rule="evenodd" clip-rule="evenodd" d="M9.69114 40.7437C3.96491 10.2948 47.2991 5.04634 48.5207 33.2178C48.7506 45.6666 34.1938 52.9664 25.5645 45.7299C17.0792 38.6139 19.6077 28.3688 25.4771 25.0271C34.4825 19.8993 40.5742 32.3473 30.0231 33.0286C27.1495 33.2148 23.9299 33.1243 26.5963 37.8264C28.234 40.7151 31.691 42.7914 34.8781 43.6913C37.5054 44.4321 38.6193 41.8689 36.3033 40.6714C34.5654 39.7738 33.1741 37.7472 32.6473 36.2542C35.8021 36.1186 38.2304 35.0386 39.7942 33.3972C44.8195 28.1209 39.7942 19.3239 30.6999 19.3239C23.0501 19.3239 15.9743 24.5244 14.7233 33.7551C13.7691 43.6084 20.1789 52.3876 29.9508 54.1565C53.8927 57.3195 62.4655 30.7993 48.7265 14.733C40.7845 5.96127 27.31 4.81647 16.8915 9.5087C8.4122 13.5317 2.32647 21.0772 0.727978 30.4037C-0.327133 35.2489 -0.140227 39.1528 0.682005 43.0258C1.46806 46.7232 2.45308 49.0241 3.79232 50.4244C6.53184 53.289 10.7048 52.0621 11.1743 48.3654C11.4125 46.4926 10.2247 43.5805 9.69114 40.7437Z" fill="url(#paint0_radial_602_5494)"/>
<path d="M128.474 34.038C128.623 33.219 129.655 32.9385 130.198 33.5695L132.783 36.5729C133.002 36.8268 133.334 36.9529 133.666 36.9081L137.593 36.3773C138.418 36.2658 139.003 37.1606 138.571 37.8721L136.513 41.2584C136.339 41.5448 136.322 41.8997 136.467 42.2015L138.185 45.7722C138.546 46.5223 137.876 47.3558 137.066 47.1646L133.21 46.254C132.884 46.1771 132.541 46.2703 132.299 46.5017L129.434 49.2392C128.832 49.8143 127.832 49.4347 127.764 48.605L127.438 44.6559C127.41 44.322 127.216 44.0247 126.921 43.8659L123.432 41.9871C122.699 41.5924 122.751 40.5242 123.519 40.2028L127.174 38.6726C127.483 38.5432 127.706 38.2663 127.766 37.9367L128.474 34.038Z" fill="url(#paint1_radial_602_5494)"/>
<path d="M94.2208 1.32646C94.5432 0.911585 95.2026 1.05583 95.3223 1.56742L95.8921 4.00257C95.9403 4.20846 96.0894 4.376 96.2882 4.4478L98.6406 5.29697C99.1348 5.47536 99.2014 6.14705 98.7518 6.41899L96.6119 7.71341C96.431 7.82285 96.3177 8.01639 96.3109 8.22773L96.2302 10.7274C96.2132 11.2525 95.595 11.5234 95.1975 11.1798L93.3051 9.54469C93.1451 9.40644 92.9261 9.35851 92.723 9.41733L90.3207 10.113C89.8161 10.2592 89.3674 9.7549 89.5713 9.27065L90.5416 6.96565C90.6237 6.77076 90.6016 6.5476 90.4828 6.37262L89.0789 4.30295C88.7839 3.86814 89.1249 3.2856 89.6484 3.32985L92.1405 3.54043C92.3512 3.55824 92.5566 3.46824 92.6863 3.30127L94.2208 1.32646Z" fill="url(#paint2_radial_602_5494)"/>
<path d="M127.979 12.6692H132.958L136.17 19.3509H136.299L139.511 12.6692H144.49L138.451 23.9446V29.1164H134.018V23.9446L127.979 12.6692Z" fill="white"/>
<path fill-rule="evenodd" clip-rule="evenodd" d="M93.1557 40.8928C93.1557 42.7239 92.7997 44.2685 92.0876 45.5266C91.3755 46.7795 90.4145 47.7298 89.2045 48.3776C87.9945 49.0201 86.6454 49.3413 85.157 49.3413C83.6579 49.3413 82.3033 49.0174 81.0933 48.3696C79.8887 47.7164 78.9304 46.7634 78.2183 45.5106C77.5116 44.2524 77.1582 42.7132 77.1582 40.8928C77.1582 39.0618 77.5116 37.5199 78.2183 36.267C78.9304 35.0089 79.8887 34.0585 81.0933 33.4161C82.3033 32.7682 83.6579 32.4443 85.157 32.4443C86.6454 32.4443 87.9945 32.7682 89.2045 33.4161C90.4145 34.0585 91.3755 35.0089 92.0876 36.267C92.7997 37.5199 93.1557 39.0618 93.1557 40.8928ZM88.5621 40.8928C88.5621 39.9077 88.4309 39.0778 88.1685 38.4033C87.9116 37.7233 87.5288 37.2093 87.0201 36.8613C86.5169 36.508 85.8958 36.3313 85.157 36.3313C84.4181 36.3313 83.7944 36.508 83.2858 36.8613C82.7825 37.2093 82.3997 37.7233 82.1374 38.4033C81.8804 39.0778 81.7519 39.9077 81.7519 40.8928C81.7519 41.878 81.8804 42.7105 82.1374 43.3904C82.3997 44.065 82.7825 44.579 83.2858 44.9324C83.7944 45.2804 84.4181 45.4544 85.157 45.4544C85.8958 45.4544 86.5169 45.2804 87.0201 44.9324C87.5288 44.579 87.9116 44.065 88.1685 43.3904C88.4309 42.7105 88.5621 41.878 88.5621 40.8928Z" fill="white"/>
<path d="M95.6738 32.6694V49.1167H106.789V45.5189H100.139V32.6694H95.6738Z" fill="white"/>
<path d="M109.045 32.6694V49.1167H120.16V45.5189H113.51V32.6694H109.045Z" fill="white"/>
<path fill-rule="evenodd" clip-rule="evenodd" d="M61.6641 32.6694V49.1167H66.1292V43.6878H67.6746L70.5623 49.1167H75.4129L72.0728 42.9844C72.9261 42.575 73.5951 41.993 74.0798 41.2384C74.6045 40.4299 74.8668 39.4368 74.8668 38.2589C74.8668 37.0918 74.6125 36.0906 74.1039 35.2554C73.5953 34.4202 72.8832 33.7804 71.9677 33.336C71.0522 32.8916 69.9841 32.6694 68.7634 32.6694H61.6641ZM67.7033 40.2185H66.1292V36.2351H67.7033C68.228 36.2351 68.675 36.3074 69.0444 36.452C69.4192 36.5912 69.7057 36.8107 69.9038 37.1105C70.1072 37.405 70.2089 37.7878 70.2089 38.2589C70.2089 38.7247 70.1072 39.1022 69.9038 39.3913C69.7057 39.6804 69.4192 39.8919 69.0444 40.0257C68.675 40.1542 68.228 40.2185 67.7033 40.2185Z" fill="white"/>
<path fill-rule="evenodd" clip-rule="evenodd" d="M113.369 29.1164H118.188L119.138 25.9683H124.561L125.512 29.1164H130.33L124.901 12.6692H118.798L113.369 29.1164ZM123.553 22.6275L121.914 17.1986H121.786L120.147 22.6275H123.553Z" fill="white"/>
<path fill-rule="evenodd" clip-rule="evenodd" d="M104.242 29.1164H97.9141V12.6692H104.178C105.87 12.6692 107.332 12.9985 108.563 13.657C109.8 14.3102 110.753 15.2525 111.422 16.4839C112.097 17.7099 112.434 19.1796 112.434 20.8928C112.434 22.6061 112.099 24.0784 111.43 25.3098C110.761 26.5359 109.813 27.4781 108.587 28.1367C107.361 28.7899 105.913 29.1164 104.242 29.1164ZM102.379 25.3259H104.082C104.896 25.3259 105.589 25.1947 106.162 24.9324C106.74 24.67 107.179 24.2176 107.479 23.5751C107.784 22.9327 107.937 22.0386 107.937 20.8928C107.937 19.7471 107.781 18.853 107.471 18.2105C107.166 17.568 106.716 17.1156 106.122 16.8533C105.533 16.5909 104.81 16.4598 103.953 16.4598H102.379V25.3259Z" fill="white"/>
<path d="M95.346 29.1164V12.6692H90.8809V29.1164H95.346Z" fill="white"/>
<path fill-rule="evenodd" clip-rule="evenodd" d="M75.3223 29.1164V12.6692H82.4216C83.6423 12.6692 84.7104 12.8914 85.6259 13.3358C86.5414 13.7801 87.2535 14.4199 87.7621 15.2551C88.2707 16.0903 88.525 17.0915 88.525 18.2587C88.525 19.4366 88.2627 20.4297 87.738 21.2381C87.2533 21.9928 86.5843 22.5748 85.731 22.9842L89.0711 29.1164H84.2205L81.3328 23.6876H79.7874V29.1164H75.3223ZM79.7874 16.2349V20.2182H81.3615C81.8862 20.2182 82.3332 20.154 82.7027 20.0255C83.0774 19.8916 83.3639 19.6802 83.562 19.391C83.7654 19.1019 83.8671 18.7245 83.8671 18.2587C83.8671 17.7875 83.7654 17.4047 83.562 17.1103C83.3639 16.8105 83.0774 16.5909 82.7027 16.4517C82.3332 16.3072 81.8862 16.2349 81.3615 16.2349H79.7874Z" fill="white"/>
<path d="M61.6641 12.6692V29.1164H66.1292V22.6917H72.5218V19.0939H66.1292V16.267H73.2285V12.6692H61.6641Z" fill="white"/>
<defs>
<radialGradient id="paint0_radial_602_5494" cx="0" cy="0" r="1" gradientUnits="userSpaceOnUse" gradientTransform="translate(42.5212 1.88872) rotate(107.433) scale(67.2188 78.0308)">
<stop offset="0.293671" stop-color="#01FC29"/>
<stop offset="1" stop-color="#027EF1"/>
</radialGradient>
<radialGradient id="paint1_radial_602_5494" cx="0" cy="0" r="1" gradientUnits="userSpaceOnUse" gradientTransform="translate(133.001 30.5606) rotate(90.5766) scale(21.8366 23.2129)">
<stop offset="0.293671" stop-color="#01FC29"/>
<stop offset="1" stop-color="#027EF1"/>
</radialGradient>
<radialGradient id="paint2_radial_602_5494" cx="0" cy="0" r="1" gradientUnits="userSpaceOnUse" gradientTransform="translate(97.7692 0.70186) rotate(118.123) scale(13.7821 14.6507)">
<stop offset="0.293671" stop-color="#01FC29"/>
<stop offset="1" stop-color="#027EF1"/>
</radialGradient>
</defs>
</svg>
