<svg width="17" height="16" viewBox="0 0 17 16" fill="none" xmlns="http://www.w3.org/2000/svg">
<path fill-rule="evenodd" clip-rule="evenodd" d="M4.35623 10.5554C2.90629 2.88392 13.8789 1.56161 14.1882 8.65928C14.2464 11.7957 10.5605 13.6349 8.37551 11.8117C6.22694 10.0188 6.86718 7.4376 8.35337 6.59568C10.6336 5.30374 12.1761 8.43997 9.50446 8.61162C8.77682 8.65852 7.96159 8.63574 8.63675 9.82039C9.05143 10.5482 9.92677 11.0713 10.7338 11.298C11.399 11.4847 11.6811 10.8389 11.0947 10.5372C10.6546 10.311 10.3023 9.80046 10.1689 9.42431C10.9678 9.39013 11.5826 9.11803 11.9786 8.70447C13.251 7.37513 11.9786 5.15877 9.67582 5.15877C7.73883 5.15877 5.94718 6.46903 5.6304 8.79467C5.38881 11.2771 7.01183 13.489 9.48614 13.9347C15.5485 14.7316 17.7192 8.04996 14.2403 4.00212C12.2293 1.79212 8.81747 1.50369 6.17942 2.68588C4.03239 3.69945 2.49143 5.60052 2.08667 7.95027C1.81951 9.17101 1.86684 10.1546 2.07503 11.1304C2.27407 12.0619 2.52349 12.6416 2.86259 12.9944C3.55626 13.7161 4.61289 13.407 4.73178 12.4757C4.79208 12.0038 4.49133 11.2701 4.35623 10.5554Z" fill="url(#paint0_radial_602_5491)"/>
<defs>
<radialGradient id="paint0_radial_602_5491" cx="0" cy="0" r="1" gradientUnits="userSpaceOnUse" gradientTransform="translate(12.6691 0.766056) rotate(107.515) scale(16.9431 19.7492)">
<stop offset="0.293671" stop-color="#01FC29"/>
<stop offset="1" stop-color="#027EF1"/>
</radialGradient>
</defs>
</svg>
