<svg xmlns="http://www.w3.org/2000/svg" xmlns:xlink="http://www.w3.org/1999/xlink" version="1.1" id="Layer_1" x="0px" y="0px" viewBox="0 0 222 68" style="enable-background:new 0 0 222 68;" xml:space="preserve">
<style type="text/css">
	.st0{fill:#FFFFFF;}
</style>
<g>
	<path class="st0" d="M174.2,40.8l0-33c0-0.4-0.1-0.4-0.4-0.4h-9c-0.3,0-0.4,0.1-0.4,0.4l0,33c0,0,0,0.3,0.2,0.3c0.3,0,1.7,0,2,0   c0.3,0,0.3-0.3,0.3-0.3l0-14.4l4.9-2.9l0,17.3c0,0,0,0.3,0.3,0.3c0.3,0,1.7,0,2,0C174.3,41,174.2,40.8,174.2,40.8z M166.9,23.6   l0-13.7c0-0.2,0.1-0.3,0.3-0.3h4.3c0.3,0,0.3,0,0.3,0.3l0,10.9L166.9,23.6z"/>
	<path class="st0" d="M48.5,40.8V7.7c0,0,0-0.3,0.2-0.3c0.3,0,1.6,0,1.9,0C51,7.4,51,7.7,51,7.7v16l4.9-2.7V7.7c0,0,0-0.3,0.3-0.3   c0.2,0,1.7,0,2,0c0.3,0,0.2,0.3,0.2,0.3v33.1c0,0,0,0.3-0.2,0.3c-0.3,0-1.7,0-2,0c-0.3,0-0.3-0.3-0.3-0.3V23.6L51,26.4v14.4   c0,0,0,0.3-0.3,0.3c-0.3,0-1.7,0-2,0C48.5,41.1,48.5,40.8,48.5,40.8z"/>
	<path class="st0" d="M9,25.1c-0.3,0-1.5,0-1.8,0c-0.3,0-0.3-0.3-0.3-0.3L3.5,5.7l0.1,39c0,0,0,0.3-0.3,0.3s-1.5,0-1.8,0   s-0.3-0.3-0.3-0.3l0-42.6c0,0,0-0.3,0.3-0.3c0.4,0,2.6,0,3.2,0c0.4,0,0.4,0.4,0.4,0.4l3,17.9l3.2-18c0,0,0-0.3,0.4-0.3   c0.4,0,2.7,0,2.9,0C15,1.8,15,2.1,15,2.1v42.6c0,0,0,0.3-0.3,0.3c-0.3,0-1.4,0-1.8,0c-0.3,0-0.3-0.3-0.3-0.3L12.7,6L9.3,24.8   C9.3,24.8,9.3,25.1,9,25.1z"/>
	<path class="st0" d="M27.4,30.1c0.4,0,1.5,0,1.8,0c0.3,0,0.3,0.3,0.3,0.3v10.2c0,0.3-0.1,0.5-0.4,0.5h-8.3c-0.3,0-0.5,0-0.5-0.4   V13.5c0-0.2,0.1-0.3,0.3-0.3h8.6c0.2,0,0.3,0.1,0.3,0.3v10.7c0,0,0,0.4-0.3,0.4c-0.5,0-1.4,0-1.8,0c-0.4,0-0.3-0.4-0.3-0.4v-8.5   c0-0.2-0.1-0.3-0.3-0.3h-3.7c-0.2,0-0.3,0.1-0.3,0.3v22.7c0,0.3,0.1,0.4,0.4,0.4h3.6c0.3,0,0.4-0.1,0.4-0.4v-8   C27.1,30.4,27,30.1,27.4,30.1z"/>
	<path class="st0" d="M35,7.4c0.3,0,9,0,9,0c0.3,0,0.3,0.1,0.3,0.3v17.8c0,0.3,0,0.4-0.3,0.5l-6.8,4v10.8c0,0,0,0.3-0.3,0.3   c-0.3,0-1.6,0-1.9,0c-0.3,0-0.3-0.3-0.3-0.3V7.7C34.7,7.7,34.7,7.4,35,7.4z M41.6,24.7c0.1-0.1,0.2-0.2,0.2-0.4V9.9   c0-0.2-0.1-0.2-0.3-0.2c0,0-3.9,0-4.1,0c-0.2,0-0.2,0.2-0.2,0.2v17.3L41.6,24.7z"/>
	<path class="st0" d="M101,7.4c0.3,0,9,0,9,0c0.3,0,0.3,0.1,0.3,0.3v17.8c0,0.3,0,0.4-0.3,0.5l-6.8,4v10.8c0,0,0,0.3-0.3,0.3   c-0.3,0-1.6,0-1.9,0c-0.3,0-0.3-0.3-0.3-0.3V7.7C100.7,7.7,100.6,7.4,101,7.4z M107.6,24.7c0.1-0.1,0.2-0.2,0.2-0.4V9.9   c0-0.2-0.1-0.2-0.3-0.2c0,0-3.9,0-4.1,0c-0.2,0-0.2,0.2-0.2,0.2v17.3L107.6,24.7z"/>
	<path class="st0" d="M63.8,7.4c0.3,0,1.6,0,1.9,0C66,7.4,66,7.7,66,7.7v33.1c0,0,0,0.3-0.3,0.3c-0.3,0-1.7,0-1.9,0   s-0.3-0.3-0.3-0.3V7.7C63.6,7.7,63.5,7.4,63.8,7.4z"/>
	<path class="st0" d="M93.2,7.4c0.3,0,1.6,0,1.9,0c0.3,0,0.3,0.3,0.3,0.3v33.1c0,0,0,0.3-0.3,0.3c-0.3,0-1.7,0-1.9,0   c-0.3,0-0.3-0.3-0.3-0.3V7.7C92.9,7.7,92.9,7.4,93.2,7.4z"/>
	<path class="st0" d="M189.5,7.4c0.3,0,1.6,0,1.9,0c0.3,0,0.3,0.3,0.3,0.3v33.1c0,0,0,0.3-0.3,0.3c-0.3,0-1.7,0-1.9,0   c-0.3,0-0.3-0.3-0.3-0.3V7.7C189.2,7.7,189.2,7.4,189.5,7.4z"/>
	<path class="st0" d="M71.5,7.4c0.3,0,1.6,0,1.9,0c0.3,0,0.3,0.3,0.3,0.3v31.1c0,0,4,0,4.3,0c0.3,0,0.2,0.2,0.2,0.2v1.7   c0,0,0,0.3-0.3,0.3s-6.2,0-6.4,0c-0.3,0-0.3-0.3-0.3-0.3V7.7C71.3,7.7,71.2,7.4,71.5,7.4z"/>
	<path class="st0" d="M81.6,7.4c0.3,0,1.6,0,1.9,0c0.3,0,0.3,0.3,0.3,0.3v31.1c0,0,4,0,4.3,0s0.2,0.2,0.2,0.2v1.7c0,0,0,0.3-0.3,0.3   c-0.3,0-6.2,0-6.4,0c-0.3,0-0.3-0.3-0.3-0.3V7.7C81.4,7.7,81.3,7.4,81.6,7.4z"/>
	<path class="st0" d="M121.5,28.9c0-0.3-0.2-0.5-0.2-0.5l-6.5-8c0,0-0.2-0.2-0.2-0.5V7.7c0-0.2,0-0.3,0.3-0.3h8.8   c0.2,0,0.3,0.1,0.3,0.3v11.1c0,0,0,0.4-0.4,0.4c-0.4,0-1.1,0-1.6,0s-0.4-0.4-0.4-0.4V9.9c0-0.2-0.1-0.3-0.3-0.3h-4   c-0.2,0-0.3,0.1-0.3,0.3v9c0,0.3,0.1,0.4,0.1,0.4l6.6,8c0,0,0.2,0.2,0.2,0.6v12.8c0,0.3-0.1,0.4-0.4,0.4H115   c-0.4,0-0.5-0.1-0.5-0.5v-12c0,0,0-0.4,0.3-0.4s1.3,0,1.7,0c0.4,0,0.4,0.4,0.4,0.4v9.9c0,0.2,0.1,0.3,0.3,0.3h3.9   c0.2,0,0.3-0.1,0.3-0.3V28.9z"/>
	<path class="st0" d="M146.7,28.1c0-0.3-0.2-0.5-0.2-0.5l-6.5-8c0,0-0.2-0.2-0.2-0.5v-17c0-0.2,0-0.3,0.3-0.3h8.8   c0.2,0,0.3,0.1,0.3,0.3v11.3c0,0,0,0.4-0.4,0.4c-0.4,0-1.1,0-1.6,0c-0.4,0-0.4-0.4-0.4-0.4v-9c0-0.2-0.1-0.3-0.3-0.3h-4   c-0.2,0-0.3,0.1-0.3,0.3v13.8c0,0.3,0.1,0.4,0.1,0.4l6.6,8c0,0,0.2,0.2,0.2,0.6v17.6c0,0.3-0.1,0.4-0.4,0.4h-8.5   c-0.4,0-0.5-0.1-0.5-0.5V32.3c0,0,0-0.4,0.3-0.4c0.4,0,1.3,0,1.7,0c0.4,0,0.4,0.4,0.4,0.4v10.1c0,0.2,0.1,0.3,0.3,0.3h3.9   c0.2,0,0.3-0.1,0.3-0.3V28.1z"/>
	<path class="st0" d="M155.8,40.8V9.6c0,0-2.3,0-2.6,0s-0.3-0.3-0.3-0.3V7.7c0,0,0-0.3,0.3-0.3s7.4,0,7.7,0c0.3,0,0.3,0.3,0.3,0.3   v1.7c0,0,0.1,0.3-0.3,0.3s-2.6,0-2.6,0v31.1c0,0,0,0.3-0.3,0.3c-0.3,0-1.6,0-1.8,0C155.8,41.1,155.8,40.8,155.8,40.8z"/>
	<path class="st0" d="M180.2,40.8V9.6c0,0-2.3,0-2.6,0c-0.3,0-0.3-0.3-0.3-0.3V7.7c0,0,0-0.3,0.3-0.3s7.4,0,7.7,0s0.3,0.3,0.3,0.3   v1.7c0,0,0.1,0.3-0.3,0.3c-0.3,0-2.6,0-2.6,0v31.1c0,0,0,0.3-0.3,0.3c-0.3,0-1.6,0-1.8,0C180.3,41.1,180.2,40.8,180.2,40.8z"/>
	<path class="st0" d="M196.1,7.8c0-0.3,0.1-0.4,0.4-0.4h9c0.3,0,0.4,0,0.4,0.4v33c0,0.3-0.1,0.3-0.3,0.3h-9.2   c-0.2,0-0.3-0.1-0.3-0.3V7.8z M203.5,9.9c0-0.3-0.1-0.3-0.3-0.3h-4.3c-0.2,0-0.3,0.1-0.3,0.3v28.6c0,0.2,0.1,0.3,0.3,0.3h4.3   c0.2,0,0.3-0.1,0.3-0.3V9.9z"/>
	<g>
		<path class="st0" d="M212.3,10.7l0,30c0,0,0,0.3-0.3,0.3c-0.4,0-1.6,0-1.9,0c-0.3,0-0.3-0.3-0.3-0.3l0-33.1c0,0,0-0.3,0.3-0.3    c0.3,0,2.4,0,2.7,0c0.3,0,0.4,0.3,0.4,0.3l4.7,10.9l0-10.9c0,0,0-0.3,0.3-0.3s1.6,0,1.9,0c0.3,0,0.3,0.3,0.3,0.3v33.1    c0,0,0,0.3-0.3,0.3c-0.4,0-1.6,0-1.9,0c-0.3,0-0.3-0.3-0.3-0.3l0-16.6L212.3,10.7z"/>
	</g>
	<g>
		<g>
			<path class="st0" d="M65.5,62.6c0-2.7,2.1-4.6,4.7-4.6c1.6,0,2.8,0.6,3.6,1.9l-1.4,1c-0.4-0.7-1.2-1.2-2.2-1.2     c-1.6,0-2.7,1.3-2.7,3c0,1.7,1.1,3,2.7,3c1.2,0,1.8-0.6,2.3-1.3l1.5,1c-0.8,1.2-2,2-3.8,2C67.5,67.3,65.5,65.3,65.5,62.6z"/>
			<path class="st0" d="M86.9,58H87l4.1,9.1h-2l-0.4-1h-3.7l-0.4,1h-1.8L86.9,58z M88.1,64.6L87.5,63c-0.3-0.6-0.5-1.6-0.5-1.6     s-0.3,1-0.5,1.6l-0.7,1.6H88.1z"/>
			<path class="st0" d="M100.2,65.4l1.5-0.9c0.4,0.7,0.9,1.1,1.8,1.1c0.8,0,1.3-0.4,1.3-0.9c0-0.6-0.5-0.9-1.4-1.2l-0.5-0.2     c-1.3-0.6-2.2-1.3-2.2-2.8c0-1.4,1.1-2.5,2.7-2.5c1.2,0,2,0.4,2.7,1.5l-1.5,0.9c-0.3-0.6-0.7-0.8-1.2-0.8c-0.5,0-0.9,0.3-0.9,0.8     c0,0.6,0.3,0.8,1.1,1.1l0.5,0.2c1.6,0.7,2.5,1.4,2.5,2.9c0,1.7-1.3,2.6-3.1,2.6C101.8,67.3,100.7,66.4,100.2,65.4z"/>
			<path class="st0" d="M116.8,58.1h1.9v9.1h-1.9V58.1z"/>
			<path class="st0" d="M131.9,62.9c-0.5-0.4-1.1-1.2-1.1-1.2s0.1,1,0.1,1.7v3.8h-1.7V58h0.2l4.6,4.3c0.4,0.4,1.1,1.2,1.1,1.2     s-0.1-1-0.1-1.7v-3.8h1.7v9.1h-0.2L131.9,62.9z"/>
			<path class="st0" d="M146.9,62.6c0-2.7,2.1-4.6,4.7-4.6c2.6,0,4.7,2,4.7,4.6c0,2.7-2.1,4.6-4.7,4.6     C149,67.3,146.9,65.3,146.9,62.6z M154.3,62.6c0-1.7-1.1-3-2.8-3c-1.7,0-2.8,1.3-2.8,3c0,1.7,1.1,3,2.8,3     C153.2,65.6,154.3,64.3,154.3,62.6z"/>
		</g>
	</g>
</g>
</svg>