<svg xmlns="http://www.w3.org/2000/svg" xmlns:xlink="http://www.w3.org/1999/xlink" version="1.1" id="Layer_1" x="0px" y="0px" viewBox="0 0 448.88 139.19" style="enable-background:new 0 0 448.88 139.19;" xml:space="preserve">
<style type="text/css">
	.st0{clip-path:url(#SVGID_00000176041635296683866280000000011814869793093799_);}
	.st1{clip-path:url(#SVGID_00000008868943219255248330000013263764801492510902_);fill:#231F20;}
	.st2{clip-path:url(#SVGID_00000068676269338205000440000006729027742665619389_);}
	.st3{clip-path:url(#SVGID_00000041261317206679667050000013083020410291856015_);fill:#231F20;}
	.st4{clip-path:url(#SVGID_00000034070921503120098860000003990148625032317092_);}
	.st5{clip-path:url(#SVGID_00000152974524019785566080000002521388713633119620_);fill:#231F20;}
	.st6{clip-path:url(#SVGID_00000012431652916634399550000016454531978219361960_);}
	.st7{clip-path:url(#SVGID_00000033346918015537784430000008332082073135186603_);}
	.st8{clip-path:url(#SVGID_00000101083764714817197710000000422552720470191761_);fill:#231F20;}
	.st9{clip-path:url(#SVGID_00000101083764714817197710000000422552720470191761_);}
	.st10{clip-path:url(#SVGID_00000137848685663626908320000016947812150594206356_);fill:#231F20;}
</style>
<g id="MSC-pos_00000009556227677461454210000010373323854254374283_">
	<g id="Layer_1_00000093883993674448999860000004641648780557814951_">
		<g>
			<defs>
				<rect id="SVGID_00000069362819852864305400000003683692047395319966_" x="8.44" y="2.62" width="432" height="133.96"/>
			</defs>
			<clipPath id="SVGID_00000063625221707337157580000003274962194464131974_">
				<use xlink:href="#SVGID_00000069362819852864305400000003683692047395319966_" style="overflow:visible;"/>
			</clipPath>
			<g style="clip-path:url(#SVGID_00000063625221707337157580000003274962194464131974_);">
				<defs>
					<rect id="SVGID_00000102511224671392218900000000535968271871294395_" x="8.44" y="2.62" width="432" height="133.96"/>
				</defs>
				<clipPath id="SVGID_00000019664157881389174670000006570986933276253353_">
					<use xlink:href="#SVGID_00000102511224671392218900000000535968271871294395_" style="overflow:visible;"/>
				</clipPath>
				<g style="clip-path:url(#SVGID_00000019664157881389174670000006570986933276253353_);">
					<defs>
						<rect id="SVGID_00000020371768119031090610000006041955258431970477_" x="8.44" y="2.62" width="432" height="133.96"/>
					</defs>
					<clipPath id="SVGID_00000057849883023500398550000015146305844248957855_">
						<use xlink:href="#SVGID_00000020371768119031090610000006041955258431970477_" style="overflow:visible;"/>
					</clipPath>
					<path style="clip-path:url(#SVGID_00000057849883023500398550000015146305844248957855_);fill:#231F20;" d="M410.81,13.36       h-20.96c-0.41,0-0.74,0.33-0.74,0.74v66.04c0,0.41,0.33,0.75,0.74,0.75h20.96c0.41,0,0.75-0.33,0.75-0.75V14.1       C411.55,13.69,411.22,13.36,410.81,13.36 M403.7,73.34c0,0.41-0.33,0.75-0.75,0.75h-5.27c-0.41,0-0.75-0.33-0.75-0.75V20.82       c0-0.41,0.33-0.75,0.75-0.75h5.27c0.41,0,0.75,0.33,0.75,0.75V73.34z"/>
					<path style="clip-path:url(#SVGID_00000057849883023500398550000015146305844248957855_);fill:#231F20;" d="M382.4,80.89h-6.32       c-0.41,0-0.75-0.34-0.75-0.75V14.11c0-0.41,0.34-0.75,0.75-0.75h6.32c0.41,0,0.75,0.34,0.75,0.75v66.03       C383.15,80.55,382.81,80.89,382.4,80.89"/>
					<path style="clip-path:url(#SVGID_00000057849883023500398550000015146305844248957855_);fill:#231F20;" d="M371.13,18.57       l0-3.14v-1.33c0-0.41-0.33-0.75-0.74-0.75h-17.81c-0.41,0-0.74,0.33-0.74,0.75v1.04c-0.01,0.11-0.01,0.21,0,0.29v3.16v1.24       c0,0.41,0.33,0.75,0.74,0.75h1.13c0.05,0,0.09,0.01,0.14,0.01h3.71v58.19v0.04c0,0.04,0.01,0.07,0.01,0.11v1.1       c0,0.41,0.33,0.74,0.74,0.74h1c0.1,0.01,0.2,0.03,0.31,0.03h3.67c0.12,0,0.23-0.01,0.34-0.03h1.01c0.41,0,0.74-0.33,0.74-0.74       V79c0.01-0.11,0.02-0.2,0.02-0.25V20.59h3.7c0.04,0,0.07-0.01,0.11-0.01h1.17c0.41,0,0.74-0.33,0.74-0.75v-0.96       C371.14,18.76,371.14,18.66,371.13,18.57"/>
					<path style="clip-path:url(#SVGID_00000057849883023500398550000015146305844248957855_);fill:#231F20;" d="M198.19,15.41       c0-0.03,0-0.07,0-0.1v-1.23c0-0.41-0.33-0.75-0.74-0.75h-6.36c-0.41,0-0.75,0.33-0.75,0.75v1.34v1.35v60.62v1.4v1.29       c0,0.41,0.33,0.75,0.75,0.75h6.36c0.41,0,0.74-0.33,0.74-0.75v-1.16c0-0.03,0-0.07,0-0.1V15.41z"/>
					<path style="clip-path:url(#SVGID_00000057849883023500398550000015146305844248957855_);fill:#231F20;" d="M124.74,16.78       v-2.69c0-0.41-0.33-0.75-0.75-0.75h-6.36c-0.41,0-0.75,0.33-0.75,0.75v1.29v1.4v23.08l-6.76,3.63l0-28.04v-1.36       c0-0.41-0.33-0.75-0.74-0.75h-6.36c-0.41,0-0.75,0.33-0.75,0.75v2.69c0,0.01,0,0.01,0,0.02v60.58c0,0.01,0,0.01,0,0.02v2.69       c0,0.41,0.33,0.75,0.75,0.75h6.36c0.41,0,0.75-0.33,0.75-0.75v-1.23V77.4V52.18l6.76-3.81V77.4v1.42v1.27       c0,0.41,0.33,0.75,0.75,0.75H124c0.41,0,0.75-0.33,0.75-0.75V77.4c0-0.01,0-0.01,0-0.02V16.8       C124.74,16.79,124.74,16.78,124.74,16.78"/>
					<path style="clip-path:url(#SVGID_00000057849883023500398550000015146305844248957855_);fill:#231F20;" d="M139.95,15.41       c0-0.03,0-0.07,0-0.1v-1.23c0-0.41-0.33-0.75-0.74-0.75h-6.36c-0.41,0-0.75,0.33-0.75,0.75v1.34v1.35v60.62v1.4v1.29       c0,0.41,0.33,0.75,0.75,0.75h6.36c0.41,0,0.74-0.33,0.74-0.75v-1.16c0-0.03,0-0.07,0-0.1V15.41z"/>
					<path style="clip-path:url(#SVGID_00000057849883023500398550000015146305844248957855_);fill:#231F20;" d="M439.7,13.36h-1.32       h-3.8h-1.29c-0.41,0-0.75,0.33-0.75,0.75v15.13l-6.38-14.48c-0.33-0.7-0.39-1.4-2.25-1.4h-0.41h-5.03h-1.3       c-0.41,0-0.75,0.33-0.75,0.75v1.03c-0.01,0.1-0.01,0.18-0.01,0.23l0,63.42c0,0.07,0.01,0.13,0.02,0.2v1.17       c0,0.41,0.33,0.75,0.75,0.75h6.33c0.41,0,0.74-0.33,0.74-0.75v-1.1c0.01-0.12,0.02-0.23,0.02-0.31l-0.02-31.25V28.42l8.3,18.95       l0,31.44c0,0.01,0,0.03,0,0.04v1.31c0,0.41,0.33,0.75,0.75,0.75h6.42c0.41,0,0.74-0.33,0.74-0.75v-1.31V15.36V14.1       C440.44,13.69,440.11,13.36,439.7,13.36"/>
					<path style="clip-path:url(#SVGID_00000057849883023500398550000015146305844248957855_);fill:#231F20;" d="M348.65,14.11       c0-0.41-0.33-0.75-0.74-0.75h-1.53h-17.91h-1.54c-0.41,0-0.74,0.33-0.74,0.75v4.29c0,0,0,0,0,0l0.01,60.33v1.31       c0,0.41,0.33,0.74,0.74,0.74h1.21h3.88h1.27c0.41,0,0.74-0.33,0.74-0.74v-1.21c0,0,0,0,0,0v-0.28v-1.36v0l-0.01-25.18       l6.74-3.81l-0.01,30.57c0,0.09,0.01,0.22,0.03,0.36v0.91c0,0.41,0.33,0.74,0.74,0.74h1.24h3.92h1.19       c0.41,0,0.74-0.33,0.74-0.74v-2.85c0,0,0-0.01,0-0.01l-0.01-58.72c0-0.02,0.01-0.04,0.01-0.07V14.11z M340.78,20.82v2.64       c0,0,0,0,0,0l0,16.39l-6.75,3.62l-0.01-20.01c0,0,0,0,0,0v-2.64v-0.24h0.05c0.1-0.29,0.37-0.5,0.7-0.5h5.27       c0.33,0,0.6,0.21,0.7,0.5h0.05V20.82"/>
					<path style="clip-path:url(#SVGID_00000057849883023500398550000015146305844248957855_);fill:#231F20;" d="M322.58,18.57       l0-3.14v-1.33c0-0.41-0.33-0.75-0.74-0.75h-17.81c-0.41,0-0.74,0.33-0.74,0.75v1.04c-0.01,0.11-0.01,0.21,0,0.29v3.16v1.24       c0,0.41,0.33,0.75,0.74,0.75h1.13c0.05,0,0.09,0.01,0.14,0.01H309v58.19l0,0.04c0,0.04,0.01,0.07,0.01,0.11v1.1       c0,0.41,0.33,0.74,0.74,0.74h1c0.1,0.01,0.2,0.03,0.31,0.03h3.67c0.12,0,0.23-0.01,0.34-0.03h1.01c0.41,0,0.74-0.33,0.74-0.74       V79c0.01-0.11,0.02-0.2,0.02-0.25V20.59h3.7c0.04,0,0.07-0.01,0.11-0.01h1.17c0.41,0,0.74-0.33,0.74-0.75v-0.96       C322.58,18.76,322.59,18.66,322.58,18.57"/>
					<path style="clip-path:url(#SVGID_00000057849883023500398550000015146305844248957855_);fill:#231F20;" d="M163.49,73.6h-1.24       h-6.99V16.78V15.4v-1.32c0-0.41-0.33-0.75-0.75-0.75h-6.37c-0.41,0-0.74,0.33-0.74,0.75v2.69c0,0.01,0.01,0.03,0.01,0.04V74.3       c0,0.01-0.01,0.03-0.01,0.04v5.74c0,0.41,0.33,0.75,0.74,0.75h15.34c0.41,0,0.74-0.33,0.74-0.75v-5.74       C164.24,73.93,163.9,73.6,163.49,73.6"/>
					<path style="clip-path:url(#SVGID_00000057849883023500398550000015146305844248957855_);fill:#231F20;" d="M183.53,73.6h-1.24       h-6.99V16.78V15.4v-1.32c0-0.41-0.33-0.75-0.75-0.75h-6.36c-0.41,0-0.74,0.33-0.74,0.75v1.05c-0.01,0.12-0.01,0.23,0,0.32v1.31       v57.54c0,0.01-0.01,0.02-0.01,0.03v5.74c0,0.41,0.33,0.75,0.75,0.75h15.34c0.41,0,0.74-0.33,0.74-0.75v-5.74       C184.28,73.93,183.94,73.6,183.53,73.6"/>
					<path style="clip-path:url(#SVGID_00000057849883023500398550000015146305844248957855_);fill:#231F20;" d="M38.73,3.45       c0-0.41-0.32-0.74-0.71-0.74h-8.54c-0.39,0-0.64,0.27-0.7,0.74l-0.24,1.53L23.75,30.8L19.18,4.65c0-0.01-0.01-0.03-0.01-0.04       l-0.19-1.16c-0.07-0.47-0.33-0.74-0.74-0.74H9.2c-0.41,0-0.75,0.33-0.75,0.74v1.08C8.44,4.64,8.44,4.74,8.44,4.81L8.46,86.3       v1.39c0,0.41,0.33,0.74,0.75,0.74h1.32h3.54h1.38c0.41,0,0.74-0.33,0.74-0.74v-2.69c0-0.01,0-0.01,0-0.02l-0.14-56.87       l3.54,19.19l0.39,2.21c0.1,0.48,0.39,0.79,0.8,0.79h5.73c0.46,0,0.7-0.34,0.78-0.8l0.14-0.83c0.01-0.04,0.02-0.09,0.03-0.13       l3.68-19.9l-0.14,56.34c0,0.01,0,0.01,0,0.02v2.69c0,0.41,0.33,0.74,0.75,0.74h1.36h3.56h1.34c0.41,0,0.75-0.33,0.75-0.74V86.3       v-1.3V6.15c0,0,0-0.01,0-0.01V3.45z"/>
					<path style="clip-path:url(#SVGID_00000057849883023500398550000015146305844248957855_);fill:#231F20;" d="M59.7,46.9v1.41       c0,0.41,0.33,0.75,0.74,0.75h1.17c0.06,0,0.13,0.02,0.19,0.02h3.64c0.07,0,0.13-0.01,0.19-0.02h1.16       c0.41,0,0.75-0.33,0.75-0.75v-1.4v-1.29V27.9c0,0,0,0,0-0.01v-2.69c0-0.41-0.33-0.75-0.75-0.75h-1.27H48.43h-1.34       c-0.41,0-0.75,0.33-0.75,0.75v1.3v1.39v49.48v1.19v1.5c0,0.41,0.33,0.75,0.75,0.75h1.54c0.07,0,0.12,0.02,0.19,0.02h16.38       c0.08,0,0.17-0.01,0.25-0.02h1.37c0.41,0,0.75-0.33,0.75-0.75v-2.69l0-18.49c0,0,0,0,0,0v-1.25c0-0.41-0.33-0.75-0.75-0.75       h-1.33c-0.02,0-0.03,0-0.05,0h-3.58c-0.02,0-0.03,0-0.05,0h-1.36c-0.41,0-0.74,0.33-0.74,0.75V59v14.63h-0.05       c-0.05,0.22-0.24,0.39-0.47,0.39h-4.5c-0.24,0-0.42-0.17-0.47-0.39h-0.01v-0.07c0-0.01-0.01-0.02-0.01-0.04V31.69       c0-0.27,0.22-0.5,0.5-0.5h4.5c0.27,0,0.48,0.21,0.49,0.48h0.03v13.95V46.9z"/>
					<path style="clip-path:url(#SVGID_00000057849883023500398550000015146305844248957855_);fill:#231F20;" d="M96.08,13.38h-1.26       H76.95h-1.4c-0.41,0-0.75,0.33-0.75,0.75v2.58c0,0.08,0.02,0.15,0.05,0.22v60.45v1.43v1.26c0,0.41,0.33,0.75,0.75,0.75h1.27       h3.84h1.24c0.41,0,0.74-0.33,0.74-0.75v-1.21v-1.48V58.97l12.72-7.18c0.89-0.51,1.41-1.04,1.41-2.28V16.7v-1.33v-1.26       C96.83,13.71,96.49,13.38,96.08,13.38 M88.88,20.79L88.88,20.79V46.6c0,0,0,0,0,0v0.02h0c-0.01,0.17-0.1,0.31-0.24,0.4v0.02       l-5.94,3.21V46.6V20.79v-0.19h0.04c0.08-0.18,0.25-0.3,0.46-0.3h5.19c0.2,0,0.38,0.12,0.46,0.3h0.04V20.79z"/>
					<path style="clip-path:url(#SVGID_00000057849883023500398550000015146305844248957855_);fill:#231F20;" d="M226.91,13.38       h-1.26h-17.87h-1.4c-0.41,0-0.74,0.33-0.74,0.75v2.58c0,0.08,0.02,0.15,0.05,0.22v60.45v1.43v1.26c0,0.41,0.33,0.75,0.75,0.75       h1.27h3.84h1.24c0.41,0,0.74-0.33,0.74-0.75v-1.21v-1.48V58.97l12.72-7.18c0.89-0.51,1.4-1.04,1.4-2.28V16.7v-1.33v-1.26       C227.66,13.71,227.32,13.38,226.91,13.38 M219.71,20.79L219.71,20.79V46.6c0,0,0,0,0,0v0.02h0c-0.01,0.17-0.1,0.31-0.24,0.4       v0.02l-5.94,3.21V46.6V20.79v-0.19h0.04c0.08-0.18,0.25-0.3,0.46-0.3h5.19c0.21,0,0.38,0.12,0.46,0.3h0.04V20.79z"/>
					<path style="clip-path:url(#SVGID_00000057849883023500398550000015146305844248957855_);fill:#231F20;" d="M247.28,38.19       c0,0.41,0.33,0.75,0.74,0.75h6.07c0.41,0,0.74-0.33,0.74-0.75V35.5c0-0.01,0-0.01,0-0.02V16.78V15.4v-1.3       c0-0.41-0.33-0.75-0.74-0.75h-0.96c-0.12-0.01-0.24-0.02-0.34-0.02h-17.4c-0.11,0-0.21,0.01-0.31,0.02h-1.1       c-0.41,0-0.75,0.33-0.75,0.75v1.32v1.37v22.1c0,0.83,0.36,1.48,0.73,1.86l12.94,15.29c0.03,0.04,0.06,0.1,0.07,0.13v13.95v3.33       v0.12h-0.03c-0.06,0.35-0.35,0.62-0.72,0.62h-4.44c-0.37,0-0.66-0.27-0.72-0.62h-0.02v-0.12v-3.33v-13.3v-1.33v-1.4       c0-0.41-0.33-0.75-0.75-0.75h-1.44h-3.46h-1.42c-0.41,0-0.75,0.33-0.75,0.75v1.45v1.28v20.56c0,0.01,0,0.01,0,0.02v2.69       c0,0.41,0.33,0.74,0.74,0.74h20.11c0.41,0,0.74-0.33,0.74-0.74v-1.5V77.4V54.13c-0.01-1.09-0.54-1.77-0.79-2.04L241.1,36.92       V24.2c-0.01-0.05-0.03-0.09-0.03-0.14v-3.33c0-0.05,0.02-0.1,0.03-0.14v-0.04h0.01c0.08-0.32,0.36-0.56,0.71-0.56h4.73       c0.35,0,0.63,0.24,0.71,0.56h0.03v0.17c0,0,0,0.01,0,0.01v3.33c0,0,0,0.01,0,0.01l0,12.46c0,0.06-0.01,0.15,0,0.26V38.19z"/>
					<path style="clip-path:url(#SVGID_00000057849883023500398550000015146305844248957855_);fill:#231F20;" d="M298.88,6.05V3.36       c0-0.41-0.33-0.74-0.75-0.74h-1.3h-17.4h-1.41c-0.41,0-0.75,0.33-0.75,0.74v2.69c0,0.01,0,0.01,0,0.02V37.3       c0,0.83,0.36,1.49,0.73,1.86l12.94,15.29c0.03,0.04,0.06,0.1,0.07,0.13v23.47v3.05v0.15H291c-0.07,0.34-0.36,0.59-0.71,0.59       h-4.44c-0.36,0-0.64-0.26-0.71-0.59h-0.03V81.1v-3.05V63.99v-1.34v-1.4c0-0.41-0.33-0.74-0.74-0.74h-1.44h-3.46h-1.42       c-0.41,0-0.75,0.33-0.75,0.74v1.45v1.29v21.02c0,0.01,0,0.01,0,0.02v2.69c0,0.41,0.33,0.75,0.75,0.75h1.65h16.82h1.64       c0.41,0,0.74-0.33,0.74-0.75v-1.46v-1.23V52.54c-0.01-1.09-0.53-1.77-0.79-2.04l-12.95-15.17V9.83h0.05       c0.07-0.33,0.36-0.59,0.71-0.59h4.68c0.36,0,0.64,0.26,0.71,0.59h0.03v0.14c0,0,0,0.01,0,0.01v2.64c0,0.01,0,0.01,0,0.01       l0,13.54c0,0.06-0.01,0.15,0,0.26v1.4c0,0.41,0.33,0.74,0.75,0.74h6.07c0.41,0,0.75-0.33,0.75-0.74v-2.69c0-0.01,0-0.01,0-0.02       V6.07C298.88,6.06,298.88,6.06,298.88,6.05"/>
					<g style="clip-path:url(#SVGID_00000057849883023500398550000015146305844248957855_);">
						<g>
							<defs>
								
									<rect id="SVGID_00000147202214709542424120000000472722914606353599_" x="122.28" y="116.49" width="196.01" height="20.08"/>
							</defs>
							<clipPath id="SVGID_00000142175569190360500320000012719948431485202111_">
								<use xlink:href="#SVGID_00000147202214709542424120000000472722914606353599_" style="overflow:visible;"/>
							</clipPath>
							<path style="clip-path:url(#SVGID_00000142175569190360500320000012719948431485202111_);fill:#231F20;" d="M122.28,126.53         c0-5.78,4.46-10.01,10.07-10.01c3.54,0,6.07,1.27,7.82,4l-3.08,2.19c-0.92-1.5-2.5-2.56-4.75-2.56         c-3.54,0-5.93,2.73-5.93,6.39c0,3.65,2.39,6.44,5.93,6.44c2.53,0,3.94-1.21,5.03-2.88l3.14,2.16         c-1.7,2.65-4.4,4.32-8.17,4.32C126.74,136.57,122.28,132.32,122.28,126.53"/>
							<path style="clip-path:url(#SVGID_00000142175569190360500320000012719948431485202111_);fill:#231F20;" d="M168.46,116.58         h0.35l8.95,19.74h-4.23l-0.92-2.22h-7.94l-0.92,2.22h-3.88L168.46,116.58z M171.16,130.73l-1.41-3.39         c-0.57-1.38-1.18-3.51-1.18-3.51s-0.57,2.13-1.15,3.51l-1.41,3.39H171.16z"/>
							<path style="clip-path:url(#SVGID_00000142175569190360500320000012719948431485202111_);fill:#231F20;" d="M197.2,132.46         l3.28-1.9c0.86,1.41,1.99,2.45,3.97,2.45c1.67,0,2.73-0.83,2.73-1.99c0-1.38-1.09-1.87-2.93-2.68l-1.01-0.43         c-2.9-1.24-4.83-2.79-4.83-6.07c0-3.02,2.3-5.32,5.9-5.32c2.56,0,4.4,0.89,5.73,3.22l-3.14,2.01         c-0.69-1.24-1.44-1.73-2.59-1.73c-1.18,0-1.93,0.75-1.93,1.73c0,1.21,0.75,1.7,2.48,2.45l1.01,0.43         c3.42,1.47,5.35,2.96,5.35,6.33c0,3.62-2.85,5.61-6.67,5.61C200.8,136.57,198.38,134.79,197.2,132.46"/>
							
								<rect x="233.08" y="116.75" style="clip-path:url(#SVGID_00000142175569190360500320000012719948431485202111_);fill:#231F20;" width="4.03" height="19.56"/>
							<path style="clip-path:url(#SVGID_00000142175569190360500320000012719948431485202111_);fill:#231F20;" d="M265.7,127.23         c-0.98-0.92-2.33-2.68-2.33-2.68s0.29,2.16,0.29,3.57v8.2h-3.77v-19.74h0.4l9.87,9.26c0.95,0.89,2.3,2.68,2.3,2.68         s-0.26-2.22-0.26-3.57v-8.2h3.77v19.74h-0.4L265.7,127.23z"/>
							<path style="clip-path:url(#SVGID_00000142175569190360500320000012719948431485202111_);fill:#231F20;" d="M298.04,126.53         c0-5.78,4.49-10.04,10.13-10.04s10.13,4.26,10.13,10.04c0,5.78-4.49,10.04-10.13,10.04S298.04,132.32,298.04,126.53          M314.15,126.53c0-3.65-2.42-6.44-5.98-6.44c-3.57,0-5.98,2.79-5.98,6.44c0,3.65,2.42,6.44,5.98,6.44         C311.73,132.98,314.15,130.19,314.15,126.53"/>
						</g>
					</g>
				</g>
			</g>
		</g>
	</g>
</g>
</svg>