<svg xmlns="http://www.w3.org/2000/svg" width="32" height="32" fill="none"><path fill="url(#a)" d="M16 30.179s-16.657 0-15.98-11.962c.271-4.793 3.4-8.326 6.648-10.258a18.746 18.746 0 0 1 19.15 0c3.247 1.932 5.89 5.465 6.162 10.258C32.657 30.179 16 30.179 16 30.179Z"/><path fill="url(#b)" d="M6.563 8.67c.517.212.994-1.094 2.912-1.897a6 6 0 0 1 1.096-.341c.085-.576.077-1.42-.216-2.604-.236-.956-.718-1.603-1.247-2.04a2.238 2.238 0 0 0-1.123.076c-2.482.867-2.41 6.398-1.422 6.805Z"/><path fill="url(#c)" d="M9.11 1.787c.528.438 1.01 1.085 1.247 2.04.292 1.185.3 2.029.216 2.605 1.466-.306 2.432.071 2.662-.404.418-.865-1.94-3.873-4.126-4.24Z"/><path fill="url(#d)" d="M6.563 8.67c.517.212.994-1.094 2.912-1.897a6 6 0 0 1 1.096-.341c.085-.576.077-1.42-.216-2.604-.236-.956-.718-1.603-1.247-2.04a2.238 2.238 0 0 0-1.123.076c-2.482.867-2.41 6.398-1.422 6.805Z"/><path fill="url(#e)" d="M9.11 1.787c.528.438 1.01 1.085 1.247 2.04.292 1.185.3 2.029.216 2.605 1.466-.306 2.432.071 2.662-.404.418-.865-1.94-3.873-4.126-4.24Z"/><path fill="url(#f)" d="M25.43 8.67c-.517.212-.994-1.094-2.912-1.897a6 6 0 0 0-1.096-.341c-.085-.576-.077-1.42.215-2.604.237-.956.72-1.603 1.248-2.04a2.238 2.238 0 0 1 1.123.076c2.482.867 2.41 6.398 1.422 6.805Z"/><path fill="url(#g)" d="M22.892 1.787c-.528.438-1.011 1.085-1.247 2.04-.293 1.185-.3 2.029-.216 2.605-1.466-.306-2.432.071-2.662-.404-.418-.865 1.94-3.873 4.125-4.24Z"/><path fill="url(#h)" d="M28.834 10.455c-1.04 2.444-4.354 8.106-12.837 8.371-9.132.286-11.745-6.405-12.34-8.514A14.834 14.834 0 0 1 5.39 8.807c1.392.477 4.663 1.284 10.843 1.284 5.562 0 8.917-.83 10.627-1.438.706.52 1.371 1.122 1.973 1.802Z"/><path fill="url(#i)" d="M11.3 16.625a4.706 4.706 0 1 0 0-9.412 4.706 4.706 0 0 0 0 9.412Z"/><path fill="url(#j)" d="M21.08 16.357a4.706 4.706 0 1 0 0-9.411 4.706 4.706 0 0 0 0 9.411Z"/><path fill="url(#k)" d="M11.64 14.73a2.812 2.812 0 1 0 0-5.623 2.812 2.812 0 0 0 0 5.624Z"/><path fill="url(#l)" d="M20.233 14.73a2.812 2.812 0 1 0 0-5.623 2.812 2.812 0 0 0 0 5.624Z"/><path fill="#fff" d="M20.909 11.208a.643.643 0 1 0 0-1.286.643.643 0 0 0 0 1.286ZM12.659 11.208a.643.643 0 1 0 0-1.286.643.643 0 0 0 0 1.286Z"/><path fill="url(#m)" d="M17.097 14.35a4.248 4.248 0 0 0-.785-.113c.273.007.536.044.785.113Z"/><path fill="url(#n)" d="M16.316 14.237a4.124 4.124 0 0 0-1.175.15c.366-.12.764-.168 1.175-.15Z"/><path fill="url(#o)" d="M16.01 28.576C1.42 28.576 1.673 16.714 4.67 14.73c2.866-1.897 5.654 1.32 6.974 2.91 1.32 1.591 4.367 1.76 4.367 1.76s3.047-.168 4.368-1.76c1.32-1.59 4.288-4.807 6.974-2.91 2.936 2.074 4.097 13.846-11.341 13.846Z"/><mask id="p" width="27" height="15" x="3" y="14" maskUnits="userSpaceOnUse" style="mask-type:luminance"><path fill="#fff" d="M16.01 28.576C1.42 28.576 1.673 16.714 4.67 14.73c2.866-1.897 5.654 1.32 6.974 2.91 1.32 1.591 4.367 1.76 4.367 1.76s3.047-.168 4.368-1.76c1.32-1.59 4.288-4.807 6.974-2.91 2.936 2.074 4.097 13.846-11.341 13.846Z"/></mask><g fill="#5C4481" fill-rule="evenodd" clip-rule="evenodd" mask="url(#p)"><path d="m1.766 20.158 8.057-5.686.364.516-8.057 5.686-.364-.516ZM4.016 25.215l8.208-9.07.468.423-8.208 9.07-.468-.423ZM9.703 28.478l3.539-11.002.6.193-3.538 11.003-.6-.194ZM30.276 20.674l-8.057-5.686.364-.516 8.058 5.686-.365.516ZM27.927 25.638l-8.208-9.07.468-.424 8.208 9.07-.468.424ZM22.1 28.672l-3.538-11.003.602-.193 3.538 11.002-.601.194ZM15.922 29.692V18.825h.631v10.867h-.631Z" opacity=".15"/></g><path fill="#9D08A5" fill-rule="evenodd" d="M23.493 15.113c-1.202.74-2.25 1.912-2.908 2.704-.717.865-1.88 1.323-2.821 1.568a10.336 10.336 0 0 1-1.732.292h-.011l-.015-.276-.016.276h-.011a2.259 2.259 0 0 1-.132-.01 10.336 10.336 0 0 1-1.6-.281c-.941-.246-2.104-.704-2.821-1.569-.662-.797-1.664-1.966-2.842-2.705-1.168-.733-2.458-1.018-3.768-.15l-.152-.231.152.23c-.656.434-1.212 1.457-1.423 2.813-.21 1.342-.072 2.957.6 4.514 1.332 3.09 4.8 6.012 12.013 6.012 7.645 0 11.086-2.906 12.304-5.97a8.039 8.039 0 0 0 .404-4.507c-.274-1.36-.873-2.405-1.526-2.867-1.214-.857-2.498-.581-3.695.157ZM16.006 19.4l-.016.276.016.001h.015l-.015-.277Zm0-.276-.015-.001a8.378 8.378 0 0 1-.446-.047 9.798 9.798 0 0 1-1.158-.226c-.912-.238-1.933-.66-2.536-1.387-.659-.793-1.711-2.028-2.973-2.82-1.273-.799-2.81-1.174-4.367-.144-.842.558-1.442 1.762-1.664 3.188-.225 1.44-.076 3.162.638 4.819 1.44 3.337 5.141 6.345 12.52 6.345 7.794 0 11.491-2.98 12.818-6.319a8.591 8.591 0 0 0 .432-4.819c-.287-1.43-.934-2.633-1.748-3.209l-.16.226.16-.226c-1.473-1.04-3.016-.656-4.304.137-1.284.792-2.38 2.024-3.043 2.822-.603.727-1.624 1.15-2.536 1.387a9.798 9.798 0 0 1-1.604.273h-.014Z" clip-rule="evenodd"/><path fill="url(#q)" d="M20.223 21.768c-1.071.749-2.624.645-4.01-.133-1.766 1.018-3.722.868-4.657-.47-1.08-1.547-.385-4.099 1.555-5.7a5.48 5.48 0 0 1 2.035-1.078 4.12 4.12 0 0 1 1.175-.15h.003c.257.012.52.05.785.113 1.08.256 2.18.931 3.018 1.948 1.6 1.94 1.643 4.389.096 5.47Z"/><path fill="#B3064E" d="M14.621 19.977c.42 0 .762-.498.762-1.112 0-.614-.341-1.112-.762-1.112-.42 0-.762.498-.762 1.112 0 .614.341 1.112.762 1.112ZM17.871 19.977c.42 0 .762-.498.762-1.112 0-.614-.341-1.112-.762-1.112-.42 0-.762.498-.762 1.112 0 .614.341 1.112.762 1.112Z"/><defs><linearGradient id="a" x1="16" x2="16" y1="4.776" y2="30.106" gradientUnits="userSpaceOnUse"><stop stop-color="#EEA1AB"/><stop offset=".112" stop-color="#FFE5E2"/><stop offset=".575" stop-color="#EF838B"/><stop offset="1" stop-color="#C7453E"/></linearGradient><linearGradient id="b" x1="3.083" x2="10.802" y1="9.791" y2="2.614" gradientUnits="userSpaceOnUse"><stop stop-color="#EEA1AB"/><stop offset=".112" stop-color="#FFE5E2"/><stop offset=".575" stop-color="#EF838B"/><stop offset="1" stop-color="#C7453E"/></linearGradient><linearGradient id="c" x1="8.891" x2="12.514" y1="4.595" y2="3.613" gradientUnits="userSpaceOnUse"><stop stop-color="#EEA1AB"/><stop offset=".112" stop-color="#FFE5E2"/><stop offset=".575" stop-color="#EF838B"/><stop offset="1" stop-color="#C7453E"/></linearGradient><linearGradient id="d" x1="3.083" x2="10.802" y1="9.791" y2="2.614" gradientUnits="userSpaceOnUse"><stop stop-color="#EEA1AB"/><stop offset=".112" stop-color="#FFE5E2"/><stop offset=".575" stop-color="#EF838B"/><stop offset="1" stop-color="#C7453E"/></linearGradient><linearGradient id="e" x1="8.891" x2="12.514" y1="4.595" y2="3.613" gradientUnits="userSpaceOnUse"><stop stop-color="#EEA1AB"/><stop offset=".112" stop-color="#FFE5E2"/><stop offset=".575" stop-color="#EF838B"/><stop offset="1" stop-color="#C7453E"/></linearGradient><linearGradient id="f" x1="28.91" x2="21.191" y1="9.791" y2="2.614" gradientUnits="userSpaceOnUse"><stop stop-color="#EEA1AB"/><stop offset=".112" stop-color="#FFE5E2"/><stop offset=".575" stop-color="#EF838B"/><stop offset="1" stop-color="#C7453E"/></linearGradient><linearGradient id="g" x1="23.111" x2="19.488" y1="4.595" y2="3.613" gradientUnits="userSpaceOnUse"><stop stop-color="#EEA1AB"/><stop offset=".112" stop-color="#FFE5E2"/><stop offset=".575" stop-color="#EF838B"/><stop offset="1" stop-color="#C7453E"/></linearGradient><linearGradient id="h" x1="3.628" x2="28.806" y1="13.744" y2="13.744" gradientUnits="userSpaceOnUse"><stop stop-color="#04AEFE"/><stop offset=".215" stop-color="#190F86"/><stop offset=".436" stop-color="#0A04F9"/><stop offset=".606" stop-color="#0A04F9"/><stop offset=".809" stop-color="#0A04F9"/><stop offset="1" stop-color="#04AEFE"/></linearGradient><linearGradient id="i" x1="11.3" x2="11.3" y1="7.236" y2="16.408" gradientUnits="userSpaceOnUse"><stop stop-color="#FFF8FD"/><stop offset="1" stop-color="#E4C3E7"/></linearGradient><linearGradient id="j" x1="16.375" x2="25.787" y1="11.652" y2="11.652" gradientUnits="userSpaceOnUse"><stop stop-color="#FFF8FD"/><stop offset="1" stop-color="#E4C3E7"/></linearGradient><linearGradient id="k" x1="11.64" x2="11.64" y1="14.864" y2="9.357" gradientUnits="userSpaceOnUse"><stop stop-color="#005BFF"/><stop offset=".059" stop-color="#014EDB"/><stop offset=".15" stop-color="#033EAB"/><stop offset=".246" stop-color="#042F81"/><stop offset=".347" stop-color="#06235D"/><stop offset=".451" stop-color="#071940"/><stop offset=".562" stop-color="#071129"/><stop offset=".682" stop-color="#080C19"/><stop offset=".817" stop-color="#08090F"/><stop offset="1" stop-color="#09080D"/></linearGradient><linearGradient id="l" x1="20.233" x2="20.233" y1="14.774" y2="9.217" gradientUnits="userSpaceOnUse"><stop stop-color="#005BFF"/><stop offset=".059" stop-color="#014EDB"/><stop offset=".15" stop-color="#033EAB"/><stop offset=".246" stop-color="#042F81"/><stop offset=".347" stop-color="#06235D"/><stop offset=".451" stop-color="#071940"/><stop offset=".562" stop-color="#071129"/><stop offset=".682" stop-color="#080C19"/><stop offset=".817" stop-color="#08090F"/><stop offset="1" stop-color="#09080D"/></linearGradient><linearGradient id="o" x1="16.09" x2="16.09" y1="16.625" y2="28.273" gradientUnits="userSpaceOnUse"><stop stop-color="#FFF8FD"/><stop offset="1" stop-color="#E4C3E7"/></linearGradient><linearGradient id="q" x1="16.201" x2="16.201" y1="13.782" y2="18.96" gradientUnits="userSpaceOnUse"><stop stop-color="#FF4185"/><stop offset="1" stop-color="#FF83BB"/></linearGradient><radialGradient id="m" cx="0" cy="0" r="1" gradientTransform="matrix(.28023 0 0 .28024 16.705 14.293)" gradientUnits="userSpaceOnUse"><stop stop-color="#FFFF2C"/><stop offset="1" stop-color="#EBA706"/></radialGradient><radialGradient id="n" cx="0" cy="0" r="1" gradientTransform="matrix(.41907 0 0 .41907 15.728 14.31)" gradientUnits="userSpaceOnUse"><stop stop-color="#FFFF2C"/><stop offset="1" stop-color="#EBA706"/></radialGradient></defs></svg>