<svg width="182" height="32" viewBox="0 0 182 32" fill="none" xmlns="http://www.w3.org/2000/svg">
<path d="M4.86175 13.2939C5.41595 11.8143 6.28722 10.5342 7.52937 9.50139C9.54698 7.82398 12.5815 7.08658 15.1448 7.81998C15.9298 8.04013 16.6901 8.33091 17.405 8.73919C17.4416 8.76007 17.4777 8.78196 17.5137 8.80385C17.5586 8.83109 17.6035 8.85833 17.6495 8.88368C17.7244 8.92512 17.7154 8.95921 17.6669 9.02196C17.4074 9.35819 17.1478 9.69481 16.9032 10.042C16.8348 10.1387 16.785 10.1092 16.726 10.0743C16.7147 10.0676 16.703 10.0607 16.6907 10.0544C15.5298 9.4593 14.3068 9.10641 13.0159 9.11196C10.0677 9.12449 7.87073 10.445 6.393 12.9703C5.86346 13.8751 5.52581 14.8563 5.39678 15.91C5.37966 16.0493 5.33112 16.0796 5.19953 16.0785C4.27472 16.1262 4.47913 14.3154 4.86175 13.2939Z" fill="url(#paint0_linear_602_6026)"/>
<path d="M16.231 11.149C13.0688 12.9887 9.92266 14.8187 6.77263 16.6509C6.66788 15.0137 7.48563 12.2843 9.80934 10.9079C11.9516 9.63893 14.5353 9.9492 16.231 11.149Z" fill="url(#paint1_linear_602_6026)"/>
<path d="M19.5029 20.7263C19.6058 20.7978 19.7088 20.8694 19.8131 20.9392C19.8159 20.9317 19.8187 20.9253 19.821 20.92C19.8254 20.9103 19.8284 20.9038 19.8273 20.8978C19.8152 20.8203 19.8034 20.7428 19.7915 20.6652C19.7558 20.4324 19.7202 20.1995 19.6794 19.9676C19.326 17.9507 18.997 15.9308 18.9398 13.877C18.9094 12.7867 18.9484 11.699 19.0454 10.6131C19.0677 10.3621 19.0933 10.1114 19.119 9.86029C19.1304 9.74965 19.1417 9.63891 19.1528 9.528C19.148 9.528 19.1437 9.52758 19.1402 9.52723C19.1346 9.52667 19.1307 9.52629 19.1293 9.52812C19.1119 9.54708 19.0946 9.56603 19.0773 9.58497C18.9743 9.69763 18.8714 9.81014 18.7695 9.92388C18.0127 10.7701 17.1662 11.5131 16.2106 12.1184C14.8541 12.978 13.4635 13.7787 12.0729 14.5796C11.3939 14.9705 10.715 15.3615 10.04 15.7594C9.00414 16.37 7.96333 16.9727 6.92277 17.5749C6.83399 17.6263 6.79924 17.6858 6.79579 17.7855C6.65385 20.1497 10.281 23.5595 10.0695 18.7206C10.0696 18.6652 10.0695 18.6099 10.0695 18.5441C10.0695 18.5069 10.0695 18.4663 10.0695 18.4205C10.1523 18.4865 10.2312 18.5501 10.3078 18.6118C10.4884 18.7575 10.6556 18.8923 10.8277 19.0202C10.9441 19.1068 10.9795 19.2071 10.9786 19.3477C10.976 19.7593 10.9754 20.1709 10.9749 20.5824C10.9741 21.1144 10.9734 21.6464 10.9683 22.1782C10.9668 22.3512 11.0136 22.4657 11.1531 22.5725C12.2661 23.4248 13.3604 24.1539 14.455 24.8831C15.5387 25.6052 16.6227 26.3274 17.7256 27.1696C17.5006 25.3765 17.2497 23.7554 16.9932 22.0983C16.8244 21.0077 16.6532 19.9016 16.4854 18.7205C16.4713 18.6204 16.4333 18.5587 16.3279 18.536C16.1762 18.5036 16.0262 18.4607 15.877 18.4172C15.0406 18.1747 14.2548 17.8343 13.6256 17.2014C13.2481 16.8215 12.9715 16.3737 12.7566 15.8797C12.7657 15.8774 12.773 15.8751 12.7791 15.8731C12.7895 15.8698 12.7963 15.8677 12.8025 15.8686C13.055 15.9056 13.3076 15.9423 13.5601 15.979C14.2139 16.074 14.8678 16.169 15.5207 16.2704C15.6439 16.2896 15.7675 16.3064 15.8913 16.3233C16.252 16.3724 16.613 16.4216 16.962 16.5292C17.5431 16.7083 17.912 17.0875 18.006 17.7128C18.0352 17.9072 18.068 18.1012 18.1009 18.2952C18.1664 18.6825 18.2319 19.0696 18.2682 19.4594C18.3036 19.8409 18.4597 20.0765 18.7835 20.2589C19.0317 20.3989 19.2669 20.5623 19.5029 20.7263Z" fill="url(#paint2_linear_602_6026)"/>
<path d="M33.0859 23.2239H39.6629L39.1843 22.6823C38.3102 21.6825 38.0395 20.9745 38.0395 19.704V11.352H40.6415C42.7434 11.352 43.9714 12.1435 43.9714 13.4764C43.9714 14.8718 42.6394 15.5803 40.0584 15.5803H38.7474L41.6195 20.6828C42.7017 22.599 44.2002 23.432 46.2399 23.432C47.5722 23.432 48.5504 23.078 49.1538 22.5159C47.5927 22.5159 45.8653 21.3495 44.8663 19.6209L43.7216 17.6419C46.1982 16.9962 47.4056 15.6425 47.4056 13.4554C47.4056 10.3523 45.0121 8.64456 40.6415 8.64456H33.0859L33.5649 9.18582C34.439 10.1855 34.7096 10.8939 34.7096 12.1644V19.704C34.7096 20.9745 34.439 21.6825 33.5649 22.6822L33.0859 23.2239V23.2239ZM56.3103 8.26929C51.6273 8.26929 48.2974 11.456 48.2974 15.9551C48.2974 20.4538 51.6273 23.6406 56.3103 23.6406C61.0142 23.6406 64.3441 20.4538 64.3441 15.9551C64.3441 11.456 61.0142 8.26929 56.3103 8.26929ZM56.3103 20.9328C53.6253 20.9328 51.7313 18.8707 51.7313 15.9551C51.7313 13.0392 53.6253 10.9771 56.3103 10.9771C58.9954 10.9771 60.9102 13.0392 60.9102 15.9551C60.9102 18.8707 58.9954 20.9328 56.3103 20.9328ZM64.1951 23.2239H70.1478L69.6692 22.6823C68.795 21.6825 68.5244 20.9745 68.5244 19.704V12.5393L73.0826 21.5993L77.6408 12.5393V19.704C77.6408 20.9745 77.3702 21.6825 76.496 22.6823L76.0174 23.2239H82.5944L82.1154 22.6823C81.2413 21.6825 80.9707 20.9745 80.9707 19.704V12.1645C80.9707 10.8939 81.2413 10.1855 82.1154 9.18586L82.5944 8.6446H76.6831L73.4364 15.1218L70.1687 8.6446H64.1952L64.6742 9.18586C65.5483 10.1856 65.8189 10.8939 65.8189 12.1645V19.704C65.8189 20.9745 65.5483 21.6825 64.6742 22.6823L64.1952 23.2239H64.1951ZM96.1821 9.06087C94.7667 8.68596 93.3304 8.49874 91.8319 8.49874C86.6703 8.49874 83.4235 12.1645 83.4235 18.0168C83.4235 19.6831 83.6733 21.6412 84.0892 23.2239H88.9389C87.8981 22.2659 87.0867 20.4956 86.8369 18.6416H92.8518V19.7041C92.8518 20.9746 92.5812 21.6826 91.7071 22.6823L91.2284 23.224H97.8054L97.3265 22.6823C96.4524 21.6826 96.1821 20.9746 96.1821 19.7041V9.06092L96.1821 9.06087ZM86.8574 15.9342C87.3155 13.0392 89.2095 11.2897 91.9359 11.2897C92.2274 11.2897 92.5394 11.3102 92.8518 11.352V15.9343H86.8574L86.8574 15.9342ZM97.6564 23.2239H103.609L103.131 22.6822C102.256 21.6825 101.986 20.9745 101.986 19.704V12.8306L108.105 23.2239H113.704L113.225 22.6822C112.351 21.6825 112.08 20.9745 112.08 19.704V12.1644C112.08 10.8939 112.351 10.1855 113.225 9.18582L113.704 8.64456H107.751L108.23 9.18582C109.104 10.1855 109.375 10.8939 109.375 12.1644V18.7875L103.401 8.64456H97.6564L98.1354 9.18582C99.0096 10.1855 99.2802 10.8939 99.2802 12.1644V19.704C99.2802 20.9745 99.0096 21.6825 98.1354 22.6822L97.6564 23.2239H97.6564Z" fill="url(#paint3_linear_602_6026)"/>
<path d="M29.2109 17.6644C29.1076 18.756 28.8915 19.8113 28.577 20.8189C28.0321 22.5656 27.1856 24.1659 26.1073 25.5651C24.763 27.3083 23.0539 28.7392 21.1113 29.7539C19.5537 30.5668 17.8463 31.1083 16.0514 31.3289C14.9883 31.461 13.8965 31.4784 12.7872 31.3716C11.6852 31.2654 10.6226 31.0416 9.61116 30.7144C7.89697 30.1603 6.32637 29.3075 4.95276 28.2202C4.27426 27.6848 3.64367 27.0919 3.06737 26.4503C3.35034 25.0407 3.60381 23.3931 3.7497 21.827C3.90339 20.6918 3.9702 19.5367 3.89087 18.3733C4.20323 18.2958 4.74835 18.1945 5.27163 18.0957C6.10446 21.8831 9.26891 24.8699 13.2956 25.258L17.7235 27.17L18.2453 24.321C20.9471 22.946 22.9124 20.2408 23.2205 16.9735C23.5251 13.7461 22.1411 10.7491 19.7993 8.87701C19.9168 8.76894 20.0346 8.66306 20.1525 8.5595C21.8408 7.49904 23.6158 6.73219 25.5548 6.19957C26.334 7.10135 27.0084 8.09467 27.5611 9.15901C28.3777 10.7298 28.928 12.4579 29.1572 14.2733C29.297 15.3771 29.3196 16.5111 29.2109 17.6644Z" fill="#C80630"/>
<path d="M0 25.6538C1.49114 17.6385 -3.76247 7.57626 7.18039 1.80883C9.86437 0.50988 12.9259 0.199216 15.8883 0.685226C18.6717 1.1418 21.3682 2.30169 23.5842 4.00569C23.6642 4.06715 23.7413 4.13274 23.8192 4.19743C23.834 4.20983 23.8443 4.22765 23.8674 4.25618C23.3136 4.47285 22.7791 4.71417 22.2668 5.00405C20.9589 5.74365 19.836 6.7047 18.89 7.87517C18.7973 7.98983 18.751 7.92011 18.685 7.87569C17.3045 6.95157 15.5246 6.26633 13.8723 6.10726C11.9912 5.96174 10.2041 6.29125 8.52896 7.14629C5.35799 8.76456 3.94631 11.1876 3.12434 14.5158C2.7881 15.8774 2.57615 17.2972 2.50103 17.9406C2.18829 20.622 1.76888 23.65 0.0797181 25.5779C0.0629824 25.5967 0.043053 25.6128 0 25.6538Z" fill="#C80630"/>
<path fill-rule="evenodd" clip-rule="evenodd" d="M119.488 8.54702H177.584C180.013 8.54702 182 10.5356 182 12.9661V18.9431C182 21.3736 180.013 23.3622 177.584 23.3622H119.488C117.059 23.3622 115.072 21.3736 115.072 18.9431V12.9661C115.072 10.5356 117.059 8.54702 119.488 8.54702Z" fill="#C90630"/>
<path d="M16.0466 31.3288C14.9835 31.4609 13.8918 31.4783 12.7825 31.3716C11.6805 31.2653 10.6178 31.0415 9.60639 30.7143L10.8335 26.787C11.577 27.029 12.3581 27.1939 13.1693 27.2721C13.9724 27.3495 14.7623 27.338 15.5311 27.2445L16.0466 31.3288Z" fill="#F1F2F2"/>
<path d="M29.2059 17.6642C29.1026 18.7558 28.8865 19.8111 28.572 20.8186L24.6862 19.578C24.9167 18.8418 25.0746 18.0711 25.1498 17.2732C25.2294 16.4297 25.2128 15.6005 25.1111 14.7937L29.1522 14.2731C29.292 15.3768 29.3146 16.5109 29.2059 17.6642Z" fill="#F1F2F2"/>
<path d="M26.1027 25.5647C24.7584 27.3079 23.0493 28.7388 21.1067 29.7535L19.2259 26.1005C20.6474 25.3625 21.8959 24.3174 22.8782 23.0462L26.1027 25.5647Z" fill="#F1F2F2"/>
<path d="M27.5564 9.15904L23.9421 11.058C23.3049 9.83098 22.4444 8.73629 21.411 7.82884C22.7196 7.13559 24.0882 6.60077 25.5501 6.19946C26.3293 7.10124 27.0037 8.09469 27.5564 9.15904Z" fill="#F1F2F2"/>
<path d="M7.43781 24.9628L4.94789 28.2201C4.26939 27.6848 3.6388 27.0919 3.0625 26.4503C3.34547 25.0402 3.59919 23.3921 3.74496 21.8253L3.76655 21.6612L4.44441 21.3046C5.17133 22.7263 6.19502 23.9776 7.43781 24.9628Z" fill="#F1F2F2"/>
<path d="M117.809 15.9538C117.809 19.2731 120.006 21.5606 123.621 21.5606C125.085 21.5606 126.55 21.187 127.715 20.4842L126.49 17.3445C126.251 18.6901 125.085 19.6171 123.621 19.6171C121.709 19.6171 120.275 18.0472 120.275 15.9538C120.275 13.8608 121.709 12.2908 123.621 12.2908C125.085 12.2908 126.251 13.2179 126.49 14.5635L127.715 11.4238C126.55 10.721 125.085 10.3474 123.621 10.3474C120.006 10.3474 117.809 12.6348 117.809 15.9538ZM137.924 11.02C136.908 10.7507 135.877 10.6165 134.801 10.6165C131.096 10.6165 128.765 13.2475 128.765 17.449C128.765 18.6452 128.945 20.0507 129.244 21.187H132.725C131.978 20.499 131.395 19.2282 131.216 17.8978H135.533V18.6604C135.533 19.5721 135.339 20.0804 134.712 20.7984L134.368 21.187H139.089L138.746 20.7984C138.118 20.0804 137.924 19.5721 137.924 18.6604V11.02ZM131.231 15.9538C131.559 13.8756 132.919 12.62 134.876 12.62C135.085 12.62 135.309 12.6348 135.533 12.6646V15.9538H131.231ZM142.321 13.3227C142.321 12.7992 143.053 12.4403 144.263 12.4403C145.474 12.4403 146.729 12.7992 147.849 13.5019L148.851 11.1694C146.908 10.676 145.728 10.4967 144.533 10.4967C141.544 10.4967 139.871 11.6182 139.871 13.4722C139.871 17.2098 146.609 16.4174 146.609 18.4357C146.609 19.0637 145.967 19.4676 144.906 19.4676C143.173 19.4676 141.694 18.406 141.544 17.0455L139.871 20.0358C141.156 20.843 143.158 21.4111 144.876 21.4111C147.446 21.4111 149.059 20.1402 149.059 18.1516C149.059 14.0997 142.321 14.8926 142.321 13.3227ZM150.05 21.187H154.771L154.428 20.7984C153.8 20.0804 153.606 19.5721 153.606 18.6604V13.2476C153.606 12.3359 153.8 11.8276 154.428 11.1096L154.771 10.721H150.05L150.394 11.1096C151.021 11.8276 151.216 12.3359 151.216 13.2476V18.6604C151.216 19.5721 151.021 20.0804 150.394 20.7984L150.05 21.187ZM155.807 21.187H160.08L159.736 20.7984C159.109 20.0804 158.914 19.5721 158.914 18.6604V13.7261L163.307 21.187H167.326L166.982 20.7984C166.355 20.0804 166.161 19.5721 166.161 18.6604V13.2476C166.161 12.3359 166.355 11.8276 166.982 11.1096L167.326 10.721H163.053L163.397 11.1096C164.024 11.8276 164.219 12.3359 164.219 13.2476V18.0023L159.93 10.721H155.807L156.15 11.1096C156.778 11.8276 156.972 12.336 156.972 13.2476V18.6604C156.972 19.5722 156.778 20.0804 156.15 20.7984L155.807 21.187ZM173.815 10.4518C170.453 10.4518 168.062 12.7393 168.062 15.9691C168.062 19.1984 170.453 21.4859 173.815 21.4859C177.192 21.4859 179.582 19.1984 179.582 15.9691C179.582 12.7393 177.192 10.4518 173.815 10.4518ZM173.815 19.5424C171.887 19.5424 170.528 18.0621 170.528 15.9691C170.528 13.8757 171.887 12.3958 173.815 12.3958C175.742 12.3958 177.117 13.8757 177.117 15.9691C177.117 18.0621 175.742 19.5424 173.815 19.5424Z" fill="#FEFEFE"/>
<defs>
<linearGradient id="paint0_linear_602_6026" x1="8.1626" y1="29.1689" x2="8.1626" y2="6.38242" gradientUnits="userSpaceOnUse">
<stop stop-color="#DF8214"/>
<stop offset="0.344738" stop-color="#FFCE7B"/>
<stop offset="0.735" stop-color="#F3B025"/>
<stop offset="0.878788" stop-color="#FFDF8F"/>
<stop offset="1" stop-color="#FECA30"/>
</linearGradient>
<linearGradient id="paint1_linear_602_6026" x1="8.1626" y1="29.1689" x2="8.1626" y2="6.38242" gradientUnits="userSpaceOnUse">
<stop stop-color="#DF8214"/>
<stop offset="0.344738" stop-color="#FFCE7B"/>
<stop offset="0.735" stop-color="#F3B025"/>
<stop offset="0.878788" stop-color="#FFDF8F"/>
<stop offset="1" stop-color="#FECA30"/>
</linearGradient>
<linearGradient id="paint2_linear_602_6026" x1="8.1626" y1="29.1689" x2="8.1626" y2="6.38242" gradientUnits="userSpaceOnUse">
<stop stop-color="#DF8214"/>
<stop offset="0.344738" stop-color="#FFCE7B"/>
<stop offset="0.735" stop-color="#F3B025"/>
<stop offset="0.878788" stop-color="#FFDF8F"/>
<stop offset="1" stop-color="#FECA30"/>
</linearGradient>
<linearGradient id="paint3_linear_602_6026" x1="52.1932" y1="25.2059" x2="52.1932" y2="7.36542" gradientUnits="userSpaceOnUse">
<stop stop-color="#DF8214"/>
<stop offset="0.344738" stop-color="#FFCE7B"/>
<stop offset="0.735" stop-color="#F3B025"/>
<stop offset="0.878788" stop-color="#FFDF8F"/>
<stop offset="1" stop-color="#FECA30"/>
</linearGradient>
</defs>
</svg>
