<svg width="113" height="33" viewBox="0 0 113 33" fill="none" xmlns="http://www.w3.org/2000/svg">
<path d="M110.844 16.7815C111.719 15.3 112.919 12.7074 111.481 10.8704V10.8556C111.407 10.7667 111.333 10.6778 111.244 10.5889C109.881 9.24074 107.719 9.34444 104.8 10.9148C103.511 10.4111 102.133 10.1444 100.741 10.1444C97.5704 10.1444 94.7111 11.4926 92.7111 13.6556H91.6741C91.6296 13.537 91.5852 13.4185 91.5259 13.3148C91.0222 12.3519 90.0444 11.7444 88.9481 11.7444H85.2296C84.2963 11.7444 83.4074 12.2037 82.8593 12.9741L82.4296 13.5815L82.0592 13.0333C81.5259 12.2333 80.6222 11.7593 79.6593 11.7593H75.9704C74.8889 11.7593 73.8963 12.3519 73.3926 13.3148C73.3333 13.4333 73.2741 13.5519 73.2444 13.6704H72.5185C71.5704 12.8407 70.4889 12.2185 69.3037 11.8333C70.5185 11.463 71.7481 10.8704 73.0518 9.96667C73.7037 9.50741 74.1185 8.76667 74.1481 7.96667C74.1778 7.16667 73.8222 6.3963 73.2 5.89259L73.1555 5.86296C70 3.27037 66.9481 3.27037 63.7185 3.27037H63.5407L63.0667 3.03333C62.2667 2.63333 61.3185 2.63333 60.5185 3.03333L59.5259 3.53704C59.0222 3.78889 58.637 4.18889 58.3852 4.66296C58.237 4.63333 58.0889 4.61852 57.9407 4.61852C57.2889 4.61852 56.6815 4.85556 56.1926 5.24074C55.9111 3.22593 54.1481 1.7 52.0741 1.7C50.2222 1.7 48.6222 2.91481 48.0889 4.6037C47.2444 3.77407 46.0741 3.27037 44.8 3.27037C43.7037 3.27037 42.6667 3.65556 41.8518 4.30741C41.363 3.56667 40.5037 3.10741 39.5852 3.10741C38.8741 3.10741 38.2074 3.38889 37.7037 3.84815C36.9037 1.86296 34.8889 0.5 32.6222 0.5C30.1185 0.5 27.9259 2.15926 27.3185 4.5C26.4889 3.72963 25.363 3.27037 24.1481 3.27037C23.0815 3.27037 22.0741 3.64074 21.2741 4.24815C21.0074 3.87778 20.6518 3.58148 20.2519 3.37407C19.9259 2.12963 18.8 1.1963 17.4519 1.1963H9.54074C3.92593 1.1963 0 5.16667 0 10.8556C0 18.1296 6.1037 20.0259 9.73333 21.1519C9.83704 21.1815 9.95555 21.2259 10.0593 21.2556V22.1148H3.28889C2.42963 22.1148 1.64444 22.5889 1.18519 23.4037C1.00741 23.7296 0.874074 24.1 0.77037 24.5593C0.607407 25.3148 0.577778 26.1444 0.577778 26.7222C0.577778 27.537 0.651852 28.3222 0.77037 28.9444C1.24444 31.1963 2.68148 31.4333 3.27407 31.4333C4.22222 31.4333 5.76296 31.4333 7.33333 31.4481C9.02222 31.463 10.7704 31.463 11.9259 31.463C14.8 31.463 17.2741 30.6185 19.0815 29.0333C19.3926 28.7667 19.6741 28.4704 19.9259 28.1741C19.9556 29.7444 21.2444 31.0185 22.8296 31.0185H26.237C27.837 31.0185 29.1407 29.7148 29.1407 28.1148V27.6556H29.3333C29.5852 27.9667 29.8519 28.263 30.1333 28.5444C32.1037 30.4704 34.5185 31.4333 37.3037 31.4333C40.1185 31.4333 42.5333 30.4556 44.4889 28.5296C44.7704 28.2481 45.037 27.9519 45.2889 27.6556H46.2518C46.6815 28.5 47.2444 29.2111 47.9704 29.7593L48 29.7889C49.2593 30.7074 50.9778 31.1667 53.2444 31.1667C53.8222 31.1667 54.4296 31.137 55.0815 31.0778C56.5778 30.9444 57.7037 29.7 57.7037 28.2037V27.6556H57.9704C58.2222 27.9815 58.5037 28.2926 58.8148 28.5889L58.8296 28.6037C60.7704 30.4704 63.3333 31.4185 66.4444 31.4185C69.0815 31.4185 71.3037 30.7222 73.0518 29.3444C73.0667 29.3741 73.0815 29.4037 73.0963 29.4333C73.6 30.3963 74.5778 31.0037 75.6741 31.0037H79.363C80.2963 31.0037 81.1852 30.5444 81.7333 29.7741L82.4 28.8259L83.0815 29.7741C83.6296 30.5444 84.5037 31.0037 85.4518 31.0037H89.1704C89.3778 31.0037 89.5704 30.9889 89.7778 30.9444L89.7926 30.9741L90.1481 31.463L90.2518 31.5667C90.637 31.9519 91.3926 32.4852 92.6074 32.4852C92.9778 32.4852 93.4074 32.4407 93.8815 32.3074C94.6222 32.1148 95.437 31.7593 96.3555 31.2259L97.9111 31.6407C98.8296 31.8926 99.7926 32.0111 100.756 32.0111C106.8 32.0111 111.719 27.0926 111.719 21.0481C111.719 19.8481 111.526 18.6778 111.156 17.5519L110.844 16.7815Z" fill="#173A4B"/>
<mask id="path-2-inside-1_19449_18212" fill="white">
<path fill-rule="evenodd" clip-rule="evenodd" d="M26.2518 9.15181H22.8444C22.3999 9.15181 22.0444 9.50737 22.0444 9.95181V28.1296C22.0444 28.574 22.3999 28.9296 22.8444 28.9296H26.2518C26.6962 28.9296 27.0518 28.574 27.0518 28.1296V9.95181C27.0518 9.50737 26.6814 9.15181 26.2518 9.15181Z"/>
<path fill-rule="evenodd" clip-rule="evenodd" d="M54.7851 13.8333H52.4444V9.95181C52.4444 9.50737 52.0888 9.15181 51.6444 9.15181H48.237C47.7925 9.15181 47.437 9.50737 47.437 9.95181V23.137C47.437 25.537 48.0444 27.1963 49.2444 28.1148C50.3703 28.9444 52.2518 29.2407 54.874 29.0037C55.274 28.974 55.5851 28.6185 55.5851 28.2185V25.2407C55.5851 24.7814 55.1999 24.4259 54.7407 24.4259C54.0444 24.4259 53.5259 24.3666 53.1703 24.2481C52.6814 24.0851 52.4444 23.6703 52.4444 23.0037V18.6185H54.7851C55.2296 18.6185 55.5851 18.2629 55.5851 17.8185V14.6185C55.5851 14.1888 55.2296 13.8333 54.7851 13.8333Z"/>
<path fill-rule="evenodd" clip-rule="evenodd" d="M66.0147 13.4037C63.674 13.4037 61.7629 14.174 60.2518 15.7C58.7407 17.2259 57.9851 19.137 57.9851 21.4037C57.9851 23.7 58.7555 25.5963 60.2814 27.1074C61.837 28.6037 63.8814 29.3444 66.4444 29.3444C68.9481 29.3444 70.9185 28.6185 72.3703 27.1666C72.6962 26.8407 72.6222 26.3074 72.237 26.0407L69.8518 24.3666C69.5407 24.1444 69.1259 24.1888 68.7999 24.3963C68.1629 24.8259 67.4073 25.0481 66.5629 25.0481C64.8148 25.0481 63.6888 24.4407 63.1851 23.2111H73.5999C73.7481 22.6333 73.8073 21.9963 73.8073 21.3444C73.8073 19.0629 73.0666 17.1814 71.5999 15.6703C70.1333 14.1592 68.2666 13.4037 66.0147 13.4037ZM63.111 19.7444C63.5407 18.337 64.5185 17.6259 66.074 17.6259C67.5703 17.6259 68.5036 18.337 68.9184 19.7444H63.111Z"/>
<path fill-rule="evenodd" clip-rule="evenodd" d="M85.2148 21.2259L89.5703 15.0926C89.9407 14.5592 89.5703 13.8333 88.9185 13.8333H85.1999C84.9333 13.8333 84.6962 13.9666 84.5481 14.174L82.3703 17.2555L80.2962 14.1888C80.1481 13.9666 79.8962 13.8333 79.6296 13.8333H75.9407C75.2888 13.8333 74.9185 14.5592 75.2888 15.0926L79.5703 21.2259L75.0073 27.6555C74.637 28.1888 75.0074 28.9148 75.6592 28.9148H79.3481C79.6148 28.9148 79.8518 28.7814 79.9999 28.574L82.3851 25.1963L84.7703 28.574C84.9185 28.7814 85.1703 28.9148 85.4222 28.9148H89.1407C89.7925 28.9148 90.1777 28.174 89.7925 27.6555L85.2148 21.2259Z"/>
<path fill-rule="evenodd" clip-rule="evenodd" d="M109.822 12.1592C109.793 12.1296 109.778 12.1 109.748 12.0703C109.037 11.3592 107.274 11.8333 105.037 13.1814C104.948 13.2407 104.83 13.2407 104.741 13.1963C103.541 12.5888 102.178 12.2333 100.726 12.2333C95.837 12.2333 91.8666 16.2037 91.8666 21.0926C91.8666 22.5296 92.2073 23.9074 92.8296 25.1074C92.874 25.1963 92.874 25.3148 92.8148 25.4037C91.5999 27.4185 91.0962 29.0629 91.5407 29.8777L91.7184 30.1148C93.0666 31.4629 97.8518 28.2481 102.844 23.2703C107.704 18.3814 110.963 13.6111 109.822 12.1592ZM98.7703 22.2777L96.9036 23.0481C96.874 23.0629 96.8444 23.0926 96.8296 23.1222L96.0592 24.9888C96.0147 25.1074 95.837 25.1074 95.7925 24.9888L95.0221 23.1222C95.0073 23.0926 94.9777 23.0629 94.9481 23.0481L93.0814 22.2777C92.9629 22.2333 92.9629 22.0555 93.0814 22.0111L94.9481 21.2407C94.9777 21.2259 95.0073 21.1963 95.0221 21.1666L95.7925 19.3C95.837 19.1814 96.0147 19.1814 96.0592 19.3L96.8296 21.1666C96.8444 21.1963 96.874 21.2259 96.9036 21.2407L98.7703 22.0111C98.9036 22.0555 98.9036 22.2333 98.7703 22.2777Z"/>
<path fill-rule="evenodd" clip-rule="evenodd" d="M100.844 27.5222C100.43 27.8629 99.9999 28.2481 99.5407 28.6629C99.1851 28.9888 98.8147 29.3148 98.4296 29.6407C99.1703 29.8333 99.9407 29.937 100.726 29.937C105.615 29.937 109.585 25.9666 109.585 21.0777C109.585 20.0851 109.422 19.137 109.126 18.2481C107.881 20.174 105.126 23.9963 100.844 27.5222Z"/>
<path fill-rule="evenodd" clip-rule="evenodd" d="M60.4888 9.46292C60.1185 9.65552 60.1185 10.174 60.4888 10.3666L61.4814 10.8703C61.674 10.974 61.911 10.974 62.1185 10.8703L62.9481 10.4407C63.0518 10.3963 63.1555 10.3666 63.2592 10.3666C66.6222 10.3666 68.9629 10.2185 71.837 8.21848C72.0888 8.0407 72.1036 7.68514 71.8666 7.49255L71.8222 7.46292C69.2444 5.37403 66.7851 5.37403 63.7185 5.38885C63.5555 5.38885 63.3777 5.38885 63.1999 5.38885C63.0962 5.38885 62.9777 5.35922 62.8888 5.31477L62.1185 4.91477C61.9259 4.81107 61.6888 4.81107 61.4814 4.91477L60.4888 5.41848C60.1185 5.61107 60.1185 6.12959 60.4888 6.32218C60.6518 6.41107 60.7703 6.58885 60.7703 6.76663V9.03329C60.7703 9.21107 60.6666 9.37403 60.4888 9.46292ZM64.7407 7.6407L65.9999 7.27033C66.0444 7.25552 66.0888 7.22589 66.1036 7.16663L66.474 5.95181C66.5185 5.80366 66.711 5.80366 66.7555 5.95181L67.1259 7.16663C67.1407 7.21107 67.1703 7.25552 67.2296 7.27033L68.4888 7.6407C68.6222 7.68514 68.637 7.87774 68.4888 7.92218L67.2888 8.35181C67.2444 8.36663 67.2148 8.39626 67.1999 8.4407L66.7555 9.68514C66.711 9.81848 66.5185 9.81848 66.474 9.68514L66.0296 8.4407C66.0147 8.39626 65.9851 8.36663 65.9407 8.35181L64.7407 7.92218C64.5925 7.86292 64.6073 7.67033 64.7407 7.6407Z"/>
<path fill-rule="evenodd" clip-rule="evenodd" d="M7.30364 11.3C7.30364 9.83329 8.47401 8.47033 10.0147 8.47033C11.3481 8.47033 15.3629 8.47033 17.4814 8.47033C17.9259 8.47033 18.2814 8.11477 18.2814 7.67033V4.12959C18.2814 3.68515 17.9259 3.32959 17.4814 3.32959C15.1407 3.32959 12.5777 3.32959 9.54067 3.32959C5.05179 3.32959 2.10364 6.4407 2.10364 10.8851C2.10364 20.2629 14.5629 18.1592 14.5629 21.9814C14.5629 23.5814 13.7333 24.2629 12.0888 24.2629C10.0888 24.2629 3.28882 24.2629 3.28882 24.2629C2.45919 24.2629 2.50364 29.374 3.28882 29.374C5.25919 29.374 9.70364 29.4037 11.9407 29.4037C16.5925 29.4037 19.9703 26.7963 19.9703 21.937C19.9703 13.5963 7.30364 15.6703 7.30364 11.3Z"/>
<path fill-rule="evenodd" clip-rule="evenodd" d="M37.3185 13.4037C35.0814 13.4037 33.1851 14.174 31.6147 15.7296C30.0444 17.2555 29.2592 19.137 29.2592 21.374C29.2592 23.6111 30.0444 25.5074 31.6147 27.0481C33.1851 28.574 35.0814 29.3444 37.3185 29.3444C39.5703 29.3444 41.4814 28.574 43.0222 27.0481C44.5925 25.4926 45.3777 23.6111 45.3777 21.374C45.3777 19.137 44.5925 17.2555 43.0222 15.7296C41.4814 14.1888 39.5703 13.4037 37.3185 13.4037ZM43.274 21.4926L39.0518 22.9888C39.0073 23.0037 38.9777 23.0333 38.9629 23.0777L37.4518 27.3296C37.4073 27.4629 37.2148 27.4629 37.1703 27.3296L35.674 23.0777C35.6592 23.0333 35.6296 23.0037 35.5851 22.9888L31.3481 21.4926C31.2148 21.4481 31.2148 21.2555 31.3481 21.2111L35.7629 19.9074C35.8073 19.8926 35.8518 19.8629 35.8666 19.8037L37.1703 15.4333C37.2148 15.2851 37.4073 15.2851 37.4518 15.4333L38.7555 19.8037C38.7703 19.8481 38.7999 19.8926 38.8592 19.9074L43.274 21.2111C43.4073 21.2555 43.4073 21.4481 43.274 21.4926Z"/>
</mask>
<path fill-rule="evenodd" clip-rule="evenodd" d="M26.2518 9.15181H22.8444C22.3999 9.15181 22.0444 9.50737 22.0444 9.95181V28.1296C22.0444 28.574 22.3999 28.9296 22.8444 28.9296H26.2518C26.6962 28.9296 27.0518 28.574 27.0518 28.1296V9.95181C27.0518 9.50737 26.6814 9.15181 26.2518 9.15181Z" fill="#173A4B"/>
<path fill-rule="evenodd" clip-rule="evenodd" d="M26.2518 9.15181H22.8444C22.3999 9.15181 22.0444 9.50737 22.0444 9.95181V28.1296C22.0444 28.574 22.3999 28.9296 22.8444 28.9296H26.2518C26.6962 28.9296 27.0518 28.574 27.0518 28.1296V9.95181C27.0518 9.50737 26.6814 9.15181 26.2518 9.15181Z" fill="url(#paint0_linear_19449_18212)"/>
<path fill-rule="evenodd" clip-rule="evenodd" d="M54.7851 13.8333H52.4444V9.95181C52.4444 9.50737 52.0888 9.15181 51.6444 9.15181H48.237C47.7925 9.15181 47.437 9.50737 47.437 9.95181V23.137C47.437 25.537 48.0444 27.1963 49.2444 28.1148C50.3703 28.9444 52.2518 29.2407 54.874 29.0037C55.274 28.974 55.5851 28.6185 55.5851 28.2185V25.2407C55.5851 24.7814 55.1999 24.4259 54.7407 24.4259C54.0444 24.4259 53.5259 24.3666 53.1703 24.2481C52.6814 24.0851 52.4444 23.6703 52.4444 23.0037V18.6185H54.7851C55.2296 18.6185 55.5851 18.2629 55.5851 17.8185V14.6185C55.5851 14.1888 55.2296 13.8333 54.7851 13.8333Z" fill="#173A4B"/>
<path fill-rule="evenodd" clip-rule="evenodd" d="M54.7851 13.8333H52.4444V9.95181C52.4444 9.50737 52.0888 9.15181 51.6444 9.15181H48.237C47.7925 9.15181 47.437 9.50737 47.437 9.95181V23.137C47.437 25.537 48.0444 27.1963 49.2444 28.1148C50.3703 28.9444 52.2518 29.2407 54.874 29.0037C55.274 28.974 55.5851 28.6185 55.5851 28.2185V25.2407C55.5851 24.7814 55.1999 24.4259 54.7407 24.4259C54.0444 24.4259 53.5259 24.3666 53.1703 24.2481C52.6814 24.0851 52.4444 23.6703 52.4444 23.0037V18.6185H54.7851C55.2296 18.6185 55.5851 18.2629 55.5851 17.8185V14.6185C55.5851 14.1888 55.2296 13.8333 54.7851 13.8333Z" fill="url(#paint1_linear_19449_18212)"/>
<path fill-rule="evenodd" clip-rule="evenodd" d="M66.0147 13.4037C63.674 13.4037 61.7629 14.174 60.2518 15.7C58.7407 17.2259 57.9851 19.137 57.9851 21.4037C57.9851 23.7 58.7555 25.5963 60.2814 27.1074C61.837 28.6037 63.8814 29.3444 66.4444 29.3444C68.9481 29.3444 70.9185 28.6185 72.3703 27.1666C72.6962 26.8407 72.6222 26.3074 72.237 26.0407L69.8518 24.3666C69.5407 24.1444 69.1259 24.1888 68.7999 24.3963C68.1629 24.8259 67.4073 25.0481 66.5629 25.0481C64.8148 25.0481 63.6888 24.4407 63.1851 23.2111H73.5999C73.7481 22.6333 73.8073 21.9963 73.8073 21.3444C73.8073 19.0629 73.0666 17.1814 71.5999 15.6703C70.1333 14.1592 68.2666 13.4037 66.0147 13.4037ZM63.111 19.7444C63.5407 18.337 64.5185 17.6259 66.074 17.6259C67.5703 17.6259 68.5036 18.337 68.9184 19.7444H63.111Z" fill="#173A4B"/>
<path fill-rule="evenodd" clip-rule="evenodd" d="M66.0147 13.4037C63.674 13.4037 61.7629 14.174 60.2518 15.7C58.7407 17.2259 57.9851 19.137 57.9851 21.4037C57.9851 23.7 58.7555 25.5963 60.2814 27.1074C61.837 28.6037 63.8814 29.3444 66.4444 29.3444C68.9481 29.3444 70.9185 28.6185 72.3703 27.1666C72.6962 26.8407 72.6222 26.3074 72.237 26.0407L69.8518 24.3666C69.5407 24.1444 69.1259 24.1888 68.7999 24.3963C68.1629 24.8259 67.4073 25.0481 66.5629 25.0481C64.8148 25.0481 63.6888 24.4407 63.1851 23.2111H73.5999C73.7481 22.6333 73.8073 21.9963 73.8073 21.3444C73.8073 19.0629 73.0666 17.1814 71.5999 15.6703C70.1333 14.1592 68.2666 13.4037 66.0147 13.4037ZM63.111 19.7444C63.5407 18.337 64.5185 17.6259 66.074 17.6259C67.5703 17.6259 68.5036 18.337 68.9184 19.7444H63.111Z" fill="url(#paint2_linear_19449_18212)"/>
<path fill-rule="evenodd" clip-rule="evenodd" d="M85.2148 21.2259L89.5703 15.0926C89.9407 14.5592 89.5703 13.8333 88.9185 13.8333H85.1999C84.9333 13.8333 84.6962 13.9666 84.5481 14.174L82.3703 17.2555L80.2962 14.1888C80.1481 13.9666 79.8962 13.8333 79.6296 13.8333H75.9407C75.2888 13.8333 74.9185 14.5592 75.2888 15.0926L79.5703 21.2259L75.0073 27.6555C74.637 28.1888 75.0074 28.9148 75.6592 28.9148H79.3481C79.6148 28.9148 79.8518 28.7814 79.9999 28.574L82.3851 25.1963L84.7703 28.574C84.9185 28.7814 85.1703 28.9148 85.4222 28.9148H89.1407C89.7925 28.9148 90.1777 28.174 89.7925 27.6555L85.2148 21.2259Z" fill="#173A4B"/>
<path fill-rule="evenodd" clip-rule="evenodd" d="M85.2148 21.2259L89.5703 15.0926C89.9407 14.5592 89.5703 13.8333 88.9185 13.8333H85.1999C84.9333 13.8333 84.6962 13.9666 84.5481 14.174L82.3703 17.2555L80.2962 14.1888C80.1481 13.9666 79.8962 13.8333 79.6296 13.8333H75.9407C75.2888 13.8333 74.9185 14.5592 75.2888 15.0926L79.5703 21.2259L75.0073 27.6555C74.637 28.1888 75.0074 28.9148 75.6592 28.9148H79.3481C79.6148 28.9148 79.8518 28.7814 79.9999 28.574L82.3851 25.1963L84.7703 28.574C84.9185 28.7814 85.1703 28.9148 85.4222 28.9148H89.1407C89.7925 28.9148 90.1777 28.174 89.7925 27.6555L85.2148 21.2259Z" fill="url(#paint3_linear_19449_18212)"/>
<path fill-rule="evenodd" clip-rule="evenodd" d="M109.822 12.1592C109.793 12.1296 109.778 12.1 109.748 12.0703C109.037 11.3592 107.274 11.8333 105.037 13.1814C104.948 13.2407 104.83 13.2407 104.741 13.1963C103.541 12.5888 102.178 12.2333 100.726 12.2333C95.837 12.2333 91.8666 16.2037 91.8666 21.0926C91.8666 22.5296 92.2073 23.9074 92.8296 25.1074C92.874 25.1963 92.874 25.3148 92.8148 25.4037C91.5999 27.4185 91.0962 29.0629 91.5407 29.8777L91.7184 30.1148C93.0666 31.4629 97.8518 28.2481 102.844 23.2703C107.704 18.3814 110.963 13.6111 109.822 12.1592ZM98.7703 22.2777L96.9036 23.0481C96.874 23.0629 96.8444 23.0926 96.8296 23.1222L96.0592 24.9888C96.0147 25.1074 95.837 25.1074 95.7925 24.9888L95.0221 23.1222C95.0073 23.0926 94.9777 23.0629 94.9481 23.0481L93.0814 22.2777C92.9629 22.2333 92.9629 22.0555 93.0814 22.0111L94.9481 21.2407C94.9777 21.2259 95.0073 21.1963 95.0221 21.1666L95.7925 19.3C95.837 19.1814 96.0147 19.1814 96.0592 19.3L96.8296 21.1666C96.8444 21.1963 96.874 21.2259 96.9036 21.2407L98.7703 22.0111C98.9036 22.0555 98.9036 22.2333 98.7703 22.2777Z" fill="#173A4B"/>
<path fill-rule="evenodd" clip-rule="evenodd" d="M109.822 12.1592C109.793 12.1296 109.778 12.1 109.748 12.0703C109.037 11.3592 107.274 11.8333 105.037 13.1814C104.948 13.2407 104.83 13.2407 104.741 13.1963C103.541 12.5888 102.178 12.2333 100.726 12.2333C95.837 12.2333 91.8666 16.2037 91.8666 21.0926C91.8666 22.5296 92.2073 23.9074 92.8296 25.1074C92.874 25.1963 92.874 25.3148 92.8148 25.4037C91.5999 27.4185 91.0962 29.0629 91.5407 29.8777L91.7184 30.1148C93.0666 31.4629 97.8518 28.2481 102.844 23.2703C107.704 18.3814 110.963 13.6111 109.822 12.1592ZM98.7703 22.2777L96.9036 23.0481C96.874 23.0629 96.8444 23.0926 96.8296 23.1222L96.0592 24.9888C96.0147 25.1074 95.837 25.1074 95.7925 24.9888L95.0221 23.1222C95.0073 23.0926 94.9777 23.0629 94.9481 23.0481L93.0814 22.2777C92.9629 22.2333 92.9629 22.0555 93.0814 22.0111L94.9481 21.2407C94.9777 21.2259 95.0073 21.1963 95.0221 21.1666L95.7925 19.3C95.837 19.1814 96.0147 19.1814 96.0592 19.3L96.8296 21.1666C96.8444 21.1963 96.874 21.2259 96.9036 21.2407L98.7703 22.0111C98.9036 22.0555 98.9036 22.2333 98.7703 22.2777Z" fill="url(#paint4_linear_19449_18212)"/>
<path fill-rule="evenodd" clip-rule="evenodd" d="M100.844 27.5222C100.43 27.8629 99.9999 28.2481 99.5407 28.6629C99.1851 28.9888 98.8147 29.3148 98.4296 29.6407C99.1703 29.8333 99.9407 29.937 100.726 29.937C105.615 29.937 109.585 25.9666 109.585 21.0777C109.585 20.0851 109.422 19.137 109.126 18.2481C107.881 20.174 105.126 23.9963 100.844 27.5222Z" fill="#173A4B"/>
<path fill-rule="evenodd" clip-rule="evenodd" d="M100.844 27.5222C100.43 27.8629 99.9999 28.2481 99.5407 28.6629C99.1851 28.9888 98.8147 29.3148 98.4296 29.6407C99.1703 29.8333 99.9407 29.937 100.726 29.937C105.615 29.937 109.585 25.9666 109.585 21.0777C109.585 20.0851 109.422 19.137 109.126 18.2481C107.881 20.174 105.126 23.9963 100.844 27.5222Z" fill="url(#paint5_linear_19449_18212)"/>
<path fill-rule="evenodd" clip-rule="evenodd" d="M60.4888 9.46292C60.1185 9.65552 60.1185 10.174 60.4888 10.3666L61.4814 10.8703C61.674 10.974 61.911 10.974 62.1185 10.8703L62.9481 10.4407C63.0518 10.3963 63.1555 10.3666 63.2592 10.3666C66.6222 10.3666 68.9629 10.2185 71.837 8.21848C72.0888 8.0407 72.1036 7.68514 71.8666 7.49255L71.8222 7.46292C69.2444 5.37403 66.7851 5.37403 63.7185 5.38885C63.5555 5.38885 63.3777 5.38885 63.1999 5.38885C63.0962 5.38885 62.9777 5.35922 62.8888 5.31477L62.1185 4.91477C61.9259 4.81107 61.6888 4.81107 61.4814 4.91477L60.4888 5.41848C60.1185 5.61107 60.1185 6.12959 60.4888 6.32218C60.6518 6.41107 60.7703 6.58885 60.7703 6.76663V9.03329C60.7703 9.21107 60.6666 9.37403 60.4888 9.46292ZM64.7407 7.6407L65.9999 7.27033C66.0444 7.25552 66.0888 7.22589 66.1036 7.16663L66.474 5.95181C66.5185 5.80366 66.711 5.80366 66.7555 5.95181L67.1259 7.16663C67.1407 7.21107 67.1703 7.25552 67.2296 7.27033L68.4888 7.6407C68.6222 7.68514 68.637 7.87774 68.4888 7.92218L67.2888 8.35181C67.2444 8.36663 67.2148 8.39626 67.1999 8.4407L66.7555 9.68514C66.711 9.81848 66.5185 9.81848 66.474 9.68514L66.0296 8.4407C66.0147 8.39626 65.9851 8.36663 65.9407 8.35181L64.7407 7.92218C64.5925 7.86292 64.6073 7.67033 64.7407 7.6407Z" fill="#173A4B"/>
<path fill-rule="evenodd" clip-rule="evenodd" d="M60.4888 9.46292C60.1185 9.65552 60.1185 10.174 60.4888 10.3666L61.4814 10.8703C61.674 10.974 61.911 10.974 62.1185 10.8703L62.9481 10.4407C63.0518 10.3963 63.1555 10.3666 63.2592 10.3666C66.6222 10.3666 68.9629 10.2185 71.837 8.21848C72.0888 8.0407 72.1036 7.68514 71.8666 7.49255L71.8222 7.46292C69.2444 5.37403 66.7851 5.37403 63.7185 5.38885C63.5555 5.38885 63.3777 5.38885 63.1999 5.38885C63.0962 5.38885 62.9777 5.35922 62.8888 5.31477L62.1185 4.91477C61.9259 4.81107 61.6888 4.81107 61.4814 4.91477L60.4888 5.41848C60.1185 5.61107 60.1185 6.12959 60.4888 6.32218C60.6518 6.41107 60.7703 6.58885 60.7703 6.76663V9.03329C60.7703 9.21107 60.6666 9.37403 60.4888 9.46292ZM64.7407 7.6407L65.9999 7.27033C66.0444 7.25552 66.0888 7.22589 66.1036 7.16663L66.474 5.95181C66.5185 5.80366 66.711 5.80366 66.7555 5.95181L67.1259 7.16663C67.1407 7.21107 67.1703 7.25552 67.2296 7.27033L68.4888 7.6407C68.6222 7.68514 68.637 7.87774 68.4888 7.92218L67.2888 8.35181C67.2444 8.36663 67.2148 8.39626 67.1999 8.4407L66.7555 9.68514C66.711 9.81848 66.5185 9.81848 66.474 9.68514L66.0296 8.4407C66.0147 8.39626 65.9851 8.36663 65.9407 8.35181L64.7407 7.92218C64.5925 7.86292 64.6073 7.67033 64.7407 7.6407Z" fill="url(#paint6_linear_19449_18212)"/>
<path fill-rule="evenodd" clip-rule="evenodd" d="M7.30364 11.3C7.30364 9.83329 8.47401 8.47033 10.0147 8.47033C11.3481 8.47033 15.3629 8.47033 17.4814 8.47033C17.9259 8.47033 18.2814 8.11477 18.2814 7.67033V4.12959C18.2814 3.68515 17.9259 3.32959 17.4814 3.32959C15.1407 3.32959 12.5777 3.32959 9.54067 3.32959C5.05179 3.32959 2.10364 6.4407 2.10364 10.8851C2.10364 20.2629 14.5629 18.1592 14.5629 21.9814C14.5629 23.5814 13.7333 24.2629 12.0888 24.2629C10.0888 24.2629 3.28882 24.2629 3.28882 24.2629C2.45919 24.2629 2.50364 29.374 3.28882 29.374C5.25919 29.374 9.70364 29.4037 11.9407 29.4037C16.5925 29.4037 19.9703 26.7963 19.9703 21.937C19.9703 13.5963 7.30364 15.6703 7.30364 11.3Z" fill="#173A4B"/>
<path fill-rule="evenodd" clip-rule="evenodd" d="M7.30364 11.3C7.30364 9.83329 8.47401 8.47033 10.0147 8.47033C11.3481 8.47033 15.3629 8.47033 17.4814 8.47033C17.9259 8.47033 18.2814 8.11477 18.2814 7.67033V4.12959C18.2814 3.68515 17.9259 3.32959 17.4814 3.32959C15.1407 3.32959 12.5777 3.32959 9.54067 3.32959C5.05179 3.32959 2.10364 6.4407 2.10364 10.8851C2.10364 20.2629 14.5629 18.1592 14.5629 21.9814C14.5629 23.5814 13.7333 24.2629 12.0888 24.2629C10.0888 24.2629 3.28882 24.2629 3.28882 24.2629C2.45919 24.2629 2.50364 29.374 3.28882 29.374C5.25919 29.374 9.70364 29.4037 11.9407 29.4037C16.5925 29.4037 19.9703 26.7963 19.9703 21.937C19.9703 13.5963 7.30364 15.6703 7.30364 11.3Z" fill="url(#paint7_linear_19449_18212)"/>
<path fill-rule="evenodd" clip-rule="evenodd" d="M37.3185 13.4037C35.0814 13.4037 33.1851 14.174 31.6147 15.7296C30.0444 17.2555 29.2592 19.137 29.2592 21.374C29.2592 23.6111 30.0444 25.5074 31.6147 27.0481C33.1851 28.574 35.0814 29.3444 37.3185 29.3444C39.5703 29.3444 41.4814 28.574 43.0222 27.0481C44.5925 25.4926 45.3777 23.6111 45.3777 21.374C45.3777 19.137 44.5925 17.2555 43.0222 15.7296C41.4814 14.1888 39.5703 13.4037 37.3185 13.4037ZM43.274 21.4926L39.0518 22.9888C39.0073 23.0037 38.9777 23.0333 38.9629 23.0777L37.4518 27.3296C37.4073 27.4629 37.2148 27.4629 37.1703 27.3296L35.674 23.0777C35.6592 23.0333 35.6296 23.0037 35.5851 22.9888L31.3481 21.4926C31.2148 21.4481 31.2148 21.2555 31.3481 21.2111L35.7629 19.9074C35.8073 19.8926 35.8518 19.8629 35.8666 19.8037L37.1703 15.4333C37.2148 15.2851 37.4073 15.2851 37.4518 15.4333L38.7555 19.8037C38.7703 19.8481 38.7999 19.8926 38.8592 19.9074L43.274 21.2111C43.4073 21.2555 43.4073 21.4481 43.274 21.4926Z" fill="#173A4B"/>
<path fill-rule="evenodd" clip-rule="evenodd" d="M37.3185 13.4037C35.0814 13.4037 33.1851 14.174 31.6147 15.7296C30.0444 17.2555 29.2592 19.137 29.2592 21.374C29.2592 23.6111 30.0444 25.5074 31.6147 27.0481C33.1851 28.574 35.0814 29.3444 37.3185 29.3444C39.5703 29.3444 41.4814 28.574 43.0222 27.0481C44.5925 25.4926 45.3777 23.6111 45.3777 21.374C45.3777 19.137 44.5925 17.2555 43.0222 15.7296C41.4814 14.1888 39.5703 13.4037 37.3185 13.4037ZM43.274 21.4926L39.0518 22.9888C39.0073 23.0037 38.9777 23.0333 38.9629 23.0777L37.4518 27.3296C37.4073 27.4629 37.2148 27.4629 37.1703 27.3296L35.674 23.0777C35.6592 23.0333 35.6296 23.0037 35.5851 22.9888L31.3481 21.4926C31.2148 21.4481 31.2148 21.2555 31.3481 21.2111L35.7629 19.9074C35.8073 19.8926 35.8518 19.8629 35.8666 19.8037L37.1703 15.4333C37.2148 15.2851 37.4073 15.2851 37.4518 15.4333L38.7555 19.8037C38.7703 19.8481 38.7999 19.8926 38.8592 19.9074L43.274 21.2111C43.4073 21.2555 43.4073 21.4481 43.274 21.4926Z" fill="url(#paint8_linear_19449_18212)"/>
<path fill-rule="evenodd" clip-rule="evenodd" d="M26.2518 9.15181H22.8444C22.3999 9.15181 22.0444 9.50737 22.0444 9.95181V28.1296C22.0444 28.574 22.3999 28.9296 22.8444 28.9296H26.2518C26.6962 28.9296 27.0518 28.574 27.0518 28.1296V9.95181C27.0518 9.50737 26.6814 9.15181 26.2518 9.15181Z" stroke="url(#paint9_linear_19449_18212)" stroke-opacity="0.6" stroke-width="6" stroke-miterlimit="10" mask="url(#path-2-inside-1_19449_18212)"/>
<path fill-rule="evenodd" clip-rule="evenodd" d="M54.7851 13.8333H52.4444V9.95181C52.4444 9.50737 52.0888 9.15181 51.6444 9.15181H48.237C47.7925 9.15181 47.437 9.50737 47.437 9.95181V23.137C47.437 25.537 48.0444 27.1963 49.2444 28.1148C50.3703 28.9444 52.2518 29.2407 54.874 29.0037C55.274 28.974 55.5851 28.6185 55.5851 28.2185V25.2407C55.5851 24.7814 55.1999 24.4259 54.7407 24.4259C54.0444 24.4259 53.5259 24.3666 53.1703 24.2481C52.6814 24.0851 52.4444 23.6703 52.4444 23.0037V18.6185H54.7851C55.2296 18.6185 55.5851 18.2629 55.5851 17.8185V14.6185C55.5851 14.1888 55.2296 13.8333 54.7851 13.8333Z" stroke="url(#paint10_linear_19449_18212)" stroke-opacity="0.6" stroke-width="6" stroke-miterlimit="10" mask="url(#path-2-inside-1_19449_18212)"/>
<path fill-rule="evenodd" clip-rule="evenodd" d="M66.0147 13.4037C63.674 13.4037 61.7629 14.174 60.2518 15.7C58.7407 17.2259 57.9851 19.137 57.9851 21.4037C57.9851 23.7 58.7555 25.5963 60.2814 27.1074C61.837 28.6037 63.8814 29.3444 66.4444 29.3444C68.9481 29.3444 70.9185 28.6185 72.3703 27.1666C72.6962 26.8407 72.6222 26.3074 72.237 26.0407L69.8518 24.3666C69.5407 24.1444 69.1259 24.1888 68.7999 24.3963C68.1629 24.8259 67.4073 25.0481 66.5629 25.0481C64.8148 25.0481 63.6888 24.4407 63.1851 23.2111H73.5999C73.7481 22.6333 73.8073 21.9963 73.8073 21.3444C73.8073 19.0629 73.0666 17.1814 71.5999 15.6703C70.1333 14.1592 68.2666 13.4037 66.0147 13.4037ZM63.111 19.7444C63.5407 18.337 64.5185 17.6259 66.074 17.6259C67.5703 17.6259 68.5036 18.337 68.9184 19.7444H63.111Z" stroke="url(#paint11_linear_19449_18212)" stroke-opacity="0.6" stroke-width="6" stroke-miterlimit="10" mask="url(#path-2-inside-1_19449_18212)"/>
<path fill-rule="evenodd" clip-rule="evenodd" d="M85.2148 21.2259L89.5703 15.0926C89.9407 14.5592 89.5703 13.8333 88.9185 13.8333H85.1999C84.9333 13.8333 84.6962 13.9666 84.5481 14.174L82.3703 17.2555L80.2962 14.1888C80.1481 13.9666 79.8962 13.8333 79.6296 13.8333H75.9407C75.2888 13.8333 74.9185 14.5592 75.2888 15.0926L79.5703 21.2259L75.0073 27.6555C74.637 28.1888 75.0074 28.9148 75.6592 28.9148H79.3481C79.6148 28.9148 79.8518 28.7814 79.9999 28.574L82.3851 25.1963L84.7703 28.574C84.9185 28.7814 85.1703 28.9148 85.4222 28.9148H89.1407C89.7925 28.9148 90.1777 28.174 89.7925 27.6555L85.2148 21.2259Z" stroke="url(#paint12_linear_19449_18212)" stroke-opacity="0.6" stroke-width="6" stroke-miterlimit="10" mask="url(#path-2-inside-1_19449_18212)"/>
<path fill-rule="evenodd" clip-rule="evenodd" d="M109.822 12.1592C109.793 12.1296 109.778 12.1 109.748 12.0703C109.037 11.3592 107.274 11.8333 105.037 13.1814C104.948 13.2407 104.83 13.2407 104.741 13.1963C103.541 12.5888 102.178 12.2333 100.726 12.2333C95.837 12.2333 91.8666 16.2037 91.8666 21.0926C91.8666 22.5296 92.2073 23.9074 92.8296 25.1074C92.874 25.1963 92.874 25.3148 92.8148 25.4037C91.5999 27.4185 91.0962 29.0629 91.5407 29.8777L91.7184 30.1148C93.0666 31.4629 97.8518 28.2481 102.844 23.2703C107.704 18.3814 110.963 13.6111 109.822 12.1592ZM98.7703 22.2777L96.9036 23.0481C96.874 23.0629 96.8444 23.0926 96.8296 23.1222L96.0592 24.9888C96.0147 25.1074 95.837 25.1074 95.7925 24.9888L95.0221 23.1222C95.0073 23.0926 94.9777 23.0629 94.9481 23.0481L93.0814 22.2777C92.9629 22.2333 92.9629 22.0555 93.0814 22.0111L94.9481 21.2407C94.9777 21.2259 95.0073 21.1963 95.0221 21.1666L95.7925 19.3C95.837 19.1814 96.0147 19.1814 96.0592 19.3L96.8296 21.1666C96.8444 21.1963 96.874 21.2259 96.9036 21.2407L98.7703 22.0111C98.9036 22.0555 98.9036 22.2333 98.7703 22.2777Z" stroke="url(#paint13_linear_19449_18212)" stroke-opacity="0.6" stroke-width="6" stroke-miterlimit="10" mask="url(#path-2-inside-1_19449_18212)"/>
<path fill-rule="evenodd" clip-rule="evenodd" d="M100.844 27.5222C100.43 27.8629 99.9999 28.2481 99.5407 28.6629C99.1851 28.9888 98.8147 29.3148 98.4296 29.6407C99.1703 29.8333 99.9407 29.937 100.726 29.937C105.615 29.937 109.585 25.9666 109.585 21.0777C109.585 20.0851 109.422 19.137 109.126 18.2481C107.881 20.174 105.126 23.9963 100.844 27.5222Z" stroke="url(#paint14_linear_19449_18212)" stroke-opacity="0.6" stroke-width="6" stroke-miterlimit="10" mask="url(#path-2-inside-1_19449_18212)"/>
<path fill-rule="evenodd" clip-rule="evenodd" d="M60.4888 9.46292C60.1185 9.65552 60.1185 10.174 60.4888 10.3666L61.4814 10.8703C61.674 10.974 61.911 10.974 62.1185 10.8703L62.9481 10.4407C63.0518 10.3963 63.1555 10.3666 63.2592 10.3666C66.6222 10.3666 68.9629 10.2185 71.837 8.21848C72.0888 8.0407 72.1036 7.68514 71.8666 7.49255L71.8222 7.46292C69.2444 5.37403 66.7851 5.37403 63.7185 5.38885C63.5555 5.38885 63.3777 5.38885 63.1999 5.38885C63.0962 5.38885 62.9777 5.35922 62.8888 5.31477L62.1185 4.91477C61.9259 4.81107 61.6888 4.81107 61.4814 4.91477L60.4888 5.41848C60.1185 5.61107 60.1185 6.12959 60.4888 6.32218C60.6518 6.41107 60.7703 6.58885 60.7703 6.76663V9.03329C60.7703 9.21107 60.6666 9.37403 60.4888 9.46292ZM64.7407 7.6407L65.9999 7.27033C66.0444 7.25552 66.0888 7.22589 66.1036 7.16663L66.474 5.95181C66.5185 5.80366 66.711 5.80366 66.7555 5.95181L67.1259 7.16663C67.1407 7.21107 67.1703 7.25552 67.2296 7.27033L68.4888 7.6407C68.6222 7.68514 68.637 7.87774 68.4888 7.92218L67.2888 8.35181C67.2444 8.36663 67.2148 8.39626 67.1999 8.4407L66.7555 9.68514C66.711 9.81848 66.5185 9.81848 66.474 9.68514L66.0296 8.4407C66.0147 8.39626 65.9851 8.36663 65.9407 8.35181L64.7407 7.92218C64.5925 7.86292 64.6073 7.67033 64.7407 7.6407Z" stroke="url(#paint15_linear_19449_18212)" stroke-opacity="0.6" stroke-width="6" stroke-miterlimit="10" mask="url(#path-2-inside-1_19449_18212)"/>
<path fill-rule="evenodd" clip-rule="evenodd" d="M7.30364 11.3C7.30364 9.83329 8.47401 8.47033 10.0147 8.47033C11.3481 8.47033 15.3629 8.47033 17.4814 8.47033C17.9259 8.47033 18.2814 8.11477 18.2814 7.67033V4.12959C18.2814 3.68515 17.9259 3.32959 17.4814 3.32959C15.1407 3.32959 12.5777 3.32959 9.54067 3.32959C5.05179 3.32959 2.10364 6.4407 2.10364 10.8851C2.10364 20.2629 14.5629 18.1592 14.5629 21.9814C14.5629 23.5814 13.7333 24.2629 12.0888 24.2629C10.0888 24.2629 3.28882 24.2629 3.28882 24.2629C2.45919 24.2629 2.50364 29.374 3.28882 29.374C5.25919 29.374 9.70364 29.4037 11.9407 29.4037C16.5925 29.4037 19.9703 26.7963 19.9703 21.937C19.9703 13.5963 7.30364 15.6703 7.30364 11.3Z" stroke="url(#paint16_linear_19449_18212)" stroke-opacity="0.6" stroke-width="6" stroke-miterlimit="10" mask="url(#path-2-inside-1_19449_18212)"/>
<path fill-rule="evenodd" clip-rule="evenodd" d="M37.3185 13.4037C35.0814 13.4037 33.1851 14.174 31.6147 15.7296C30.0444 17.2555 29.2592 19.137 29.2592 21.374C29.2592 23.6111 30.0444 25.5074 31.6147 27.0481C33.1851 28.574 35.0814 29.3444 37.3185 29.3444C39.5703 29.3444 41.4814 28.574 43.0222 27.0481C44.5925 25.4926 45.3777 23.6111 45.3777 21.374C45.3777 19.137 44.5925 17.2555 43.0222 15.7296C41.4814 14.1888 39.5703 13.4037 37.3185 13.4037ZM43.274 21.4926L39.0518 22.9888C39.0073 23.0037 38.9777 23.0333 38.9629 23.0777L37.4518 27.3296C37.4073 27.4629 37.2148 27.4629 37.1703 27.3296L35.674 23.0777C35.6592 23.0333 35.6296 23.0037 35.5851 22.9888L31.3481 21.4926C31.2148 21.4481 31.2148 21.2555 31.3481 21.2111L35.7629 19.9074C35.8073 19.8926 35.8518 19.8629 35.8666 19.8037L37.1703 15.4333C37.2148 15.2851 37.4073 15.2851 37.4518 15.4333L38.7555 19.8037C38.7703 19.8481 38.7999 19.8926 38.8592 19.9074L43.274 21.2111C43.4073 21.2555 43.4073 21.4481 43.274 21.4926Z" stroke="url(#paint17_linear_19449_18212)" stroke-opacity="0.6" stroke-width="6" stroke-miterlimit="10" mask="url(#path-2-inside-1_19449_18212)"/>
<defs>
<linearGradient id="paint0_linear_19449_18212" x1="56.0771" y1="3.32959" x2="56.0771" y2="30.4232" gradientUnits="userSpaceOnUse">
<stop stop-color="#DBFF00"/>
<stop offset="1" stop-color="#B4C500"/>
</linearGradient>
<linearGradient id="paint1_linear_19449_18212" x1="56.0771" y1="3.32959" x2="56.0771" y2="30.4232" gradientUnits="userSpaceOnUse">
<stop stop-color="#DBFF00"/>
<stop offset="1" stop-color="#B4C500"/>
</linearGradient>
<linearGradient id="paint2_linear_19449_18212" x1="56.0771" y1="3.32959" x2="56.0771" y2="30.4232" gradientUnits="userSpaceOnUse">
<stop stop-color="#DBFF00"/>
<stop offset="1" stop-color="#B4C500"/>
</linearGradient>
<linearGradient id="paint3_linear_19449_18212" x1="56.0771" y1="3.32959" x2="56.0771" y2="30.4232" gradientUnits="userSpaceOnUse">
<stop stop-color="#DBFF00"/>
<stop offset="1" stop-color="#B4C500"/>
</linearGradient>
<linearGradient id="paint4_linear_19449_18212" x1="56.0771" y1="3.32959" x2="56.0771" y2="30.4232" gradientUnits="userSpaceOnUse">
<stop stop-color="#DBFF00"/>
<stop offset="1" stop-color="#B4C500"/>
</linearGradient>
<linearGradient id="paint5_linear_19449_18212" x1="56.0771" y1="3.32959" x2="56.0771" y2="30.4232" gradientUnits="userSpaceOnUse">
<stop stop-color="#DBFF00"/>
<stop offset="1" stop-color="#B4C500"/>
</linearGradient>
<linearGradient id="paint6_linear_19449_18212" x1="56.0771" y1="3.32959" x2="56.0771" y2="30.4232" gradientUnits="userSpaceOnUse">
<stop stop-color="#DBFF00"/>
<stop offset="1" stop-color="#B4C500"/>
</linearGradient>
<linearGradient id="paint7_linear_19449_18212" x1="56.0771" y1="3.32959" x2="56.0771" y2="30.4232" gradientUnits="userSpaceOnUse">
<stop stop-color="#DBFF00"/>
<stop offset="1" stop-color="#B4C500"/>
</linearGradient>
<linearGradient id="paint8_linear_19449_18212" x1="56.0771" y1="3.32959" x2="56.0771" y2="30.4232" gradientUnits="userSpaceOnUse">
<stop stop-color="#DBFF00"/>
<stop offset="1" stop-color="#B4C500"/>
</linearGradient>
<linearGradient id="paint9_linear_19449_18212" x1="56.0771" y1="3.32959" x2="56.0771" y2="30.4232" gradientUnits="userSpaceOnUse">
<stop stop-color="#EDFE81"/>
<stop offset="1" stop-color="#DBFF00"/>
</linearGradient>
<linearGradient id="paint10_linear_19449_18212" x1="56.0771" y1="3.32959" x2="56.0771" y2="30.4232" gradientUnits="userSpaceOnUse">
<stop stop-color="#EDFE81"/>
<stop offset="1" stop-color="#DBFF00"/>
</linearGradient>
<linearGradient id="paint11_linear_19449_18212" x1="56.0771" y1="3.32959" x2="56.0771" y2="30.4232" gradientUnits="userSpaceOnUse">
<stop stop-color="#EDFE81"/>
<stop offset="1" stop-color="#DBFF00"/>
</linearGradient>
<linearGradient id="paint12_linear_19449_18212" x1="56.0771" y1="3.32959" x2="56.0771" y2="30.4232" gradientUnits="userSpaceOnUse">
<stop stop-color="#EDFE81"/>
<stop offset="1" stop-color="#DBFF00"/>
</linearGradient>
<linearGradient id="paint13_linear_19449_18212" x1="56.0771" y1="3.32959" x2="56.0771" y2="30.4232" gradientUnits="userSpaceOnUse">
<stop stop-color="#EDFE81"/>
<stop offset="1" stop-color="#DBFF00"/>
</linearGradient>
<linearGradient id="paint14_linear_19449_18212" x1="56.0771" y1="3.32959" x2="56.0771" y2="30.4232" gradientUnits="userSpaceOnUse">
<stop stop-color="#EDFE81"/>
<stop offset="1" stop-color="#DBFF00"/>
</linearGradient>
<linearGradient id="paint15_linear_19449_18212" x1="56.0771" y1="3.32959" x2="56.0771" y2="30.4232" gradientUnits="userSpaceOnUse">
<stop stop-color="#EDFE81"/>
<stop offset="1" stop-color="#DBFF00"/>
</linearGradient>
<linearGradient id="paint16_linear_19449_18212" x1="56.0771" y1="3.32959" x2="56.0771" y2="30.4232" gradientUnits="userSpaceOnUse">
<stop stop-color="#EDFE81"/>
<stop offset="1" stop-color="#DBFF00"/>
</linearGradient>
<linearGradient id="paint17_linear_19449_18212" x1="56.0771" y1="3.32959" x2="56.0771" y2="30.4232" gradientUnits="userSpaceOnUse">
<stop stop-color="#EDFE81"/>
<stop offset="1" stop-color="#DBFF00"/>
</linearGradient>
</defs>
</svg>
