<svg width="180" height="41" viewBox="0 0 180 41" fill="none" xmlns="http://www.w3.org/2000/svg">
<path d="M169.192 1H169.951C173.531 1 175.953 1.80851 177.217 3.42552C178.481 5.02152 178.776 7.70954 178.102 11.4896L177.944 12.3716C177.291 16.1516 176.048 18.8501 174.216 20.4671C172.383 22.0631 169.677 22.8611 166.096 22.8611H165.338C161.737 22.8611 159.304 22.0631 158.04 20.4671C156.798 18.8501 156.503 16.1516 157.156 12.3716L157.314 11.4896C157.967 7.70954 159.209 5.02152 161.042 3.42552C162.874 1.80851 165.591 1 169.192 1ZM173.489 6.19753C172.794 5.16853 171.267 4.65402 168.908 4.65402C166.549 4.65402 164.843 5.16853 163.79 6.19753C162.758 7.20554 162 9.11655 161.515 11.9306C161.01 14.7446 161.094 16.6661 161.768 17.6951C162.463 18.7031 163.99 19.2071 166.349 19.2071C168.708 19.2071 170.404 18.7031 171.436 17.6951C172.489 16.6661 173.268 14.7446 173.773 11.9306C174.279 9.11655 174.184 7.20554 173.489 6.19753Z" fill="white"/>
<path d="M147.491 1H148.249C151.429 1 153.651 1.609 154.915 2.82701C156.2 4.02402 156.621 5.96653 156.179 8.65455H151.945C152.177 7.18454 151.924 6.16603 151.187 5.59903C150.471 5.01102 149.155 4.71702 147.238 4.71702C144.879 4.71702 143.194 5.22103 142.183 6.22903C141.172 7.21604 140.425 9.11655 139.94 11.9306C139.435 14.7446 139.508 16.6556 140.161 17.6636C140.835 18.6506 142.352 19.1441 144.711 19.1441C146.627 19.1441 148.049 18.8501 148.976 18.2621C149.923 17.6741 150.555 16.6241 150.871 15.1121H155.073C154.546 17.8421 153.441 19.8161 151.756 21.0341C150.071 22.2521 147.617 22.8611 144.395 22.8611H143.636C140.056 22.8611 137.655 22.0631 136.433 20.4671C135.212 18.8711 134.927 16.1726 135.58 12.3716L135.738 11.4896C136.391 7.70954 137.613 5.02152 139.403 3.42552C141.214 1.80851 143.91 1 147.491 1Z" fill="white"/>
<path d="M124.994 1H125.752C129.333 1 131.755 1.80851 133.019 3.42552C134.282 5.02152 134.577 7.70954 133.903 11.4896L133.745 12.3716C133.092 16.1516 131.85 18.8501 130.017 20.4671C128.185 22.0631 125.479 22.8611 121.898 22.8611H121.14C117.538 22.8611 115.106 22.0631 113.842 20.4671C112.599 18.8501 112.305 16.1516 112.957 12.3716L113.115 11.4896C113.768 7.70954 115.011 5.02152 116.843 3.42552C118.676 1.80851 121.393 1 124.994 1ZM129.291 6.19753C128.596 5.16853 127.069 4.65402 124.71 4.65402C122.351 4.65402 120.645 5.16853 119.592 6.19753C118.56 7.20554 117.802 9.11655 117.317 11.9306C116.812 14.7446 116.896 16.6661 117.57 17.6951C118.265 18.7031 119.792 19.2071 122.151 19.2071C124.51 19.2071 126.205 18.7031 127.237 17.6951C128.29 16.6661 129.07 14.7446 129.575 11.9306C130.081 9.11655 129.986 7.20554 129.291 6.19753Z" fill="white"/>
<path d="M105.319 1.2207C108.141 1.2207 110.068 1.73521 111.1 2.76421C112.153 3.77222 112.469 5.44173 112.048 7.77274L111.922 8.40275C111.69 9.76775 111.206 10.9123 110.468 11.8363C109.731 12.7393 108.815 13.3378 107.72 13.6318C108.794 13.8208 109.51 14.2723 109.868 14.9863C110.247 15.6793 110.331 16.6348 110.121 17.8528L109.268 22.6408H105.066L105.761 18.6088C105.993 17.3698 105.866 16.4983 105.382 15.9943C104.919 15.4903 104.002 15.2383 102.633 15.2383H96.7256L95.3987 22.6408H91.2285L95.0196 1.2207H105.319ZM107.688 8.24525C107.941 6.81724 107.836 5.88273 107.372 5.44173C106.909 5.00073 105.824 4.78022 104.118 4.78022H98.5896L97.3575 11.7418H102.886C104.592 11.7418 105.751 11.5213 106.361 11.0803C106.993 10.6393 107.435 9.69425 107.688 8.24525Z" fill="white"/>
<path d="M82.7085 1H83.4668C86.6471 1 88.8691 1.609 90.1328 2.82701C91.4176 4.02402 91.8388 5.96653 91.3965 8.65455H87.1631C87.3948 7.18454 87.142 6.16603 86.4049 5.59903C85.6888 5.01102 84.3724 4.71702 82.4558 4.71702C80.0969 4.71702 78.412 5.22103 77.401 6.22903C76.39 7.21604 75.6424 9.11655 75.1579 11.9306C74.6525 14.7446 74.7262 16.6556 75.3791 17.6636C76.0531 18.6506 77.5695 19.1441 79.9284 19.1441C81.845 19.1441 83.2667 18.8501 84.1934 18.2621C85.1412 17.6741 85.773 16.6241 86.0889 15.1121H90.2908C89.7642 17.8421 88.6585 19.8161 86.9735 21.0341C85.2886 22.2521 82.8349 22.8611 79.6125 22.8611H78.8543C75.2738 22.8611 72.8727 22.0631 71.6512 20.4671C70.4296 18.8711 70.1452 16.1726 70.7982 12.3716L70.9561 11.4896C71.609 7.70954 72.8306 5.02152 74.6209 3.42552C76.4322 1.80851 79.1281 1 82.7085 1Z" fill="white"/>
<path d="M63.934 1.22168H69.052L65.2608 22.6418H61.1222L64.1867 5.5057L58.8476 9.85273L56.6045 7.14371L63.934 1.22168Z" fill="#FFCC00"/>
<path d="M50.7826 1.22168H55.9006L52.1095 22.6418H47.9709L51.0353 5.5057L45.6962 9.85273L43.4531 7.14371L50.7826 1.22168Z" fill="#FFCC00"/>
<path d="M109.517 27.2334H109.737C111.965 27.2334 113.446 27.7389 114.18 28.7498C114.927 29.7607 115.08 31.5031 114.64 33.9772L114.6 34.2565C114.16 36.7306 113.386 38.473 112.279 39.484C111.185 40.4949 109.524 41.0003 107.296 41.0003H107.076C104.848 41.0003 103.361 40.4949 102.614 39.484C101.88 38.473 101.727 36.7306 102.153 34.2565L102.194 33.9772C102.647 31.5031 103.421 29.7607 104.515 28.7498C105.622 27.7389 107.29 27.2334 109.517 27.2334ZM109.437 28.251C107.516 28.251 106.109 28.6699 105.215 29.5079C104.335 30.3459 103.694 31.8822 103.294 34.1169C102.894 36.3382 102.987 37.8745 103.574 38.7258C104.175 39.5638 105.442 39.9828 107.376 39.9828C109.297 39.9828 110.698 39.5638 111.578 38.7258C112.472 37.8878 113.119 36.3515 113.519 34.1169C113.92 31.8955 113.82 30.3659 113.219 29.5279C112.632 28.6766 111.372 28.251 109.437 28.251Z" fill="white"/>
<path d="M100.371 27.333H101.451L99.0499 40.9004H96.6886L91.2258 28.3506H90.5854L88.3442 40.9004H87.2637L89.6649 27.333H92.0462L97.5091 39.8828H98.1494L100.371 27.333Z" fill="white"/>
<path d="M84.9629 40.9004H83.8623L86.2636 27.333H87.3641L84.9629 40.9004Z" fill="white"/>
<path d="M78.653 27.2334H78.8531C80.7607 27.2334 82.0214 27.5194 82.6351 28.0913C83.2487 28.65 83.4622 29.6875 83.2754 31.2039H82.1748C82.3082 30.02 82.1348 29.2286 81.6546 28.8296C81.1743 28.4172 80.1471 28.211 78.5729 28.211C77.0388 28.211 75.9649 28.3973 75.3512 28.7697C74.7376 29.1288 74.3374 29.8205 74.1506 30.8447C73.9638 31.9354 74.1239 32.6404 74.6309 32.9596C75.1378 33.2656 76.3651 33.4651 78.3128 33.5582C80.3405 33.6646 81.6212 33.9506 82.1548 34.4161C82.7018 34.8817 82.8485 35.8128 82.595 37.2094L82.555 37.4089C82.3282 38.7391 81.7746 39.6702 80.8941 40.2022C80.027 40.7343 78.6263 41.0003 76.6919 41.0003H76.4918C74.4641 41.0003 73.1301 40.7143 72.4897 40.1424C71.8627 39.5704 71.656 38.5063 71.8694 36.95H72.97C72.8232 38.1738 72.9967 38.9918 73.4903 39.4041C73.9838 39.8165 75.0778 40.0227 76.772 40.0227C78.4128 40.0227 79.5601 39.8364 80.2138 39.464C80.8675 39.0783 81.2877 38.3666 81.4745 37.3291C81.5945 36.9035 81.6279 36.5377 81.5745 36.2318C81.5345 35.9125 81.4611 35.6532 81.3544 35.4536C81.2477 35.2408 81.0276 35.0746 80.694 34.9548C80.3739 34.8218 79.987 34.7287 79.5334 34.6755C79.0932 34.609 78.5062 34.5624 77.7725 34.5358C75.6114 34.4427 74.2173 34.1701 73.5903 33.7178C72.9766 33.2523 72.7966 32.3345 73.05 30.9644L73.07 30.7649C73.2968 29.4614 73.8238 28.5502 74.6509 28.0315C75.4913 27.4994 76.8253 27.2334 78.653 27.2334Z" fill="white"/>
<path d="M69.4412 40.9004L68.7208 37.4088H61.1368L59.1758 40.9004H58.0352L65.6992 27.333H67.7603L70.6218 40.9004H69.4412ZM66.2395 28.3306L61.6971 36.4311H68.5007L66.8198 28.3306H66.2395Z" fill="white"/>
<path d="M54.1505 27.2334H54.3706C56.225 27.2334 57.5256 27.5859 58.2727 28.2909C59.0331 28.9825 59.3066 30.1264 59.0931 31.7226H57.9925C58.1526 30.4457 57.9258 29.5478 57.3122 29.0291C56.7119 28.5103 55.6313 28.251 54.0705 28.251C52.1895 28.251 50.8088 28.6699 49.9283 29.5079C49.0612 30.3459 48.4275 31.8822 48.0273 34.1169C47.6271 36.3382 47.7138 37.8745 48.2874 38.7258C48.8744 39.5638 50.1151 39.9828 52.0094 39.9828C53.5836 39.9828 54.7642 39.7167 55.5513 39.1847C56.3517 38.6526 56.9053 37.7348 57.2121 36.4313H58.3127C57.9525 38.0541 57.2655 39.2246 56.2516 39.9428C55.2378 40.6478 53.797 41.0003 51.9294 41.0003H51.7092C49.5214 41.0003 48.0607 40.4949 47.3269 39.484C46.6066 38.473 46.4598 36.7306 46.8867 34.2565L46.9267 33.9772C47.3803 31.5031 48.1474 29.7607 49.2279 28.7498C50.3218 27.7389 51.9627 27.2334 54.1505 27.2334Z" fill="white"/>
<path d="M30.6679 19.6953L25.0512 19.1562L16.4302 27.2421L2.45367 34.9236L1.14746 35.5974L3.36802 36.1365L10.291 36.8103L15.7771 36.1365L23.3531 31.4197L26.0961 28.994L27.2717 26.0292L29.1004 23.6035V21.3125L30.6679 19.6953Z" fill="white"/>
<path d="M28.0393 7.43489L19.9063 9.69912C19.8563 9.71305 19.8177 9.75122 19.8065 9.80194C19.553 10.9518 19.2937 14.9426 16.168 20.5027C12.5119 27.0063 3.38013 33.2587 0.399628 35.1403C0.29007 35.2095 0.318998 35.3709 0.447405 35.3881C4.8805 35.9843 16.5556 30.9968 16.8166 31.0119C16.8251 31.0123 16.8218 31.0185 16.8233 31.0268L17.0668 32.4083C17.0763 32.4625 17.0544 32.5173 17.0101 32.5499L16.2269 33.1271C16.1898 33.1544 16.168 33.1977 16.168 33.2436V35.6934C16.168 35.7181 16.1743 35.7423 16.1863 35.7639L18.6084 40.104C18.634 40.1498 18.6823 40.1782 18.7348 40.1782H28.2624C28.3561 40.1782 28.4251 40.0905 28.4031 39.9994L28.2 39.1613C28.1905 39.1223 28.1653 39.0889 28.1303 39.0693L26.7814 38.3101C26.7597 38.2979 26.7353 38.2915 26.7104 38.2915H24.4112C24.3313 38.2915 24.2665 38.2268 24.2665 38.1468V37.5147C24.2665 37.4938 24.262 37.4731 24.2532 37.4541L23.001 34.7411C22.9764 34.6877 22.9864 34.6248 23.0264 34.5818L26.0564 31.3255C26.0814 31.2987 26.0952 31.2635 26.0952 31.2269V29.3081C26.0952 29.1844 25.95 29.1177 25.8562 29.1984L23.1994 31.4826C23.1055 31.5633 22.9603 31.4966 22.9603 31.3729V30.8795V27.9328C22.9603 27.9208 22.9588 27.9089 22.9559 27.8973L22.1941 24.8845C22.1831 24.8408 22.1933 24.7942 22.221 24.7586C23.3175 23.3485 23.6045 21.9539 24.4317 21.7353C24.4889 21.7202 24.5473 21.7492 24.577 21.8003L26.8454 25.7008C26.8667 25.7374 26.9029 25.7629 26.9446 25.7705L29.0393 26.1519C29.0778 26.1589 29.1118 26.1811 29.1336 26.2136L30.1935 27.7932C30.2384 27.8601 30.3293 27.8774 30.3957 27.8318L31.4388 27.1143C31.4467 27.1089 31.4541 27.1027 31.4607 27.0958L31.9324 26.6092C31.9585 26.5822 31.9732 26.5461 31.9732 26.5085V25.8171C31.9732 25.7795 31.9585 25.7434 31.9324 25.7164L31.0732 24.83C31.0637 24.8202 31.0556 24.809 31.0492 24.7969L29.615 22.0843C29.5616 21.9832 29.4174 21.9811 29.3611 22.0807L28.6525 23.334C28.6116 23.4065 28.5181 23.4295 28.4481 23.3844L27.5738 22.8206C27.5467 22.8032 27.5263 22.7772 27.5156 22.7469L26.584 20.0919C26.5469 19.9861 26.6391 19.8785 26.7502 19.893C28.0079 20.0567 30.246 19.8444 30.3976 19.8297C30.4031 19.8292 30.4085 19.829 30.4141 19.8291L38.7029 19.9627C38.7428 19.9633 38.7813 19.9474 38.8091 19.9187L39.3778 19.332C39.404 19.305 39.4186 19.2688 39.4186 19.2312V13.7646V10.971C39.4186 10.9471 39.4127 10.9235 39.4013 10.9024L38.1321 8.54545C38.1192 8.52148 38.0998 8.50164 38.0761 8.4882L35.5369 7.04731C35.5128 7.03363 35.4853 7.02717 35.4576 7.02867L28.0703 7.4298C28.0598 7.43037 28.0494 7.43208 28.0393 7.43489Z" fill="#64C040"/>
<path d="M18.7939 4.56894L17.9272 4.28656C17.4979 4.14669 17.1278 4.58507 17.3323 4.99885C17.7514 5.84685 18.4327 7.18337 19.4499 9.10094C19.5223 9.23748 19.65 9.33697 19.7981 9.36693C23.7626 10.1691 26.881 8.36798 28.1349 7.20294C28.2528 7.09335 28.306 6.93113 28.2884 6.76837L27.892 3.08751C27.848 2.67841 27.3937 2.46915 27.069 2.70839L26.4041 3.19843C26.1639 3.37543 25.8294 3.31217 25.6656 3.0588L24.6558 1.49594C24.4289 1.14477 23.9165 1.18668 23.7461 1.57035L23.0037 3.24148C22.8545 3.57737 22.4294 3.66232 22.1694 3.40821L20.8389 2.10782C20.5551 1.83045 20.0875 1.96104 19.978 2.34821L19.4528 4.20584C19.3708 4.49612 19.0734 4.65999 18.7939 4.56894Z" fill="#FFCC00"/>
<path fill-rule="evenodd" clip-rule="evenodd" d="M24.3314 1.7212C24.2747 1.6334 24.1466 1.64388 24.104 1.7398L23.3616 3.41093C23.1005 3.99874 22.3565 4.14741 21.9016 3.7027L20.5711 2.40232C20.5002 2.33297 20.3832 2.36562 20.3559 2.46241L19.8307 4.32004C19.6871 4.82803 19.1667 5.11481 18.6776 4.95546L17.8109 4.67308C17.7771 4.66208 17.7531 4.66453 17.7367 4.6695C17.7187 4.67496 17.7025 4.68583 17.6901 4.70061C17.6778 4.71535 17.6708 4.73201 17.6687 4.74815C17.6668 4.76242 17.6675 4.7847 17.6831 4.8162C18.1001 5.65982 18.7794 6.99275 19.7953 8.90784C19.8141 8.94332 19.8458 8.96525 19.8752 8.9712C23.6895 9.743 26.6874 8.00638 27.8744 6.90351C27.8898 6.88921 27.9056 6.85987 27.9007 6.81402L27.5042 3.13316C27.4932 3.03088 27.3797 2.97857 27.2985 3.03838L26.6335 3.52841C26.2132 3.83816 25.6278 3.72747 25.3413 3.28406L25.6673 3.05979L25.3413 3.28405L24.3314 1.7212ZM23.3915 1.4029C23.6898 0.73148 24.5864 0.658141 24.9835 1.27268L25.9934 2.83553C26.0343 2.89888 26.118 2.91469 26.178 2.87044L26.843 2.38041C27.4111 1.96173 28.2061 2.32794 28.2832 3.04386L28.6796 6.72473C28.7097 7.00439 28.6193 7.29949 28.3988 7.50436C27.078 8.73158 23.8391 10.5973 19.7243 9.76466C19.4576 9.71069 19.2339 9.53365 19.1078 9.29603C18.0893 7.37599 17.4062 6.03588 16.9849 5.18351C16.616 4.43697 17.2999 3.65867 18.0469 3.90203L18.9136 4.18441C18.9835 4.20718 19.0578 4.16621 19.0783 4.09364L19.6035 2.23601C19.795 1.55846 20.6135 1.32993 21.1101 1.81532L22.4406 3.11571C22.5056 3.17924 22.6118 3.158 22.6491 3.07403L23.3915 1.4029Z" fill="black"/>
<path fill-rule="evenodd" clip-rule="evenodd" d="M28.4475 7.43163L28.4475 6.62305H34.5866C37.5531 6.62298 39.8294 9.09902 39.9418 11.9974C40.0467 14.7024 39.9858 17.8969 39.9421 19.1642C39.9404 19.3771 39.8708 19.6717 39.6675 19.9215C39.4487 20.1902 39.1058 20.3689 38.6359 20.3689H30.7707C30.7533 20.3689 30.7414 20.3721 30.7314 20.3767C30.4754 20.494 30.1357 20.6791 29.8671 20.8866C29.7324 20.9906 29.6293 21.0898 29.5633 21.1774C29.531 21.2203 29.5122 21.2543 29.5021 21.2789C29.4922 21.3029 29.4924 21.313 29.4924 21.3123C29.4924 21.4009 29.5262 21.5527 29.6099 21.7629C29.6902 21.9643 29.8028 22.1862 29.9275 22.4033C30.1825 22.8472 30.4568 23.2179 30.5532 23.3174C30.6108 23.3768 30.728 23.5253 30.6923 23.7385C30.6583 23.9422 30.5103 24.0413 30.45 24.0757C30.3221 24.1485 30.1565 24.1746 30.0378 24.1882C29.7676 24.2194 29.4051 24.2164 29.096 24.1986C28.5332 24.1661 28.2023 23.6191 28.3134 23.1033L28.7103 21.2606C28.7244 21.0294 28.831 20.8319 28.9446 20.6811C29.0695 20.5153 29.2323 20.3668 29.3975 20.2392C29.7286 19.9835 30.1247 19.77 30.4131 19.6378C30.5292 19.5846 30.6503 19.5604 30.7707 19.5604H38.6359C38.8975 19.5604 39.0118 19.4696 39.0673 19.4014C39.1357 19.3174 39.1584 19.2121 39.1584 19.1561V19.1416C39.2018 17.8891 39.2627 14.7109 39.1587 12.0298C39.0621 9.53762 37.1064 7.43158 34.5867 7.43163H28.4475ZM29.1989 22.7193L29.0784 23.2787C29.0701 23.3174 29.0795 23.3472 29.0916 23.3649C29.1022 23.3804 29.1163 23.3899 29.1399 23.3913C29.3016 23.4006 29.4698 23.4049 29.6228 23.4028C29.502 23.2269 29.373 23.024 29.2533 22.8155C29.2351 22.7838 29.2169 22.7517 29.1989 22.7193Z" fill="black"/>
<path fill-rule="evenodd" clip-rule="evenodd" d="M20.4421 9.24798C20.6236 9.36967 20.675 9.62008 20.5571 9.80729C20.4467 9.98259 20.2783 10.3928 20.0801 10.9613C19.8875 11.5138 19.6806 12.1736 19.4888 12.8141C19.1069 14.089 18.789 15.2728 18.7682 15.3506C18.7681 15.3509 18.7683 15.3503 18.7682 15.3506L18.7676 15.3531L18.7654 15.3611L18.7645 15.3641L18.7641 15.3654L18.7637 15.3666C18.7097 15.5485 14.9809 27.9742 1.20191 35.0149C1.12844 35.0528 1.06615 35.0884 1.01345 35.1212C3.83298 36.0396 9.97083 37.2308 15.6508 35.754C15.6566 35.7525 15.6631 35.7501 15.6683 35.7478C15.7291 35.7201 15.7801 35.6956 15.8226 35.6738C15.7688 35.5819 15.7098 35.4611 15.6723 35.3076C15.5941 35.0777 15.5615 34.8926 15.5696 34.6676C15.5751 34.5152 15.6008 34.3375 15.6317 34.1237C15.641 34.0598 15.6507 33.9927 15.6605 33.922C15.7007 33.6317 15.7947 33.4041 15.9344 33.2231C16.0705 33.0468 16.2311 32.9402 16.3559 32.8655C16.3846 32.8483 16.4108 32.8327 16.4347 32.8185C16.64 32.6965 16.6761 32.675 16.7012 32.5855C16.7012 32.5848 16.7012 32.5841 16.7012 32.5833C16.6955 32.0889 16.6018 31.5027 16.4359 30.9995C16.2625 30.473 16.042 30.1342 15.8468 30.0134C15.6612 29.8985 15.601 29.6502 15.7124 29.4587C15.8237 29.2673 16.0644 29.2052 16.25 29.3201C16.6973 29.5969 16.9929 30.1775 17.178 30.7392C17.3707 31.3241 17.4781 31.9949 17.4849 32.5736C17.4856 32.6345 17.4808 32.7094 17.4596 32.7899C17.3425 33.2343 17.0016 33.4238 16.8129 33.5287C16.789 33.542 16.7675 33.554 16.7492 33.5649C16.6516 33.6233 16.5919 33.6692 16.5475 33.7268C16.5065 33.7798 16.4597 33.8676 16.4363 34.0364C16.4232 34.1313 16.4115 34.2126 16.4013 34.2835C16.3732 34.4782 16.3565 34.5939 16.3528 34.6977C16.349 34.801 16.359 34.8838 16.4103 35.0353C16.4636 35.1479 16.5206 35.2675 16.5808 35.3928C16.5819 35.3944 16.5829 35.3961 16.5839 35.3977C16.608 35.4364 16.6479 35.503 16.6733 35.5846C17.0676 36.3996 17.5735 37.4093 18.0458 38.2781C18.3418 38.8226 18.6199 39.303 18.8465 39.644C18.9608 39.816 19.0542 39.9406 19.1242 40.0181C19.1329 40.0277 19.1406 40.036 19.1475 40.043C19.6767 40.0383 21.9203 40.0061 24.2418 39.9718C24.2698 39.7956 24.2634 39.5988 24.1936 39.4264C24.1028 39.2023 23.8654 38.9239 23.1913 38.8286C22.4654 38.7713 21.9681 38.7643 21.6514 38.7758C21.2373 38.7908 20.7688 38.5497 20.5977 38.0907L19.5969 35.4063C19.4634 35.048 19.5535 34.642 19.825 34.3794L22.8291 31.4737L22.5839 27.7262C22.5832 27.7162 22.5819 27.709 22.5803 27.703C22.4487 27.2167 22.2082 26.4914 21.9047 25.8557C21.7528 25.5376 21.5907 25.2538 21.4259 25.0363C21.2556 24.8114 21.1109 24.6957 21.0051 24.6547C20.8024 24.5763 20.6997 24.3433 20.7757 24.1342C20.8517 23.9252 21.0776 23.8192 21.2802 23.8976C21.5853 24.0157 21.8389 24.2684 22.0434 24.5383C22.2534 24.8154 22.4426 25.1526 22.6078 25.4984C22.9382 26.1907 23.1944 26.9655 23.3351 27.4855C23.3521 27.5483 23.3618 27.6103 23.3658 27.6717L23.5679 30.7592L25.7784 28.6211L26.8308 26.0875L23.8371 22.0979C23.7046 21.9214 23.7359 21.6675 23.9071 21.5308C24.0782 21.3941 24.3243 21.4264 24.4568 21.603L27.4741 25.6238H29.1106C29.6227 25.6238 30.0053 26.0473 30.048 26.5296C30.0727 26.8097 30.1175 27.0883 30.1835 27.2989C30.212 27.3898 30.2406 27.4555 30.2657 27.4992C30.2931 27.4866 30.3275 27.4681 30.3683 27.4422C30.5052 27.3552 30.6721 27.2105 30.8308 27.0244C31.1621 26.636 31.3685 26.1768 31.3239 25.8087C31.2347 25.0718 30.9262 24.6692 30.5363 24.3072C30.4264 24.2052 30.3138 24.1833 30.1681 24.2048C30.0305 24.225 29.903 24.2762 29.7526 24.3366C29.7134 24.3523 29.6727 24.3686 29.6298 24.3852C29.0822 24.5971 28.2093 24.4137 27.6027 23.4124C27.3129 22.9341 27.0724 22.263 26.8905 21.6444C26.7064 21.0182 26.5725 20.4108 26.5048 20.0383C26.465 19.8188 26.6051 19.6075 26.8178 19.5664C27.0305 19.5252 27.2353 19.6698 27.2751 19.8893C27.3381 20.2354 27.4654 20.814 27.6405 21.4097C27.8179 22.0129 28.0345 22.5996 28.2673 22.9838C28.7056 23.7075 29.2056 23.6858 29.3546 23.6281C29.3777 23.6192 29.4044 23.6083 29.4342 23.5962C29.5866 23.5342 29.8199 23.4393 30.0572 23.4043C30.3687 23.3584 30.735 23.4039 31.0606 23.7062C31.5415 24.1527 31.9819 24.7204 32.1016 25.7085C32.1876 26.4185 31.8062 27.1048 31.4192 27.5586C31.2186 27.7937 30.9937 27.9944 30.7795 28.1306C30.6729 28.1984 30.5582 28.257 30.4422 28.2926C30.3335 28.3259 30.1793 28.3527 30.0214 28.2984C29.8345 28.2341 29.7086 28.095 29.6269 27.9695C29.5437 27.8416 29.4832 27.6927 29.4378 27.5475C29.3465 27.2563 29.2947 26.9113 29.2675 26.6031C29.2577 26.4925 29.1755 26.4324 29.1106 26.4324H27.5402L26.4981 28.9411V31.2839C26.4981 31.3941 26.4667 31.492 26.4385 31.5618C26.4083 31.6365 26.3684 31.7108 26.3258 31.7812C26.2404 31.922 26.1248 32.0784 25.9955 32.2391C25.7359 32.5618 25.3919 32.9379 25.0477 33.3015C24.8176 33.5445 24.5821 33.7875 24.3683 34.0081C24.2624 34.1173 24.1619 34.2211 24.0699 34.3167C23.9295 34.4626 23.8093 34.5892 23.7169 34.6909C23.6707 34.7417 23.6333 34.7842 23.6048 34.8183C23.6023 34.8213 23.6 34.8242 23.5977 34.8269C23.602 34.8778 23.6144 34.9535 23.6387 35.0562C23.6913 35.2785 23.786 35.5732 23.908 35.9082C24.1508 36.575 24.4855 37.3573 24.7535 37.9493C24.773 37.9925 24.816 38.0221 24.8673 38.0221H27.2052C27.2912 38.0221 27.3867 38.0343 27.4832 38.0687C28.3834 38.3899 28.7251 39.1737 28.8215 39.7627C28.9167 40.3444 28.4316 40.7178 27.9933 40.7244C27.0055 40.7394 25.7745 40.7578 24.5444 40.776C21.9372 40.8146 19.3262 40.8521 19.0527 40.8521C18.9047 40.8521 18.7914 40.7805 18.734 40.7389C18.6668 40.6902 18.6051 40.6294 18.5509 40.5694C18.4415 40.4483 18.3224 40.2853 18.2001 40.1012C17.9534 39.73 17.6617 39.2245 17.3623 38.6737C16.9653 37.9435 16.5466 37.1184 16.1884 36.3892C16.125 36.4222 16.0568 36.4547 15.9847 36.4875C15.9389 36.5084 15.8905 36.5255 15.8423 36.5381C9.74057 38.1245 3.1798 36.7362 0.445135 35.7802C0.326092 35.7386 0.186884 35.6557 0.0938935 35.514C0.0447593 35.4391 0.00454745 35.3406 0.000357676 35.224C-0.00393108 35.1047 0.0306337 34.9944 0.0887046 34.9025C0.22163 34.6922 0.469218 34.4888 0.851952 34.2914L0.853291 34.2907C14.2521 27.4447 17.9332 15.4 18.0132 15.1337C18.0378 15.0418 18.3568 13.8548 18.74 12.5754C18.9334 11.9298 19.1442 11.2568 19.3427 10.6876C19.5356 10.1343 19.7317 9.63374 19.9 9.36662C20.0179 9.17941 20.2607 9.12629 20.4421 9.24798ZM25.7144 29.7914L20.361 34.9693C20.3222 35.0068 20.3093 35.0648 20.3284 35.116L21.3292 37.8005C21.3586 37.8795 21.4796 37.973 21.6239 37.9677C21.9791 37.9548 22.5104 37.9636 23.2626 38.0233C23.2699 38.0239 23.2772 38.0246 23.2844 38.0256C23.5618 38.0638 23.8036 38.1306 24.0117 38.2213C23.745 37.6288 23.4175 36.8603 23.1743 36.1926C23.0485 35.8469 22.941 35.517 22.8773 35.2478C22.8458 35.1144 22.8216 34.982 22.8144 34.863C22.8088 34.7687 22.8054 34.5852 22.9065 34.4287C22.9601 34.3459 23.052 34.2402 23.1453 34.1377C23.2457 34.0272 23.3725 33.8938 23.5137 33.747C23.6095 33.6474 23.7121 33.5416 23.8191 33.4312C24.031 33.2126 24.26 32.9764 24.4871 32.7365C24.8286 32.3757 25.1541 32.019 25.3924 31.7227C25.5122 31.5738 25.6027 31.4491 25.6612 31.3525C25.6896 31.3058 25.706 31.2729 25.7144 31.2525V29.7914ZM25.7195 31.2385C25.7196 31.2382 25.7194 31.2389 25.7189 31.2406L25.7195 31.2385ZM24.7624 38.8245C24.8242 38.9158 24.8755 39.0128 24.9167 39.1145C25.0326 39.4006 25.0568 39.6956 25.0328 39.9601C26.0924 39.9444 27.128 39.9289 27.9818 39.9159C28.0164 39.9154 28.039 39.9016 28.048 39.893C27.9788 39.4766 27.7588 39.0226 27.227 38.8329C27.2274 38.833 27.2208 38.8307 27.2052 38.8307H24.8673C24.832 38.8307 24.797 38.8286 24.7624 38.8245ZM30.2987 27.5465C30.2987 27.5465 30.2991 27.5469 30.2987 27.5465V27.5465ZM19.1843 40.0771C19.1839 40.0769 19.1834 40.0765 19.1828 40.076C19.1876 40.079 19.1882 40.0799 19.1843 40.0771ZM25.8453 14.0342C26.0617 14.0342 26.2371 14.2152 26.2371 14.4384V15.9208C26.2371 16.1188 26.3029 16.4304 26.4939 16.6829C26.6709 16.917 26.9791 17.1337 27.5433 17.1337H38.2116C38.4128 17.1337 38.604 17.2021 38.7615 17.3251L39.6561 18.0243C39.8286 18.1592 39.8625 18.4128 39.7318 18.5907C39.6011 18.7687 39.3553 18.8037 39.1828 18.6689L38.2882 17.9696C38.2641 17.9508 38.2383 17.9423 38.2116 17.9423H27.5433C26.7491 17.9423 26.2083 17.6199 25.8759 17.1802C25.5574 16.759 25.4534 16.262 25.4534 15.9208V14.4384C25.4534 14.2152 25.6288 14.0342 25.8453 14.0342ZM18.0141 15.3615L18.011 15.35C18.01 15.3463 18.009 15.3421 18.008 15.3375C18.0101 15.3471 18.0121 15.3544 18.0133 15.3587L18.0141 15.3615ZM17.9999 15.2878C17.9991 15.2799 17.9986 15.2724 17.9983 15.2655C17.9984 15.2673 17.9985 15.2691 17.9986 15.2709C17.9989 15.2766 17.9994 15.2822 17.9999 15.2878Z" fill="black"/>
<ellipse cx="25.1812" cy="11.7431" rx="1.30621" ry="1.34764" fill="black"/>
<ellipse cx="24.7898" cy="11.6094" rx="0.653107" ry="0.673818" fill="white"/>
<path d="M36.5197 13.601C36.2043 14.0997 36.5413 14.9029 36.058 14.5775C35.5747 14.2521 35.4386 13.5841 35.754 13.0854C36.0695 12.5868 36.717 12.4464 37.2003 12.7719C37.6836 13.0973 36.8352 13.1024 36.5197 13.601Z" fill="black"/>
</svg>
