<svg width="16" height="17" viewBox="0 0 16 17" fill="none" xmlns="http://www.w3.org/2000/svg">
<g clip-path="url(#clip0_15170_1413)">
<rect y="0.509521" width="16" height="16" rx="8" fill="black"/>
<path fill-rule="evenodd" clip-rule="evenodd" d="M5.03425 9.26538L7.67342 7.02877L8.45602 11.5861L10.1161 5.49151L13.8477 9.40627L14.49 5.95874L18.463 13.9013L20.5992 15.1431L16.7891 21.0188L17.8899 21.9323L14.4361 27.4688L5.54295 27.3669L5.46668 26.1006L1.02577 27.3141L2.34564 24.9012L-0.74496 23.3161L-2.32883 16.689L-0.172263 18.2291L-1.4128 13.229L0.752991 13.5818L2.60531 4.65426L5.03425 9.26538Z" fill="#FF4401"/>
<path fill-rule="evenodd" clip-rule="evenodd" d="M5 9.9753L7.50773 9.60236L6.57056 15.1299L11.1759 7.63144L8.46112 7.89414L9.35391 2.50952L5 9.9753Z" fill="#FEFEFE"/>
</g>
<defs>
<clipPath id="clip0_15170_1413">
<rect y="0.509521" width="16" height="16" rx="8" fill="white"/>
</clipPath>
</defs>
</svg>
