<svg width="115" height="36" viewBox="0 0 115 36" fill="none" xmlns="http://www.w3.org/2000/svg">
<g clip-path="url(#clip0_8411_264839)">
<path d="M33.368 18.1959C34.6509 16.7735 35.4101 14.8606 35.3116 12.7676C35.1219 8.70529 31.6353 5.57824 27.5864 5.57824H26.8062V2.71235C26.8062 1.23706 25.6147 0.0405884 24.1456 0.0405884H23.2669V5.57824H19.3762V2.71235C19.3762 1.23706 18.1847 0.0405884 16.7156 0.0405884H15.8369V5.57824H0.5271C0.5271 8.32765 2.74836 10.5582 5.48628 10.5582H26.7324C28.1488 10.5582 29.2981 11.7124 29.2981 13.1347C29.2981 14.5571 28.1488 15.7112 26.7324 15.7112H6.42821C6.42821 17.7724 7.67591 19.5441 9.45784 20.2994C10.0518 20.5535 10.7055 20.6912 11.3909 20.6912H26.6269C27.966 20.6912 29.161 21.6759 29.2875 23.0135C29.4316 24.5488 28.2331 25.8406 26.7359 25.8406H11.6615C11.6615 28.3218 13.4716 30.3724 15.8369 30.75V35.9594H16.7156C18.1847 35.9594 19.3762 34.7629 19.3762 33.2876V30.8135H23.2669V35.9559H24.1456C25.6147 35.9559 26.8062 34.7594 26.8062 33.2841V30.81H27.8008C31.9551 30.81 35.3222 27.4288 35.3222 23.2571C35.3222 21.3053 34.5771 19.5335 33.368 18.1924V18.1959Z" fill="#FFAF13"/>
</g>
<path d="M39 16.12V1H45.3049C46.437 1 47.3844 1.15996 48.1473 1.47988C48.9151 1.7998 49.491 2.24769 49.8749 2.82355C50.2637 3.39941 50.4581 4.06633 50.4581 4.8243C50.4581 5.40016 50.3375 5.91449 50.0964 6.3673C49.8552 6.8152 49.523 7.1868 49.0997 7.48211C48.6764 7.77742 48.1867 7.98414 47.6305 8.10227V8.24992C48.2408 8.27945 48.8044 8.44434 49.3212 8.74457C49.8429 9.0448 50.2613 9.46316 50.5763 9.99965C50.8912 10.5312 51.0487 11.1612 51.0487 11.8896C51.0487 12.7018 50.842 13.4277 50.4286 14.0676C50.0152 14.7025 49.4171 15.2045 48.6346 15.5737C47.852 15.9379 46.9021 16.12 45.7848 16.12H39ZM42.6545 13.1743H44.9136C45.7061 13.1743 46.2893 13.0241 46.6634 12.7239C47.0423 12.4237 47.2318 12.0053 47.2318 11.4688C47.2318 11.08 47.1408 10.7453 46.9587 10.4648C46.7766 10.1793 46.5182 9.96027 46.1835 9.8077C45.8488 9.6502 45.4477 9.57144 44.9801 9.57144H42.6545V13.1743ZM42.6545 7.21633H44.6774C45.0761 7.21633 45.4304 7.14988 45.7405 7.01699C46.0506 6.8841 46.2918 6.69215 46.464 6.44113C46.6412 6.19012 46.7298 5.88742 46.7298 5.53305C46.7298 5.02609 46.5502 4.62742 46.1909 4.33703C45.8316 4.04664 45.3468 3.90145 44.7364 3.90145H42.6545V7.21633Z" fill="white"/>
<path d="M52.8059 16.12V1H63.3485V3.96789H56.4604V7.06867H62.8096V10.0439H56.4604V13.1521H63.3485V16.12H52.8059Z" fill="white"/>
<path d="M65.1425 3.96789V1H77.9222V3.96789H73.3375V16.12H69.7346V3.96789H65.1425Z" fill="white"/>
<path d="M39 35.3927V20.2727H49.3212V23.2406H42.6545V26.3414H48.6641V29.3167H42.6545V35.3927H39Z" fill="white"/>
<path d="M51.1613 35.3927V20.2727H54.8158V32.4248H61.106V35.3927H51.1613Z" fill="white"/>
<path d="M93.0053 35.3927V20.2727H103.548V23.2406H96.6598V26.3414H103.009V29.3167H96.6598V32.4248H103.548V35.3927H93.0053Z" fill="white"/>
<path fill-rule="evenodd" clip-rule="evenodd" d="M66.4714 35.3927H62.5438L67.6453 20.2727H72.5106L77.6121 35.3927H73.6845L72.6877 32.2181H67.4661L66.4714 35.3927ZM70.0152 24.0823H70.1333L71.8162 29.4422H68.3358L70.0152 24.0823Z" fill="white"/>
<path fill-rule="evenodd" clip-rule="evenodd" d="M79.24 35.3927V20.2727H85.4859C86.6179 20.2727 87.5949 20.477 88.4169 20.8855C89.2437 21.2891 89.8811 21.8699 90.329 22.6279C90.7769 23.3809 91.0008 24.2742 91.0008 25.3078C91.0008 26.3562 90.772 27.247 90.3142 27.9804C89.8598 28.7036 89.2162 29.2569 88.3834 29.6405L91.5176 35.3927H87.5309L84.7663 30.2174H82.8945V35.3927H79.24ZM86.0765 27.124C85.7074 27.2667 85.2472 27.3381 84.6959 27.3381H82.8945V23.2185H84.6959C85.2422 23.2185 85.7024 23.2972 86.0765 23.4547C86.4506 23.6073 86.7336 23.8386 86.9255 24.1487C87.1175 24.4539 87.2135 24.8402 87.2135 25.3078C87.2135 25.7754 87.1175 26.1593 86.9255 26.4595C86.7336 26.7548 86.4506 26.9763 86.0765 27.124Z" fill="white"/>
<defs>
<clipPath id="clip0_8411_264839">
<rect width="35.8495" height="36" fill="white"/>
</clipPath>
</defs>
</svg>
