<svg width="170" height="36" viewBox="0 0 170 36" fill="none" xmlns="http://www.w3.org/2000/svg">
<g clip-path="url(#clip0_2560_48027)">
<path d="M39.1729 4.4509L23.7982 0.213952C23.7774 0.206937 23.7531 0.203429 23.7323 0.199922C22.9371 0.0666407 21.892 0 20.8469 0C19.8018 0 18.7567 0.0666407 17.9581 0.199922C17.9338 0.203429 17.9129 0.210444 17.8921 0.213952L2.51395 4.4509C0.909812 4.72447 -0.20822 6.23967 0.031358 7.82151L2.11812 27.6594C2.3577 29.2447 3.86114 30.8055 5.45486 31.1352L17.8956 35.7334C17.9268 35.744 17.9581 35.7545 17.9928 35.7615C18.7844 35.9193 19.8122 35.9965 20.8434 35.9965C21.8747 35.9965 22.9024 35.9193 23.6906 35.7615C23.7253 35.7545 23.7566 35.744 23.7878 35.7334L36.2285 31.1352C37.8223 30.8055 39.3257 29.2412 39.5653 27.6594L40.4507 19.2311L40.9402 14.5943L41.6486 7.82151C41.8916 6.23967 40.7736 4.72447 39.1694 4.4544L39.1729 4.4509ZM23.1802 33.6044C23.142 33.6185 23.1073 33.629 23.0691 33.636C22.4719 33.7377 21.6767 33.7973 20.8469 33.7973C20.0171 33.7973 19.2185 33.7377 18.6247 33.636C18.5865 33.629 18.5518 33.6185 18.5136 33.6044L6.24998 29.0729L6.09026 29.0132L5.92707 28.9817C5.25695 28.8414 4.47571 28.0382 4.35419 27.3683L2.26742 7.59353L2.26048 7.54443V7.49532C2.19104 7.10249 2.49311 6.69213 2.89935 6.62198L3.01046 6.60444L3.12504 6.57288L18.3713 2.3675C18.3956 2.36048 18.4233 2.35347 18.4476 2.34996C19.0831 2.25526 19.9441 2.19914 20.8434 2.19914C21.7427 2.19914 22.6003 2.25175 23.2357 2.34996C23.2635 2.35347 23.2878 2.36048 23.3121 2.3675L38.5653 6.57288L38.6764 6.60444L38.791 6.62198C39.1938 6.69213 39.4924 7.09899 39.4333 7.49532L39.4264 7.54443V7.59353L38.7493 13.991L38.6347 15.0853L38.1035 20.115L38.0549 20.5744L37.3431 27.3683C37.2181 28.0382 36.4369 28.8379 35.7702 28.9817L35.607 29.0132L35.4473 29.0729L23.1837 33.6044H23.1802Z" fill="#FFD203"/>
<path d="M14.8265 4.84029L4.25729 7.75495C3.97605 7.83211 3.78855 8.09867 3.8198 8.38628L5.77809 26.9825C5.78851 27.0913 5.83018 27.1965 5.89615 27.2807C5.95517 27.3508 6.02462 27.4245 6.09406 27.4806C6.16698 27.5437 6.25725 27.5823 6.351 27.5998L6.49683 27.6314L6.76071 27.7296L14.823 30.7109L18.8855 32.2121C18.9271 32.2261 18.9688 32.2366 19.0105 32.2436C19.375 32.2963 19.7049 32.0192 19.7049 31.6579V22.6825C19.7049 22.4369 19.5521 22.216 19.316 22.1283L15.6425 20.7499C15.2467 20.6026 14.823 20.8867 14.823 21.3041V24.7378C14.823 25.1517 14.4029 25.4393 14.0071 25.292L10.7085 24.0714C10.4933 23.9907 10.344 23.8013 10.3197 23.5769L9.08705 11.9042C9.05581 11.6166 9.23983 11.35 9.52455 11.2729L14.0557 10.0207C14.4411 9.91551 14.823 10.1996 14.823 10.5924V13.0792C14.823 13.4615 15.1911 13.7456 15.5696 13.6544L19.2431 12.774C19.5139 12.7109 19.7049 12.4724 19.7049 12.1988V4.31769C19.7049 3.96695 19.3924 3.68987 19.0382 3.72845C18.941 3.73897 18.8507 3.74949 18.7639 3.76001C18.7362 3.76352 18.7084 3.77054 18.6771 3.77755L14.8265 4.84029Z" fill="#FFD203"/>
<path d="M35.7907 27.2806C35.8602 27.1964 35.8984 27.0912 35.9088 26.9825L36.5338 21.0269C36.6136 20.2763 36.2352 19.5468 35.5685 19.168L34.322 18.249C33.954 17.9789 34.0199 17.4178 34.4401 17.2354L36.2004 16.4673C36.7421 16.1586 37.1032 15.615 37.1692 15.0012L37.8636 8.3897C37.8949 8.10209 37.7108 7.83553 37.4261 7.75837L26.8569 4.84371L23.0063 3.78097C22.9785 3.77395 22.9507 3.76694 22.9195 3.76343C22.8327 3.75291 22.7389 3.74239 22.6452 3.73187C22.2875 3.69328 21.9785 3.97037 21.9785 4.32111V31.6613C21.9785 32.0226 22.3049 32.2997 22.6695 32.2471H22.6729C22.7181 32.2401 22.7563 32.2295 22.7979 32.2155L26.8534 30.7143L35.1831 27.6348L35.3289 27.6033C35.4227 27.5822 35.513 27.5436 35.5859 27.484C35.6553 27.4279 35.7248 27.3542 35.7838 27.2841L35.7907 27.2806ZM32.1554 11.2763C32.4366 11.3535 32.6241 11.62 32.5929 11.9076L32.4401 13.3527L32.4123 13.6333C32.3047 14.6609 31.4228 15.4396 30.3707 15.4396H27.461C27.1277 15.4396 26.8569 15.173 26.8569 14.8468V10.5959C26.8569 10.203 27.2388 9.91893 27.6242 10.0241L32.1554 11.2728V11.2763ZM31.4853 22.4509L31.3672 23.5768C31.3429 23.8012 31.1936 23.9906 30.9783 24.0713L27.6763 25.2919C27.2805 25.4392 26.8604 25.1516 26.8604 24.7377V20.8234C26.8604 20.4973 27.1312 20.2307 27.4645 20.2307H29.4436C30.6589 20.2307 31.6103 21.2654 31.4853 22.4509Z" fill="#FFD203"/>
<path d="M47.5064 28.3784L45.6279 26.5335V11.5603L47.5064 9.66284H60.8498L62.7283 11.5603V15.2782H58.9436V13.4052H49.4404V24.636H58.9436V22.7911H62.7283V26.5335L60.8498 28.3784H47.5064Z" fill="white"/>
<path d="M63.4124 28.3784V15.3027L69.1032 9.66284H80.5127V28.3784H76.7281V22.7911H67.2248V28.3784H63.4124ZM76.7281 19.0451V13.4052H71.0094L67.2248 17.1757V19.0487H76.7281V19.0451Z" fill="white"/>
<path d="M83.6167 28.3784L81.7383 26.5335V22.7911H85.5507V24.636H95.054V20.9181H83.6167L81.7383 19.5818V11.5603L83.6167 9.66284H96.9602L98.8386 11.5603V15.2782H95.054V13.4052H85.5507V17.1476H96.9602L98.8386 19.0206V26.5335L96.9602 28.3784H83.6167Z" fill="white"/>
<path d="M99.7939 28.3784V15.3027L105.485 9.66284H116.894V28.3784H113.11V22.7911H103.606V28.3784H99.7939ZM113.11 19.0451V13.4052H107.391L103.606 17.1757V19.0487H113.11V19.0451Z" fill="white"/>
<path d="M118.258 28.3784V9.65942H133.48L135.358 11.5569V17.1723L133.48 19.0452L135.358 20.9182V26.5335L133.48 28.3784H118.258ZM131.574 17.1723V13.4018H122.07V17.1723H131.574ZM131.574 24.6325V20.9147H122.07V24.6325H131.574Z" fill="#FFD203"/>
<path d="M136.584 28.3784V9.65942H152.761V13.4018H140.396V17.1723H151.806V20.9147H140.396V24.6325H152.761V28.3749H136.584V28.3784Z" fill="#FFD203"/>
<path d="M159.57 28.3784V13.4052H152.897V9.66284H169.997V13.4052H163.379V28.3784H159.567H159.57Z" fill="#FFD203"/>
</g>
<defs>
<clipPath id="clip0_2560_48027">
<rect width="170" height="36" fill="white"/>
</clipPath>
</defs>
</svg>
