<svg xmlns="http://www.w3.org/2000/svg" width="180" height="32" viewBox="0 0 180 32" fill="none">
  <path d="M30.6422 7.82479C30.6422 7.82479 32.4372 7.86958 33.8259 8.9776C29.5133 2.10552 23.8478 0 17.0444 0C9.58998 0 3.35105 5.18168 1.72935 12.1404C0.725864 10.5067 0.522778 9.65555 0.251001 9.00448C-1.09295 17.2086 3.41377 23.5729 3.41377 23.5729C3.41377 23.5729 1.64274 23.4923 0.328651 22.444C4.5845 29.2235 10.1544 31.3947 16.8413 31.4485C16.91 31.4485 16.9787 31.4485 17.0474 31.4485C17.0564 31.4485 17.0653 31.4485 17.0743 31.4485C17.0862 31.4485 17.0982 31.4485 17.1071 31.4485C17.1071 31.4485 17.1071 31.4485 17.1101 31.4485C17.7911 31.4485 18.463 31.4037 19.1231 31.32C21.1271 31.0662 24.3167 30.1344 26.7269 28.1155C26.7328 28.1095 26.7388 28.1065 26.7478 28.1005C26.7537 28.0975 26.7597 28.0916 26.7627 28.0886C29.0265 26.3385 30.7975 23.9164 31.816 21.1329C31.816 21.1299 31.816 21.1239 31.8189 21.1209C31.8548 21.0224 31.8876 20.9268 31.9235 20.8283C31.9384 20.7805 31.9563 20.7327 31.9713 20.6879C31.9862 20.6431 32.0011 20.6013 32.0131 20.5565C32.037 20.4818 32.0609 20.4042 32.0847 20.3295C32.0937 20.3026 32.0997 20.2787 32.1086 20.2519C32.1355 20.1623 32.1624 20.0727 32.1863 19.9801C32.1923 19.9592 32.1982 19.9413 32.2012 19.9203C32.2281 19.8248 32.252 19.7292 32.2789 19.6307C32.2789 19.6187 32.2848 19.6068 32.2878 19.5978C32.3147 19.4963 32.3386 19.3977 32.3625 19.2962C32.3625 19.2962 32.3625 19.2902 32.3625 19.2872C33.4227 20.9895 33.5422 21.772 33.817 22.435C35.1609 14.231 30.6393 7.82479 30.6393 7.82479H30.6422ZM28.1126 17.8089L19.5382 26.3833C18.3077 27.6137 16.3097 27.6137 15.0763 26.3833L6.50187 17.8089C5.27141 16.5784 5.27141 14.5804 6.50187 13.3469L15.0763 4.77252C16.3067 3.54206 18.3048 3.54206 19.5382 4.77252L28.1126 13.3469C29.3431 14.5774 29.3431 16.5754 28.1126 17.8089Z" fill="#00DA4F"/>
  <path d="M12.5883 18.3167C14.1008 18.3167 15.327 17.0906 15.327 15.578C15.327 14.0655 14.1008 12.8394 12.5883 12.8394C11.0758 12.8394 9.84961 14.0655 9.84961 15.578C9.84961 17.0906 11.0758 18.3167 12.5883 18.3167Z" fill="#00DA4F"/>
  <path d="M21.5302 18.4329C23.0427 18.4329 24.2689 17.2068 24.2689 15.6942C24.2689 14.1817 23.0427 12.9556 21.5302 12.9556C20.0177 12.9556 18.7915 14.1817 18.7915 15.6942C18.7915 17.2068 20.0177 18.4329 21.5302 18.4329Z" fill="#00DA4F"/>
  <path d="M53.4415 7.92343C52.8472 7.85176 52.2798 7.81592 51.7392 7.81592C49.4694 7.81592 47.7282 8.18924 46.5127 8.93588C45.2972 9.68252 44.5177 10.8801 44.1683 12.5317C44.0727 12.9289 44.0249 13.3082 44.0249 13.6755C44.0249 14.5655 44.2937 15.2913 44.8343 15.8527C45.3748 16.4172 46.1603 16.8891 47.1907 17.2684C48.1105 17.6029 48.8094 17.8597 49.2842 18.0419C49.7591 18.2241 49.9592 18.5138 49.8786 18.911C49.8158 19.2604 49.5978 19.4993 49.2245 19.6248C48.8512 19.7532 48.3465 19.8159 47.7133 19.8159C46.9667 19.8159 46.1693 19.7054 45.3211 19.4814C44.4729 19.2604 43.7143 18.9737 43.0483 18.6243L42.1912 22.6233C42.7944 22.9399 43.565 23.1877 44.4998 23.361C45.4346 23.5342 46.4201 23.6238 47.4505 23.6238C49.783 23.6238 51.5719 23.1907 52.8173 22.3276C54.0627 21.4615 54.8363 20.3147 55.1379 18.8871C55.2335 18.46 55.2813 18.0389 55.2813 17.6268C55.2813 16.7846 55.0244 16.0319 54.5077 15.3659C53.9911 14.6999 53.0593 14.1683 51.7093 13.7711C50.9 13.5322 50.3086 13.347 49.9353 13.2126C49.562 13.0782 49.3768 12.8841 49.3768 12.6303C49.3768 12.3435 49.4903 12.1345 49.7233 12.0001C49.9532 11.8657 50.2519 11.7791 50.6162 11.7373C50.9806 11.6984 51.3629 11.6775 51.7601 11.6775C52.3156 11.6775 52.9189 11.7462 53.57 11.8806C54.221 12.015 54.9109 12.242 55.6396 12.5586L56.4968 8.53568C56.1324 8.41024 55.6785 8.29377 55.1409 8.18924C54.6003 8.08769 54.0329 7.9981 53.4385 7.92642L53.4415 7.92343Z" fill="white"/>
  <path d="M72.6868 12.5524C72.6868 11.6953 72.5076 10.9248 72.1522 10.2438C71.7938 9.5629 71.2562 9.02532 70.5335 8.63707C69.8107 8.24881 68.9028 8.05469 67.8068 8.05469H59.8326L56.5952 23.3847H61.7142L62.4996 19.6246H65.5459C67.5619 19.6246 69.1447 19.1079 70.2946 18.0776C71.4444 17.0472 72.194 15.6406 72.5434 13.8635C72.639 13.4036 72.6868 12.9676 72.6868 12.5554V12.5524ZM67.3319 13.8606C67.2214 14.4011 67.0093 14.8342 66.7017 15.1567C66.3911 15.4823 65.8954 15.6435 65.2144 15.6435H63.3568L64.1184 12.0238H66.0716C66.5464 12.0238 66.8899 12.1284 67.096 12.3344C67.302 12.5405 67.4066 12.8272 67.4066 13.1916C67.4066 13.3976 67.3827 13.6186 67.3349 13.8576L67.3319 13.8606Z" fill="white"/>
  <path d="M75.6884 8.05469L72.4509 23.3847H77.5669L80.8073 8.05469H75.6884Z" fill="white"/>
  <path d="M91.5411 15.1239L87.996 8.05469H83.6864L80.449 23.3847H85.5679L87.0433 16.3394L90.5645 23.3847H94.9218L98.1593 8.05469H93.0403L91.5411 15.1239Z" fill="white"/>
  <path d="M124.107 8.05469H118.988L115.75 23.3847H127.44L128.249 19.4813H121.679L124.107 8.05469Z" fill="white"/>
  <path d="M144.782 9.17182C143.6 8.26689 141.993 7.81592 139.962 7.81592C138.122 7.81592 136.555 8.07873 135.261 8.60138C133.968 9.12403 132.914 9.96624 132.096 11.125C131.277 12.2838 130.662 13.8219 130.25 15.7422C130.154 16.1693 130.086 16.5755 130.047 16.9578C130.008 17.3401 129.987 17.7104 129.987 18.0777C129.987 19.362 130.262 20.4132 130.808 21.2315C131.355 22.0499 132.125 22.6531 133.117 23.0414C134.109 23.4296 135.264 23.6238 136.581 23.6238C138.439 23.6238 140.013 23.361 141.306 22.8383C142.599 22.3157 143.654 21.4735 144.472 20.3147C145.29 19.1559 145.896 17.6327 146.294 15.7452C146.389 15.3182 146.455 14.909 146.497 14.5207C146.536 14.1325 146.556 13.7622 146.556 13.4127C146.556 11.4924 145.965 10.0797 144.782 9.1748V9.17182ZM141.058 15.7422C140.789 16.9966 140.374 17.9015 139.822 18.457C139.266 19.0125 138.496 19.2903 137.513 19.2903C136.719 19.2903 136.145 19.141 135.787 18.8393C135.429 18.5377 135.252 18.0449 135.252 17.3639C135.252 16.9189 135.324 16.3814 135.467 15.7452C135.736 14.4282 136.148 13.5053 136.704 12.9707C137.259 12.4391 138.036 12.1733 139.036 12.1733C139.831 12.1733 140.401 12.3167 140.751 12.6004C141.1 12.8871 141.273 13.3769 141.273 14.0757C141.273 14.5207 141.202 15.0762 141.058 15.7422Z" fill="white"/>
  <path d="M158.697 7.81592C155.555 7.81592 153.157 8.49088 151.508 9.84081C149.857 11.1907 148.755 13.1648 148.199 15.7691C148.056 16.453 147.984 17.0952 147.984 17.6984C147.984 18.9827 148.295 20.0668 148.913 20.9478C149.531 21.8289 150.391 22.4949 151.496 22.9488C152.598 23.3998 153.889 23.6268 155.364 23.6268C156.332 23.6268 157.21 23.5581 157.995 23.4237C158.781 23.2893 159.545 23.0952 160.292 22.8413L161.244 18.3644C160.468 18.681 159.7 18.917 158.948 19.0663C158.195 19.2186 157.428 19.2933 156.651 19.2933C155.445 19.2933 154.575 19.132 154.044 18.8065C153.512 18.4809 153.246 17.9135 153.246 17.1041C153.246 16.913 153.261 16.7069 153.294 16.4859C153.327 16.2649 153.366 16.026 153.414 15.7721C153.682 14.455 154.214 13.5232 155.009 12.9737C155.803 12.4272 156.842 12.1524 158.126 12.1524C159.031 12.1524 159.796 12.2271 160.423 12.3794C161.05 12.5317 161.68 12.7736 162.317 13.1051L163.269 8.65215C162.633 8.38336 161.949 8.17729 161.212 8.03394C160.474 7.89058 159.638 7.8189 158.7 7.8189L158.697 7.81592Z" fill="white"/>
  <path d="M178.229 9.17182C177.046 8.26689 175.44 7.81592 173.409 7.81592C171.569 7.81592 170.001 8.07873 168.708 8.60138C167.415 9.12403 166.36 9.96624 165.542 11.125C164.724 12.2838 164.109 13.8219 163.696 15.7422C163.601 16.1693 163.532 16.5755 163.493 16.9578C163.455 17.3401 163.434 17.7104 163.434 18.0777C163.434 19.362 163.708 20.4132 164.255 21.2315C164.801 22.0499 165.572 22.6531 166.564 23.0414C167.555 23.4296 168.711 23.6238 170.028 23.6238C171.886 23.6238 173.459 23.361 174.753 22.8383C176.046 22.3157 177.1 21.4735 177.918 20.3147C178.737 19.1559 179.343 17.6327 179.74 15.7452C179.836 15.3182 179.901 14.909 179.943 14.5207C179.982 14.1325 180.003 13.7622 180.003 13.4127C180.003 11.4924 179.412 10.0797 178.229 9.1748V9.17182ZM174.505 15.7422C174.236 16.9966 173.821 17.9015 173.268 18.457C172.713 19.0125 171.942 19.2903 170.96 19.2903C170.165 19.2903 169.592 19.141 169.234 18.8393C168.875 18.5377 168.699 18.0449 168.699 17.3639C168.699 16.9189 168.771 16.3814 168.914 15.7452C169.183 14.4282 169.595 13.5053 170.15 12.9707C170.706 12.4391 171.482 12.1733 172.483 12.1733C173.277 12.1733 173.848 12.3167 174.197 12.6004C174.547 12.8871 174.72 13.3769 174.72 14.0757C174.72 14.5207 174.648 15.0762 174.505 15.7422Z" fill="white"/>
  <path d="M103.395 8.54126L103.409 8.53271C103.409 8.53271 103.4 8.53841 103.395 8.54126Z" fill="white"/>
  <path d="M115.114 11.985C115.98 12.3613 116.297 12.648 116.586 12.8332C114.935 9.14181 111.309 7.84863 111.309 7.84863C111.309 7.84863 112.08 7.37974 112.919 7.43051C109.511 5.99397 105.187 7.45739 102.612 9.30308C101.901 9.78392 101.283 10.3902 100.766 11.1279C99.9481 12.2867 99.3329 13.8247 98.9208 15.7451C98.867 15.984 98.8252 16.214 98.7893 16.438C98.7834 16.438 98.7804 16.438 98.7744 16.438C98.7774 16.438 98.7834 16.4439 98.7864 16.4469C98.7595 16.6231 98.7356 16.7934 98.7177 16.9606C98.6788 17.3429 98.6579 17.7132 98.6579 18.0806C98.6579 18.3016 98.7177 19.0661 98.7326 19.1677C97.8307 18.7884 97.4992 18.4957 97.1975 18.3046C98.2309 20.44 99.5718 21.7093 100.677 22.4499C100.817 22.5485 100.964 22.6411 101.119 22.7277C102.054 23.2742 102.729 23.4206 102.729 23.4206C102.729 23.4206 101.934 23.9163 101.065 23.8715C104.162 25.1408 107.958 24.1075 110.637 22.5335C111.635 22.0109 112.471 21.2702 113.146 20.3145C113.964 19.1557 114.57 17.6326 114.968 15.7451C115.063 15.318 115.129 14.9089 115.171 14.5206C115.209 14.1324 115.23 13.762 115.23 13.4126C115.23 12.9318 115.192 12.4808 115.117 12.0627C115.117 12.0388 115.117 12.0119 115.117 11.988L115.114 11.985ZM104.132 15.7451C104.401 14.428 104.813 13.5052 105.369 12.9706C105.924 12.439 106.701 12.1732 107.701 12.1732C108.496 12.1732 109.066 12.3165 109.416 12.6002C109.765 12.887 109.938 13.3768 109.938 14.0756C109.938 14.5206 109.867 15.0761 109.723 15.7421C109.454 16.9965 109.039 17.9014 108.487 18.4569C107.931 19.0124 107.161 19.2901 106.178 19.2901C105.384 19.2901 104.81 19.1408 104.452 18.8392C104.093 18.5375 103.917 18.0447 103.917 17.3638C103.917 16.9188 103.989 16.3812 104.132 15.7451Z" fill="white"/>
</svg>